G04 ================== begin FILE IDENTIFICATION RECORD ==================*
G04 Layout Name:  F:/3-MyLaptopDIR/POF-PSU-C2/PCB/PSU-C2-6Layers - Copy.brd*
G04 Film Name:    GND2*
G04 File Format:  Gerber RS274X*
G04 File Origin:  Cadence Allegro 22.1-P001*
G04 Origin Date:  Thu Jun 12 14:48:47 2025*
G04 *
G04 Layer:  VIA CLASS/GND2*
G04 Layer:  PIN/GND2*
G04 Layer:  ETCH/GND2*
G04 *
G04 Offset:    (0.0000 0.0000)*
G04 Mirror:    No*
G04 Mode:      Positive*
G04 Rotation:  0*
G04 FullContactRelief:  No*
G04 UndefLineWidth:     0.0254*
G04 ================== end FILE IDENTIFICATION RECORD ====================*
%FSLAX25Y25*MOIN*%
%IR0*IPPOS*OFA0.00000B0.00000*MIA0B0*SFA1.00000B1.00000*%
%ADD11C,.015748*%
%ADD14C,.047244*%
%ADD10C,.090551*%
%ADD12C,.098425*%
%ADD13C,.070866*%
%ADD15C,.055134*%
%ADD16C,.137811*%
G75*
%LPD*%
G75*
G36*
G01X320486Y-7874D02*
X334817D01*
G02X335188Y-8424I0J-400D01*
G03X334594Y-11495I7647J-3072D01*
G01Y-11496D01*
G03X342835Y-19737I8241J0D01*
G01X342836D01*
G03X345907Y-19143I-1J8241D01*
G02X346456Y-19514I149J-371D01*
G01Y-59316D01*
G02X345758Y-59582I-400J0D01*
G03X343701Y-58661I-2057J-1835D01*
G03X343222Y-58702I0J-2757D01*
G02X342825Y-58080I-69J394D01*
G03X343320Y-56504I-2262J1576D01*
G03X342094Y-54211I-2757J0D01*
G02X342042Y-53587I222J333D01*
G03X342914Y-51575I-1885J2012D01*
G03X341930Y-49463I-2757J0D01*
G02X341980Y-48815I257J306D01*
G03X343308Y-46457I-1428J2358D01*
G03X342380Y-44394I-2757J0D01*
G02Y-43795I265J299D01*
G03X343308Y-41732I-1829J2063D01*
G03X342165Y-39498I-2757J0D01*
G02Y-38849I234J324D01*
G03Y-34380I-1614J2235D01*
G02Y-33731I234J324D01*
G03X343308Y-31496I-1614J2235D01*
G03X337794I-2757J0D01*
G03X338937Y-33731I2757J0D01*
G02Y-34380I-234J-324D01*
G03Y-38849I1614J-2235D01*
G02Y-39498I-234J-324D01*
G03X337794Y-41732I1614J-2235D01*
G03X338722Y-43795I2757J0D01*
G02Y-44394I-265J-299D01*
G03X337794Y-46457I1829J-2063D01*
G03X338779Y-48569I2757J0D01*
G02X338729Y-49217I-257J-306D01*
G03X337401Y-51575I1428J-2358D01*
G03X338627Y-53868I2757J0D01*
G02X338678Y-54492I-222J-333D01*
G03X337806Y-56504I1885J-2012D01*
G03X340563Y-59261I2757J0D01*
G03X341041Y-59219I0J2757D01*
G02X341439Y-59841I69J-394D01*
G03X340944Y-61417I2262J-1576D01*
G03X343701Y-64174I2757J0D01*
G03X345758Y-63252I0J2756D01*
G02X346456Y-63519I298J-266D01*
G01Y-98588D01*
G02X345903Y-98957I-400J0D01*
G03X342757Y-98330I-3146J-7578D01*
G01X342756D01*
G03X334551Y-106535I0J-8205D01*
G01Y-106537D01*
G03X335178Y-109682I8205J1D01*
G02X334809Y-110236I-369J-154D01*
G01X318701D01*
Y-107410D01*
G02X319311Y-107070I400J0D01*
G03X320760Y-107481I1449J2345D01*
G03Y-101968I0J2757D01*
G03X319311Y-102379I0J-2757D01*
G02X318701Y-102039I-210J340D01*
G01Y-92970D01*
G02X318900Y-92770I200J0D01*
G03X321245Y-91459I-3J2757D01*
G02X321591Y-91469I170J-105D01*
G03X321753Y-91732I2424J1313D01*
G03X321259Y-93307I2263J-1575D01*
G03X322514Y-95619I2757J0D01*
G02X322464Y-96317I-218J-336D01*
G03X320865Y-98819I1158J-2502D01*
G03X326379I2757J0D01*
G03X325124Y-96507I-2757J0D01*
G02X325174Y-95809I218J336D01*
G03X325394Y-95694I-1158J2502D01*
G03X326772Y-96064I1378J2387D01*
G03X328293Y-95606I0J2757D01*
G03X329815Y-96064I1521J2299D01*
G03X332572Y-93307I0J2757D01*
G03X332078Y-91732I-2757J0D01*
G03X332572Y-90157I-2263J1575D01*
G03X329815Y-87401I-2757J0D01*
G03X328293Y-87859I0J-2757D01*
G03X326772Y-87401I-1521J-2299D01*
G03X325394Y-87770I0J-2757D01*
G03X324016Y-87401I-1378J-2387D01*
G03X321826Y-88483I0J-2756D01*
G02X321178Y-88464I-318J243D01*
G03X318898Y-87257I-2280J-1550D01*
G03X316141Y-90014I0J-2757D01*
G03X316180Y-90478I2757J0D01*
G02X315786Y-90945I-394J-67D01*
G01X311634D01*
G02X311321Y-90296I0J400D01*
G03X311918Y-88583I-2159J1713D01*
G03X309161Y-85826I-2757J0D01*
G03X306426Y-88238I0J-2757D01*
G02X305765Y-88487I-397J50D01*
G03X303937Y-87794I-1827J-2064D01*
G03X301180Y-90546I0J-2757D01*
G02X300780Y-90945I-400J1D01*
G01X297134D01*
X297087Y-90812D01*
G03X294488Y-88976I-2598J-920D01*
G03X293010Y-89406I0J-2757D01*
G02X292411Y-88956I-215J338D01*
G03X292520Y-88189I-2648J768D01*
G03X287007I-2757J0D01*
G03X287929Y-90246I2757J0D01*
G02X287663Y-90945I-266J-298D01*
G01X284929D01*
X284882Y-90812D01*
G03X282945Y-89056I-2598J-921D01*
G02X282646Y-88607I96J388D01*
G03X282678Y-88189I-2725J418D01*
G03X282033Y-86417I-2757J0D01*
G03X282678Y-84646I-2112J1771D01*
G03X282457Y-83563I-2757J1D01*
G02X282906Y-83014I368J157D01*
G03X283465Y-83072I560J2699D01*
G03X286221Y-80315I0J2757D01*
G03X286093Y-79485I-2757J0D01*
G03X286856Y-78612I-1649J2209D01*
G02X287421Y-78469I350J-194D01*
G03X288906Y-78902I1484J2323D01*
G03X291657Y-76321I0J2757D01*
G02X292239Y-75991I399J-25D01*
G03X293500Y-76296I1261J2451D01*
G03X296052Y-74583I0J2757D01*
G03X298595Y-71835I-213J2748D01*
G03X297724Y-69824I-2756J0D01*
G03X297914Y-68819I-2567J1005D01*
G03X295157Y-66062I-2757J0D01*
G03X295085Y-66063I-7J-2757D01*
G02X294676Y-65698I-11J400D01*
G03X293986Y-64102I-2746J-239D01*
G02Y-63835I149J133D01*
G03X294686Y-62000I-2057J1835D01*
G03X289172I-2757J0D01*
G03X289872Y-63835I2757J0D01*
G02Y-64102I-149J-133D01*
G03X289172Y-65937I2057J-1835D01*
G03X291929Y-68694I2757J0D01*
G03X292002Y-68693I7J2757D01*
G02X292411Y-69058I11J-400D01*
G03X292847Y-70323I2746J239D01*
G02X292637Y-70921I-335J-218D01*
G03X290749Y-73364I863J-2618D01*
G02X289996Y-73526I-399J25D01*
G03X290076Y-72870I-2678J656D01*
G03X284562I-2757J0D01*
G03X284787Y-73961I2757J0D01*
G02X284423Y-74519I-367J-158D01*
G03X282609Y-75219I22J-2757D01*
G02X282343I-133J149D01*
G03X280508Y-74519I-1835J-2057D01*
G03X277929Y-76301I0J-2757D01*
G02X277181I-374J141D01*
G03X274602Y-74519I-2579J-975D01*
G03X272767Y-75219I0J-2757D01*
G02X272501I-133J149D01*
G03X270665Y-74519I-1835J-2057D01*
G03X267909Y-77276I0J-2757D01*
G03X267920Y-77522I2757J-1D01*
G02X267496Y-77957I-398J-36D01*
G03X267323Y-77952I-174J-2751D01*
G03Y-83465I0J-2757D01*
G03X269745Y-82025I0J2757D01*
G02X270418Y-81978I351J-191D01*
G03X272634Y-83095I2216J1640D01*
G03X275391Y-80339I0J2757D01*
G03X275359Y-79926I-2757J-1D01*
G03X275520Y-79875I-758J2650D01*
G02X275786Y-80054I66J-189D01*
G03X277486Y-82469I2754J133D01*
G02X277661Y-83067I-153J-370D01*
G03X277165Y-84646I2261J-1578D01*
G03X277809Y-86417I2757J0D01*
G03X277165Y-88189I2112J-1771D01*
G03X278087Y-90246I2757J0D01*
G02X277820Y-90945I-266J-298D01*
G01X273987D01*
G03X269320I-2333J-1469D01*
G01X265981D01*
G02X265667Y-90296I0J400D01*
G03X266265Y-88583I-2159J1713D01*
G03X260751I-2757J0D01*
G03X260756Y-88749I2757J1D01*
G02X260357Y-89173I-399J-24D01*
G01X254921D01*
X254369Y-89726D01*
X254228Y-89596D01*
G03X253510Y-89120I-1865J-2030D01*
G03X253544Y-88689I-2723J431D01*
G03X248031I-2757J0D01*
G03X249606Y-91180I2757J0D01*
G01Y-91562D01*
G03X249606Y-91626I2756J-66D01*
G03X249606Y-91690I2757J2D01*
G01Y-99993D01*
G02X249207Y-100393I-400J0D01*
G03Y-105906I6J-2757D01*
G02X249606Y-106306I-1J-400D01*
G01Y-110236D01*
X19564D01*
G02X19204Y-109662I0J400D01*
G03X8448Y-98907I-7261J3494D01*
G02X7874Y-98546I-174J360D01*
G01Y-19548D01*
G02X8441Y-19185I400J0D01*
G03X11810Y-19918I3370J7374D01*
G01X11811D01*
G03X19918Y-11811I0J8107D01*
G01Y-11810D01*
G03X19185Y-8441I-8107J0D01*
G02X19548Y-7874I364J166D01*
G01X81803D01*
G02X82102Y-8540I0J-400D01*
G03X80708Y-12205I4119J-3664D01*
G03X91733I5513J0D01*
G03X90339Y-8540I-5513J0D01*
G02X90638Y-7874I299J266D01*
G01X109756D01*
G02X110055Y-8540I0J-400D01*
G03X108661Y-12205I4119J-3664D01*
G03X119686I5513J0D01*
G03X118292Y-8540I-5513J0D01*
G02X118591Y-7874I299J266D01*
G01X181828D01*
G02X182139Y-8526I0J-400D01*
G03X181526Y-10259I2143J-1733D01*
G03X181526Y-10305I2757J1D01*
G03X180777Y-12194I2008J-1889D01*
G03X183534Y-14951I2757J0D01*
G03X184785Y-14651I0J2757D01*
G03X185827Y-14855I1042J2552D01*
G03X188583Y-12166I0J2757D01*
G03X189371Y-10236I-1969J1930D01*
G03X188774Y-8523I-2757J0D01*
G02X189087Y-7874I313J249D01*
G01X272839D01*
G02X273155Y-8520I0J-400D01*
G03X272574Y-10213I2176J-1693D01*
G03X275331Y-12969I2757J0D01*
G03X277499Y-11915I0J2757D01*
G02X278131Y-11918I315J-247D01*
G03X280315Y-12993I2184J1681D01*
G03X283072Y-10236I0J2757D01*
G03X282475Y-8523I-2757J0D01*
G02X282788Y-7874I313J249D01*
G01X316372D01*
G02X316546Y-8635I0J-400D01*
G03X314098Y-12535I1883J-3901D01*
G03X314513Y-14386I4332J0D01*
G02X313980Y-14918I-362J-171D01*
G03X312130Y-14503I-1850J-3917D01*
G03Y-23166I0J-4331D01*
G03X313980Y-22751I0J4332D01*
G02X314513Y-23283I171J-362D01*
G03X314098Y-25134I3917J-1850D01*
G03X322761I4331J0D01*
G03X322346Y-23283I-4332J0D01*
G02X322878Y-22751I362J171D01*
G03X324728Y-23166I1850J3917D01*
G03Y-14503I0J4331D01*
G03X322878Y-14918I0J-4332D01*
G02X322346Y-14386I-171J362D01*
G03X322761Y-12535I-3917J1850D01*
G03X320312Y-8635I-4332J0D01*
G02X320486Y-7874I174J360D01*
G37*
%LPC*%
G75*
G36*
G01X223066Y-109281D02*
G02X221547Y-109737I-1519J2300D01*
G02X218791Y-106980I0J2757D01*
G02X219009Y-105906I2757J0D01*
G02X218791Y-104831I2539J1075D01*
G02X221547Y-102074I2757J0D01*
G02X222294Y-102177I0J-2757D01*
G02X224016Y-101574I1721J-2154D01*
G02X226772Y-104331I0J-2757D01*
G02X226507Y-105512I-2757J0D01*
G02X226772Y-106693I-2491J-1181D01*
G02X224016Y-109450I-2757J0D01*
G02X223066Y-109281I0J2757D01*
G37*
G36*
G01X203504Y-101309D02*
G03Y-100660I-234J324D01*
G02X202361Y-98425I1614J2235D01*
G02X207875I2757J0D01*
G02X206732Y-100660I-2757J0D01*
G03Y-101309I234J-324D01*
G02X207875Y-103543I-1614J-2235D01*
G02X202361I-2757J0D01*
G02X203504Y-101309I2757J0D01*
G37*
G36*
G01X93973Y-100264D02*
G02X92630Y-98608I1302J2430D01*
G02X90157Y-95866I284J2742D01*
G02X92913Y-93109I2757J0D01*
G02X95559Y-95093I0J-2757D01*
G02X97423Y-96106I-284J-2742D01*
G02X98862Y-95700I1439J-2351D01*
G02X101619Y-98457I0J-2757D01*
G02X99353Y-101169I-2757J0D01*
G02X99379Y-101543I-2731J-375D01*
G02X99174Y-102586I-2757J0D01*
G02X99442Y-103772I-2489J-1185D01*
G02X99174Y-104957I-2757J0D01*
G02X99418Y-106091I-2513J-1134D01*
G02X93905I-2757J0D01*
G02X94172Y-104906I2757J0D01*
G02X93928Y-103772I2513J1134D01*
G02X94133Y-102729I2757J0D01*
G02X93865Y-101543I2489J1185D01*
G02X94064Y-100515I2757J0D01*
G03X93973Y-100264I-186J75D01*
G37*
G36*
G01X186308Y-97154D02*
G03X186644Y-96632I-44J398D01*
G02X186507Y-95776I2620J857D01*
G02X192020I2757J0D01*
G02X191681Y-97100I-2757J0D01*
G02X192020Y-98425I-2417J-1325D01*
G02X189264Y-101182I-2757J0D01*
G02X189056Y-101174I0J2757D01*
G02X186614Y-102650I-2441J1280D01*
G02X183857Y-99894I0J2757D01*
G02X186308Y-97154I2757J0D01*
G37*
G36*
G01X224719Y-97553D02*
G02X223335Y-97926I-1384J2384D01*
G02X220578Y-95169I0J2757D01*
G02X220889Y-93898I2757J0D01*
G02X220578Y-92626I2446J1272D01*
G02X223335Y-89869I2757J0D01*
G02X224803Y-90293I0J-2757D01*
G02X226272Y-89869I1469J-2334D01*
G02X229028Y-92626I0J-2757D01*
G02X228689Y-93951I-2757J0D01*
G02X229028Y-95276I-2417J-1325D01*
G02X226272Y-98032I-2757J0D01*
G02X224719Y-97553I0J2757D01*
G37*
G36*
G01X197038Y-90551D02*
G02X197532Y-92126I-2263J-1575D01*
G02X192019I-2757J0D01*
G02X192513Y-90551I2757J0D01*
G02X192019Y-88976I2263J1575D01*
G02X197532I2757J0D01*
G02X197038Y-90551I-2757J0D01*
G37*
G36*
G01X253769Y-82837D02*
G03X253549Y-82662I-199J-25D01*
G02X253256Y-82678I-294J2741D01*
G02Y-77165I0J2757D01*
G02X255616Y-78497I0J-2757D01*
G03X256301I343J206D01*
G02X258661Y-77165I2360J-1425D01*
G02X261418Y-79921I0J-2757D01*
G02X259258Y-82613I-2757J0D01*
G02X256504Y-85253I-2754J117D01*
G02X253769Y-82837I0J2757D01*
G37*
G36*
G01X234283Y-80174D02*
G03X234755Y-79700I81J392D01*
G02X234696Y-79134I2698J566D01*
G02X237453Y-81891I2757J0D01*
G02X236898Y-81834I0J2757D01*
G03X236426Y-82308I-81J-392D01*
G02X236485Y-82874I-2698J-566D01*
G02X236348Y-83734I-2757J0D01*
G03X236700Y-84258I380J-125D01*
G02X239265Y-87008I-192J-2750D01*
G02X239156Y-87772I-2757J0D01*
G03X239519Y-88283I384J-111D01*
G02X242127Y-91035I-149J-2753D01*
G02X236613I-2757J0D01*
G02X236722Y-90271I2757J0D01*
G03X236359Y-89761I-384J111D01*
G02X234785Y-89160I149J2753D01*
G02X233728Y-89371I-1057J2546D01*
G02X230972Y-86614I0J2757D01*
G02X231703Y-84744I2756J0D01*
G02X230972Y-82874I2025J1870D01*
G02X233728Y-80117I2757J0D01*
G02X234283Y-80174I0J-2757D01*
G37*
G36*
G01X208415Y-79138D02*
G03X208515Y-78539I-207J342D01*
G02X207873Y-76772I2116J1768D01*
G02X210630Y-74015I2757J0D01*
G02X212465Y-74715I0J-2757D01*
G03X212731I133J149D01*
G02X214567Y-74015I1835J-2057D01*
G02X217324Y-76772I0J-2757D01*
G02X216624Y-78607I-2757J0D01*
G03Y-78873I149J-133D01*
G02X217324Y-80709I-2057J-1835D01*
G02X214567Y-83465I-2757J0D01*
G02X212799Y-82824I0J2757D01*
G03X212201Y-82924I-256J-307D01*
G02X209843Y-84253I-2358J1428D01*
G02X207598Y-83096I0J2757D01*
G03X207049Y-82997I-326J-232D01*
G02X205512Y-83465I-1537J2288D01*
G02Y-77952I0J2757D01*
G02X207756Y-79108I0J-2757D01*
G03X208305Y-79208I326J232D01*
G02X208415Y-79138I1541J-2286D01*
G37*
G36*
G01X140443Y-79246D02*
G02X137689Y-81891I-2754J112D01*
G02X134932Y-79134I0J2757D01*
G02X136250Y-76783I2757J0D01*
G02X136220Y-76378I2727J405D01*
G02X138976Y-73621I2757J0D01*
G02X140551Y-74115I0J-2757D01*
G02X142126Y-73621I1575J-2263D01*
G02Y-79135I0J-2757D01*
G02X141006Y-78897I0J2757D01*
G03X140443Y-79246I-163J-365D01*
G37*
G36*
G01X317317Y-76042D02*
G02X317294Y-75706I2735J348D01*
G02X315747Y-73228I1209J2477D01*
G02X318504Y-70472I2757J0D01*
G02X321261Y-73216I0J-2757D01*
G02X322808Y-75693I-1209J-2477D01*
G02X321239Y-78181I-2757J0D01*
G02X321261Y-78530I-2735J-348D01*
G02X321090Y-79485I-2757J0D01*
G02X322048Y-81575I-1799J-2089D01*
G02X316535I-2757J0D01*
G02X316706Y-80619I2757J0D01*
G02X315747Y-78530I1799J2089D01*
G02X317317Y-76042I2757J0D01*
G37*
G36*
G01X338868Y-69313D02*
G03Y-68679I-244J317D01*
G02X337794Y-66496I1683J2183D01*
G02X343308I2757J0D01*
G02X342234Y-68679I-2756J0D01*
G03Y-69313I244J-317D01*
G02X343308Y-71496I-1683J-2183D01*
G02X342299Y-73628I-2756J0D01*
G03Y-74246I254J-309D01*
G02X343308Y-76378I-1748J-2131D01*
G02X337794I-2757J0D01*
G02X338803Y-74246I2756J0D01*
G03Y-73628I-254J309D01*
G02X337794Y-71496I1748J2131D01*
G02X338868Y-69313I2756J0D01*
G37*
G36*
G01X103459Y-68591D02*
G02X102382Y-68810I-1077J2538D01*
G02X99909Y-67270I0J2756D01*
G02X98076Y-64673I923J2597D01*
G02X100832Y-61917I2757J0D01*
G02X103306Y-63456I0J-2756D01*
G02X103647Y-63604I-922J-2598D01*
G02X104724Y-63385I1077J-2538D01*
G02Y-68898I0J-2757D01*
G02X103459Y-68591I0J2757D01*
G37*
G36*
G01X197269Y-65157D02*
G02X197639Y-66535I-2387J-1378D01*
G02X192125I-2757J0D01*
G02X192494Y-65157I2757J0D01*
G02X192125Y-63780I2387J1378D01*
G02X197639I2757J0D01*
G02X197269Y-65157I-2757J0D01*
G37*
G36*
G01X178798Y-60621D02*
G02X179528Y-60523I729J-2659D01*
G02Y-66036I0J-2757D01*
G02X177607Y-65257I0J2756D01*
G02X176878Y-65355I-729J2659D01*
G02Y-59842I0J2757D01*
G02X178798Y-60621I0J-2756D01*
G37*
G36*
G01X314273Y-64522D02*
G03X313652Y-64272I-392J-78D01*
G02X312075Y-64769I-1578J2260D01*
G02Y-59255I0J2757D01*
G02X314778Y-61470I0J-2757D01*
G03X315399Y-61720I392J78D01*
G02X316976Y-61224I1578J-2260D01*
G02Y-66737I0J-2757D01*
G02X314273Y-64522I0J2757D01*
G37*
G36*
G01X99856Y-57929D02*
G02X98531Y-58269I-1325J2417D01*
G02Y-52755I0J2757D01*
G02X99856Y-53094I0J-2757D01*
G02X101181Y-52755I1325J-2417D01*
G02X102506Y-53094I0J-2757D01*
G02X103831Y-52755I1325J-2417D01*
G02Y-58269I0J-2757D01*
G02X102506Y-57929I0J2757D01*
G02X101181Y-58269I-1325J2417D01*
G02X99856Y-57929I0J2757D01*
G37*
G36*
G01X123817Y-56474D02*
G03X123298Y-56163I-394J-70D01*
G02X122441Y-56300I-857J2620D01*
G02Y-50787I0J2757D01*
G02X124299Y-51507I0J-2757D01*
G03X124567Y-51509I135J148D01*
G02X126406Y-50806I1838J-2054D01*
G02X129162Y-53563I0J-2757D01*
G02X128938Y-54652I-2757J0D01*
G02X129135Y-55091I-2407J-1343D01*
G03X129808Y-55229I378J132D01*
G02X131845Y-54330I2037J-1858D01*
G02X132649Y-54450I0J-2757D01*
G02X134252Y-53936I1603J-2243D01*
G02X137009Y-56693I0J-2757D01*
G02X134539Y-59435I-2757J0D01*
G02X131783Y-62099I-2755J92D01*
G02X129027Y-59343I0J2757D01*
G02X129300Y-58146I2756J0D01*
G02X129241Y-57992I2545J1058D01*
G03X128568Y-57854I-378J-132D01*
G02X126531Y-58753I-2037J1858D01*
G02X123817Y-56474I0J2757D01*
G37*
G36*
G01X305750Y-51035D02*
G03X306384I317J244D01*
G02X308567Y-49962I2183J-1683D01*
G02X310745Y-51029I0J-2756D01*
G03X311377I316J245D01*
G02X313555Y-49962I2178J-1689D01*
G02Y-55475I0J-2757D01*
G02X311377Y-54408I0J2756D01*
G03X310745I-316J-245D01*
G02X308567Y-55475I-2178J1689D01*
G02X306384Y-54402I0J2756D01*
G03X305750I-317J-244D01*
G02X303567Y-55475I-2183J1683D01*
G02Y-49962I0J2757D01*
G02X305750Y-51035I0J-2756D01*
G37*
G36*
G01X251337Y-54291D02*
G03X251336Y-54025I-150J132D01*
G02X250629Y-52181I2050J1844D01*
G02X253386Y-49424I2757J0D01*
G02X256049Y-51469I0J-2757D01*
G02X258162Y-54150I-643J-2681D01*
G02X256066Y-56826I-2757J0D01*
G02X253402Y-58875I-2664J708D01*
G02X250645Y-56118I0J2757D01*
G02X251337Y-54291I2757J0D01*
G37*
G36*
G01X219138Y-55459D02*
G02X218897Y-54331I2515J1128D01*
G02X218928Y-53922I2757J-1D01*
G02X218003Y-51862I1832J2059D01*
G02X223517I2757J0D01*
G02X223486Y-52271I-2757J1D01*
G02X224410Y-54331I-1832J-2059D01*
G02X224169Y-55459I-2757J0D01*
G02X224410Y-56587I-2515J-1128D01*
G02X224288Y-57400I-2757J-1D01*
G03X224737Y-57912I382J-118D01*
G02X225197Y-57873I460J-2718D01*
G02X227954Y-60630I0J-2757D01*
G02X225378Y-63381I-2757J0D01*
G03X225191Y-63594I13J-200D01*
G02X225198Y-63780I-2750J-186D01*
G02X219684I-2757J0D01*
G02X220142Y-62258I2757J0D01*
G02X219684Y-60736I2299J1521D01*
G02X220084Y-59306I2757J0D01*
G03X219984Y-58780I-342J207D01*
G02X218897Y-56587I1669J2194D01*
G02X219138Y-55459I2757J0D01*
G37*
G36*
G01X241847Y-49577D02*
G03X241279Y-49458I-341J-210D01*
G02X239711Y-49948I-1569J2267D01*
G02Y-44434I0J2757D01*
G02X242057Y-45744I0J-2757D01*
G03X242626Y-45864I341J210D01*
G02X244194Y-45374I1569J-2267D01*
G02Y-50887I0J-2757D01*
G02X241847Y-49577I0J2757D01*
G37*
G36*
G01X290218Y-49996D02*
G03X290193Y-49351I-248J313D01*
G02X288976Y-47064I1540J2287D01*
G02X294489I2757J0D01*
G02X293443Y-49225I-2757J0D01*
G03X293469Y-49870I248J-313D01*
G02X294686Y-52157I-1540J-2287D01*
G02X289172I-2757J0D01*
G02X290218Y-49996I2757J0D01*
G37*
G36*
G01X255647Y-45863D02*
G02X253937Y-46457I-1710J2162D01*
G02X252559Y-46088I0J2757D01*
G02X251181Y-46457I-1378J2387D01*
G02Y-40944I0J2757D01*
G02X252559Y-41313I0J-2757D01*
G02X253937Y-40944I1378J-2387D01*
G02X256009Y-41882I0J-2757D01*
G03X256557Y-41932I301J264D01*
G02X258268Y-41338I1710J-2162D01*
G02Y-46851I0J-2757D01*
G02X256196Y-45913I0J2757D01*
G03X255647Y-45863I-301J-264D01*
G37*
G36*
G01X231818Y-39464D02*
G03X232317Y-39015I104J386D01*
G02X232283Y-38583I2722J433D01*
G02X235039Y-41339I2757J0D01*
G02X234324Y-41245I0J2757D01*
G03X233825Y-41694I-104J-386D01*
G02X233859Y-42126I-2722J-433D01*
G02X231102Y-44883I-2757J0D01*
G02X230211Y-44734I1J2757D01*
G03X229698Y-44997I-130J-379D01*
G02X229392Y-45669I-2639J796D01*
G02X229816Y-47138I-2334J-1469D01*
G02X227059Y-49894I-2757J0D01*
G02X224309Y-47328I0J2757D01*
G03X223923Y-46956I-399J-28D01*
G02X221259Y-44201I92J2755D01*
G02X224016Y-41444I2757J0D01*
G02X225537Y-41902I0J-2757D01*
G02X227059Y-41444I1521J-2299D01*
G02X227951Y-41593I-1J-2757D01*
G03X228463Y-41330I130J379D01*
G02X231102Y-39369I2639J-796D01*
G02X231818Y-39464I0J-2757D01*
G37*
G36*
G01X324795Y-39081D02*
G03X324845Y-38468I-230J328D01*
G02X324015Y-36496I1926J1972D01*
G02X329528I2757J0D01*
G02X328354Y-38753I-2757J0D01*
G03X328304Y-39367I230J-328D01*
G02X329135Y-41339I-1926J-1972D01*
G02X327992Y-43573I-2757J0D01*
G03Y-44222I234J-324D01*
G02X329135Y-46457I-1614J-2235D01*
G02X328192Y-48532I-2757J0D01*
G03X328242Y-49172I263J-301D01*
G02X329528Y-51504I-1470J-2332D01*
G02X328496Y-53655I-2757J0D01*
G03X328499Y-54281I250J-312D01*
G02X329548Y-56445I-1707J-2164D01*
G02X328361Y-58711I-2756J0D01*
G03X328347Y-59358I228J-329D01*
G02X329434Y-61551I-1669J-2193D01*
G02X323920I-2757J0D01*
G02X325107Y-59285I2756J0D01*
G03X325122Y-58638I-228J329D01*
G02X324035Y-56445I1669J2193D01*
G02X325067Y-54294I2757J0D01*
G03X325064Y-53668I-250J312D01*
G02X324015Y-51504I1707J2164D01*
G02X324957Y-49428I2757J0D01*
G03X324908Y-48789I-263J301D01*
G02X323621Y-46457I1470J2332D01*
G02X324764Y-44222I2757J0D01*
G03Y-43573I-234J324D01*
G02X323621Y-41339I1614J2235D01*
G02X324795Y-39081I2757J0D01*
G37*
G36*
G01X25869Y-37062D02*
G03Y-36430I-245J316D01*
G02X24802Y-34252I1689J2178D01*
G02X30316I2757J0D01*
G02X29249Y-36430I-2756J0D01*
G03Y-37062I245J-316D01*
G02X30316Y-39240I-1689J-2178D01*
G02X24802I-2757J0D01*
G02X25869Y-37062I2756J0D01*
G37*
G36*
G01X12165Y-36742D02*
G03Y-36093I-234J324D01*
G02X11023Y-33858I1614J2235D01*
G02X16536I2757J0D01*
G02X15394Y-36093I-2757J0D01*
G03Y-36742I234J-324D01*
G02X16536Y-38976I-1614J-2235D01*
G02X11023I-2757J0D01*
G02X12165Y-36742I2757J0D01*
G37*
G36*
G01X18644Y-34157D02*
G03Y-33559I-265J299D01*
G02X17716Y-31496I1829J2063D01*
G02X23229I2757J0D01*
G02X22301Y-33559I-2757J0D01*
G03Y-34157I265J-299D01*
G02X23229Y-36220I-1829J-2063D01*
G02X22087Y-38455I-2757J0D01*
G03Y-39104I234J-324D01*
G02X23229Y-41339I-1614J-2235D01*
G02X17716I-2757J0D01*
G02X18858Y-39104I2757J0D01*
G03Y-38455I-234J324D01*
G02X17716Y-36220I1614J2235D01*
G02X18644Y-34157I2757J0D01*
G37*
G36*
G01X50120Y-30715D02*
G02X51398Y-30401I1277J-2443D01*
G02X52675Y-30715I0J-2757D01*
G02X53874Y-30440I1199J-2482D01*
G02X54296Y-30473I-1J-2757D01*
G02X56980Y-28346I2684J-630D01*
G02Y-33859I0J-2757D01*
G02X56558Y-33826I1J2757D01*
G02X53874Y-35954I-2684J630D01*
G02X52597Y-35640I0J2757D01*
G02X51398Y-35914I-1199J2482D01*
G02X50076Y-35577I0J2757D01*
G02X48799Y-35891I-1277J2443D01*
G02Y-30377I0J2757D01*
G02X50120Y-30715I0J-2757D01*
G37*
G36*
G01X213949Y-26212D02*
G03X214598Y-25963I253J310D01*
G02X217323Y-23621I2725J-415D01*
G02X220007Y-25748I0J-2757D01*
G03X220605Y-25997I389J91D01*
G02X222047Y-25590I1442J-2349D01*
G02X224560Y-27213I0J-2757D01*
G03X225172Y-27362I365J165D01*
G02X226878Y-26771I1706J-2165D01*
G02X229062Y-27846I0J-2756D01*
G02X231784Y-30602I-34J-2756D01*
G02X229990Y-33185I-2757J0D01*
G03X229754Y-33698I139J-375D01*
G02X229922Y-34646I-2589J-948D01*
G02X224409I-2757J0D01*
G02X225433Y-32501I2757J0D01*
G03X225397Y-31853I-251J311D01*
G02X224365Y-30661I1481J2325D01*
G03X223753Y-30512I-365J-165D01*
G02X222047Y-31103I-1706J2165D01*
G02X219363Y-28977I0J2757D01*
G03X218765Y-28727I-389J-91D01*
G02X217323Y-29135I-1442J2349D01*
G02X215578Y-28513I0J2757D01*
G03X214930Y-28762I-253J-310D01*
G02X212205Y-31103I-2725J415D01*
G02Y-25590I0J2757D01*
G02X213949Y-26212I0J-2757D01*
G37*
G36*
G01X267554Y-25940D02*
G03X267604Y-25274I-195J349D01*
G02X266535Y-23094I1688J2180D01*
G02X272048I2757J0D01*
G02X270635Y-25501I-2756J0D01*
G03X270585Y-26167I195J-349D01*
G02X271654Y-28346I-1688J-2180D01*
G02X266141I-2757J0D01*
G02X267554Y-25940I2756J0D01*
G37*
G36*
G01X231833Y-18126D02*
G02X232572Y-20005I-2018J-1878D01*
G02X229815Y-22761I-2757J0D01*
G02X227119Y-20578I0J2757D01*
G02X225590Y-18110I1228J2468D01*
G02X227127Y-15638I2756J0D01*
G02X229815Y-13491I2688J-610D01*
G02X232572Y-16248I0J-2757D01*
G02X231833Y-18126I-2757J0D01*
G37*
G36*
G01X302396Y-14356D02*
G02X303464Y-16535I-1689J-2180D01*
G02X297951I-2757J0D01*
G02X298312Y-15172I2756J0D01*
G02X297243Y-12992I1689J2180D01*
G02X302757I2757J0D01*
G02X302396Y-14356I-2756J0D01*
G37*
G36*
G01X291948Y-14500D02*
G02X292535Y-16201I-2169J-1700D01*
G02X287022I-2757J0D01*
G02X287878Y-14204I2756J0D01*
G02X287291Y-12504I2169J1700D01*
G02X292804I2757J0D01*
G02X291948Y-14500I-2756J0D01*
G37*
G36*
G01X272071Y-39777D02*
G02X273887Y-38103I2579J-975D01*
G02X276618Y-35720I2731J-373D01*
G02X279375Y-38476I0J-2757D01*
G02X277381Y-41126I-2757J0D01*
G02X274650Y-43509I-2731J373D01*
G02X272071Y-41727I0J2757D01*
G03X271323I-374J-141D01*
G02X268744Y-43509I-2579J975D01*
G02Y-37995I0J2757D01*
G02X271323Y-39777I0J-2757D01*
G03X272071I374J141D01*
G37*
G36*
G01X193822Y-35070D02*
G02X193306Y-33465I2241J1606D01*
G02X198820I2757J0D01*
G02X197180Y-35985I-2757J0D01*
G03X197017Y-36583I162J-366D01*
G02X197532Y-38189I-2241J-1606D01*
G02X197163Y-39567I-2757J0D01*
G02X197532Y-40945I-2387J-1378D01*
G02X194776Y-43702I-2757J0D01*
G02X193468Y-43372I0J2757D01*
G03X192883Y-43784I-190J-352D01*
G02X192914Y-44201I-2725J-416D01*
G02X190157Y-41444I-2757J0D01*
G02X191465Y-41774I0J-2757D01*
G03X192050Y-41361I190J352D01*
G02X192019Y-40945I2725J416D01*
G02X192388Y-39567I2757J0D01*
G02X192019Y-38189I2387J1378D01*
G02X193659Y-35669I2757J0D01*
G03X193822Y-35070I-162J366D01*
G37*
G36*
G01X285041Y-24296D02*
G02X287795Y-21653I2754J-114D01*
G02X290552Y-24409I0J-2757D01*
G02X290527Y-24782I-2757J-1D01*
G03X291125Y-25181I396J-54D01*
G02X292520Y-24802I1394J-2378D01*
G02X289763Y-27559I0J-2757D01*
G02X289788Y-27187I2757J1D01*
G03X289190Y-26787I-396J54D01*
G02X287795Y-27166I-1394J2378D01*
G02X285736Y-26243I0J2757D01*
G03X285038Y-26492I-299J-266D01*
G02X282283Y-29135I-2754J114D01*
G02Y-23621I0J2757D01*
G02X284343Y-24545I0J-2757D01*
G03X285041Y-24296I299J266D01*
G37*
G36*
G01X241735Y-25343D02*
G02X240574Y-23094I1596J2248D01*
G02X246087I2757J0D01*
G02X243967Y-25777I-2757J0D01*
G03X243828Y-26492I92J-389D01*
G02X244989Y-28740I-1596J-2248D01*
G02X239476I-2757J0D01*
G02X241596Y-26058I2757J0D01*
G03X241735Y-25343I-92J389D01*
G37*
G36*
G01X254727D02*
G02X253566Y-23094I1596J2248D01*
G02X259080I2757J0D01*
G02X256959Y-25777I-2757J0D01*
G03X256820Y-26492I92J-389D01*
G02X257981Y-28740I-1596J-2248D01*
G02X252468I-2757J0D01*
G02X254588Y-26058I2757J0D01*
G03X254727Y-25343I-92J389D01*
G37*
G36*
G01X253983Y-14332D02*
G02X253150Y-14461I-834J2628D01*
G02X255906Y-11705I0J2757D01*
G02X255754Y-12608I-2757J0D01*
G03X256253Y-13120I378J-131D01*
G02X257087Y-12991I834J-2628D01*
G02X254330Y-15748I0J-2757D01*
G02X254482Y-14844I2757J0D01*
G03X253983Y-14332I-378J131D01*
G37*
G54D15*
X28634Y-105118D03*
X41732Y-101969D03*
X194882Y-105118D03*
X331996Y-100787D03*
X44094Y-93701D03*
X52469Y-88189D03*
X62598D03*
X111811Y-86811D03*
X234358Y-94685D03*
X36114Y-78346D03*
X45169Y-84449D03*
X62598Y-80709D03*
X72154D03*
X92913Y-76772D03*
X106429Y-80696D03*
X118110Y-77953D03*
X149555Y-77957D03*
X173217Y-76677D03*
X194882Y-80709D03*
X303437Y-83465D03*
X310630Y-81496D03*
X332390Y-76496D03*
X38189Y-68110D03*
X45669Y-67429D03*
X78346Y-70472D03*
X72047Y-73335D03*
X112992Y-74016D03*
X173728Y-68051D03*
X204724Y-73622D03*
X230315D03*
X222441D03*
X242835Y-68594D03*
X259047Y-74020D03*
X41732Y-59055D03*
X68861Y-57874D03*
X88189Y-61417D03*
X194488Y-55118D03*
X205512D03*
X231274Y-64567D03*
X305067Y-61976D03*
X37776Y-49193D03*
X78276Y-47224D03*
X168504Y-53630D03*
X182677Y-44776D03*
X186220Y-51181D03*
X204724Y-47638D03*
X318091Y-48917D03*
X56429Y-38980D03*
X117693Y-38512D03*
X165854Y-41339D03*
X170472Y-35039D03*
X238189Y-33071D03*
X11417Y-26878D03*
X71898Y-25500D03*
X187008Y-30315D03*
X205406Y-26563D03*
X248819Y-31602D03*
X261811Y-31209D03*
X26378Y-15067D03*
X42520Y-12205D03*
X166142Y-18504D03*
X162992Y-12992D03*
X192626Y-16248D03*
X240157Y-11705D03*
X266142Y-11111D03*
G54D16*
X54724Y-49213D03*
X150000D03*
X54724Y-18701D03*
X150000D03*
%LPD*%
G75*
G54D10*
X11811Y-106299D03*
Y-11811D03*
X342520Y-106299D03*
Y-11811D03*
G54D11*
G01X243701Y-108661D02*
X242126Y-107087D01*
G01X259449Y-108661D02*
X252717D01*
G01D02*
X243701D01*
G01X259449D02*
X261614Y-106496D01*
Y-102362D01*
G01D02*
X256713Y-97461D01*
Y-91626D01*
G01X261614Y-102362D02*
X264567Y-99409D01*
X285933D01*
G01D02*
X290839D01*
G01X301575D02*
X290839D01*
G01X307480Y-107087D02*
Y-101378D01*
X305512Y-99409D01*
X301575D01*
G01D02*
Y-107087D01*
G01Y-99409D02*
X306299Y-94685D01*
X310091D01*
X310130Y-94724D01*
X313780D01*
X13780Y-83858D03*
Y-78752D03*
Y-74016D03*
Y-33858D03*
Y-38976D03*
X11417Y-26878D03*
X24409Y-108374D03*
X21547Y-105906D03*
X18398Y-96850D03*
X20866Y-93988D03*
X20472Y-78740D03*
Y-83858D03*
X27165D03*
Y-78752D03*
X20472Y-74016D03*
X27165D03*
X20472Y-36220D03*
X27559Y-34252D03*
X20472Y-41339D03*
X27559Y-39240D03*
X20472Y-31496D03*
X26378Y-15067D03*
X35933Y-97638D03*
X28634Y-105118D03*
X32283Y-95169D03*
X36114Y-78346D03*
X35039Y-72441D03*
X38189Y-68110D03*
X37776Y-49193D03*
X28846Y-20079D03*
X41732Y-101969D03*
X41839Y-91339D03*
X44094Y-93701D03*
X48819Y-78240D03*
X45169Y-84449D03*
X45669Y-67429D03*
X48138Y-54331D03*
X41732Y-59055D03*
X47122Y-37402D03*
X48799Y-33134D03*
X42520Y-12205D03*
X52469Y-88189D03*
Y-80709D03*
X56429Y-38980D03*
X53874Y-33197D03*
X51398Y-33157D03*
X49606Y-25878D03*
X56980Y-31102D03*
X62598Y-88189D03*
Y-80709D03*
X63673Y-70866D03*
X68861Y-57874D03*
X65575Y-32984D03*
X65661Y-38343D03*
X66075Y-25551D03*
X65630Y-28154D03*
X72154Y-80709D03*
X72494Y-67034D03*
X78346Y-70472D03*
X72047Y-73335D03*
X78740Y-57480D03*
X78276Y-47224D03*
X71898Y-25500D03*
X82543Y-101205D03*
Y-103909D03*
X82665Y-106736D03*
X88189Y-61417D03*
X95276Y-97835D03*
X96622Y-101543D03*
X96685Y-103772D03*
X96661Y-106091D03*
X98862Y-98457D03*
X92913Y-95866D03*
X102020Y-82272D03*
X100091Y-79480D03*
X92913Y-76772D03*
X100051Y-74051D03*
X102382Y-66053D03*
X100832Y-64673D03*
X98531Y-55512D03*
X101181D03*
X95205Y-43701D03*
X96063Y-46744D03*
X110724Y-101130D03*
X110764Y-103945D03*
X110724Y-106705D03*
X111811Y-86811D03*
X106429Y-80696D03*
X109055Y-67811D03*
X104724Y-66142D03*
X112992Y-74016D03*
X112394Y-55846D03*
X103831Y-55512D03*
X110370Y-46059D03*
X110520Y-53654D03*
X118110Y-77953D03*
X117240Y-58953D03*
X114508Y-57819D03*
X119260Y-43996D03*
X122441Y-53543D03*
X117693Y-38512D03*
X124575Y-74016D03*
X131845Y-57087D03*
X131783Y-59343D03*
X134252Y-56693D03*
X126531Y-55996D03*
X129839Y-44283D03*
X134606Y-45937D03*
X126406Y-53563D03*
X138976Y-76378D03*
X137689Y-79134D03*
X142126Y-76378D03*
X138189Y-23909D03*
X141189Y-27705D03*
X138217Y-21327D03*
X153398Y-81551D03*
X149555Y-77957D03*
X147807Y-28740D03*
X166929Y-105118D03*
Y-107768D03*
X162508Y-82874D03*
X165642Y-47224D03*
X165854Y-41339D03*
X166142Y-18504D03*
X162992Y-12992D03*
X169685Y-105118D03*
Y-107768D03*
X170472Y-95776D03*
X172941Y-92913D03*
X173217Y-76677D03*
X173728Y-68051D03*
X176878Y-62598D03*
X168504Y-44756D03*
Y-53630D03*
X170472Y-35039D03*
Y-29488D03*
X186614Y-99894D03*
X184646Y-69579D03*
X187114Y-72441D03*
X183965Y-56693D03*
X187008D03*
X179528Y-63280D03*
X178717Y-49236D03*
X178740Y-52362D03*
X186220Y-44201D03*
X182677Y-44776D03*
X186220Y-51181D03*
X179528Y-24610D03*
X187008Y-30315D03*
X185827Y-12098D03*
X183534Y-12194D03*
X184283Y-10259D03*
X186614Y-10236D03*
X189264Y-98425D03*
X194882Y-105118D03*
X189264Y-95776D03*
X194776Y-88976D03*
Y-92126D03*
X194882Y-80709D03*
Y-66535D03*
X194488Y-55118D03*
X194882Y-63780D03*
X190157Y-44201D03*
X196063Y-33465D03*
X194776Y-38189D03*
Y-40945D03*
X196063Y-21654D03*
X192626Y-16248D03*
X195669Y-9055D03*
X201969Y-108661D03*
X205118Y-98425D03*
Y-103543D03*
Y-94882D03*
X203937Y-88976D03*
X205512Y-80709D03*
X209843Y-81496D03*
X204724Y-70472D03*
Y-73622D03*
X203937Y-63780D03*
X205512Y-55118D03*
X204724Y-44488D03*
Y-47638D03*
X203937Y-38189D03*
X205406Y-26563D03*
X205906Y-9055D03*
X211811Y-79528D03*
X214567Y-80709D03*
Y-76772D03*
X210630D03*
X220760Y-51862D03*
X217323Y-26378D03*
X212205Y-28346D03*
X221547Y-104831D03*
Y-106980D03*
X224016Y-104331D03*
Y-106693D03*
X226272Y-92626D03*
Y-95276D03*
X223335Y-95169D03*
Y-92626D03*
X227165Y-79134D03*
X230315Y-73622D03*
X222441D03*
X231399Y-56989D03*
X222441Y-60736D03*
Y-63780D03*
X225197Y-60630D03*
X231274Y-64567D03*
X221654Y-54331D03*
Y-56587D03*
X224016Y-44201D03*
X227059D03*
Y-47138D03*
X227165Y-34646D03*
X231102Y-42126D03*
X222047Y-28346D03*
X226878Y-29528D03*
X229028Y-30602D03*
X229815Y-16248D03*
X228346Y-18110D03*
X229815Y-20005D03*
X223091Y-9555D03*
X225980D03*
X228787D03*
X242126Y-107087D03*
X239370Y-91035D03*
X236508Y-87008D03*
X233728Y-86614D03*
X234358Y-94685D03*
X237453Y-79134D03*
X233728Y-82874D03*
X239711Y-47191D03*
X238189Y-33071D03*
X235039Y-38583D03*
X240157Y-11705D03*
X252717Y-108661D03*
X249213Y-103150D03*
X250787Y-88689D03*
X252362Y-91626D03*
X247130Y-68612D03*
X249606Y-66929D03*
X242835Y-68594D03*
X251181Y-43701D03*
X244194Y-48131D03*
X242232Y-28740D03*
X243331Y-23094D03*
X248819Y-31602D03*
X259449Y-108661D03*
X256713Y-91626D03*
X261024Y-95669D03*
X263508Y-88583D03*
X258661Y-79921D03*
X253256D03*
X256504Y-82496D03*
X259047Y-74020D03*
X253402Y-56118D03*
X253937Y-43701D03*
X258268Y-44094D03*
X255406Y-54150D03*
X253386Y-52181D03*
X255224Y-28740D03*
X256323Y-23094D03*
X261811Y-31209D03*
X253150Y-11705D03*
X257087Y-15748D03*
X272835Y-105618D03*
X270472Y-88189D03*
X271654Y-92413D03*
X267323Y-80709D03*
X272634Y-80339D03*
X270665Y-77276D03*
X266142Y-67717D03*
X269291D03*
X266142Y-64961D03*
Y-62598D03*
X269291Y-64961D03*
X266142Y-59843D03*
X269291Y-62598D03*
X268744Y-40752D03*
X265748Y-32283D03*
X274016Y-27953D03*
X268898Y-28346D03*
X269291Y-23094D03*
X266142Y-11111D03*
X279921Y-88189D03*
X282283Y-91732D03*
X278539Y-79921D03*
X279921Y-84646D03*
X280508Y-77276D03*
X283465Y-80315D03*
X274602Y-77276D03*
X284445D03*
X282283Y-61024D03*
Y-63780D03*
X278740Y-58661D03*
X276618Y-38476D03*
X274650Y-40752D03*
X282283Y-26378D03*
X275331Y-10213D03*
X280315Y-10236D03*
X285933Y-99409D03*
X290839D03*
X290051Y-103150D03*
X285933D03*
X290051Y-107087D03*
X293701Y-88189D03*
X294488Y-91732D03*
X289764Y-88189D03*
X292445Y-82283D03*
X288906Y-76146D03*
X287319Y-72870D03*
X295157Y-68819D03*
X291929Y-65937D03*
X293500Y-73539D03*
X291929Y-62000D03*
X291732Y-47064D03*
X291929Y-52157D03*
X292126Y-43307D03*
X292520Y-27559D03*
X287795Y-24409D03*
X290047Y-12504D03*
X289778Y-16201D03*
X301575Y-107087D03*
X303937Y-90551D03*
X303437Y-83465D03*
X295839Y-71835D03*
X305067Y-61976D03*
X303567Y-52719D03*
X304437Y-25984D03*
X300707Y-16535D03*
X300000Y-12992D03*
X307480Y-107087D03*
X309161Y-88583D03*
X310630Y-81496D03*
X316976Y-63980D03*
X312075Y-62012D03*
X308567Y-52719D03*
X313555D03*
X323622Y-98819D03*
X320760Y-104724D03*
X318898Y-90014D03*
X324016Y-90157D03*
X326772D03*
X324016Y-93307D03*
X326772D03*
X319291Y-81575D03*
X318504Y-78530D03*
Y-73228D03*
X320051Y-75693D03*
X326791Y-56445D03*
X326677Y-61551D03*
X318091Y-48917D03*
X326378Y-46457D03*
X326772Y-51504D03*
X326378Y-41339D03*
X326772Y-36496D03*
X331996Y-100787D03*
X329815Y-90157D03*
Y-93307D03*
X332390Y-76496D03*
X343575Y-91772D03*
X343594Y-94843D03*
X340484D03*
Y-91811D03*
X341823Y-89315D03*
X343043Y-84024D03*
X340551Y-76378D03*
Y-71496D03*
Y-66496D03*
X340563Y-56504D03*
X343701Y-61417D03*
X340551Y-46457D03*
X340157Y-51575D03*
X340551Y-41732D03*
Y-36614D03*
Y-31496D03*
G54D12*
X54724Y-99409D03*
Y-68898D03*
Y-49213D03*
Y-18701D03*
X150000Y-99409D03*
Y-68898D03*
Y-49213D03*
Y-18701D03*
G54D13*
X71260Y-12205D03*
X86220D03*
X114173D03*
X130709D03*
G54D14*
X313780Y-104724D03*
Y-94724D03*
X318429Y-25134D03*
Y-12535D03*
X312130Y-18835D03*
X324728D03*
M02*
