M48
METRIC,TZ
T01C.2
T02C.9
T03C1.2
T04C1.8
T05C2.2
;LEADER: 12 
;HEADER: 
;CODE  : ASCII 
;FILE  : PSU-C2-6Layers-1-6.drl for board F:/3-MyLaptopDIR/POF-PSU-C2/PCB/#Taaaacu16244.tmp ... layers TOP and BOTTOM
;T01 Holesize 1. = 0.200000 Tolerance = +0.000000/-0.000000 PLATED MM Quantity = 376
;T02 Holesize 2. = 0.900000 Tolerance = +0.000000/-0.000000 PLATED MM Quantity = 6
;T03 Holesize 3. = 1.200000 Tolerance = +0.000000/-0.000000 PLATED MM Quantity = 4
;T04 Holesize 4. = 1.800000 Tolerance = +0.000000/-0.000000 PLATED MM Quantity = 8
;T05 Holesize 5. = 2.200000 Tolerance = +0.000000/-0.000000 NON_PLATED MM Quantity = 4
%
G90
T01
X290000Y-682700
X350000Y-860000
Y-990000
Y-1880000
Y-2000300
Y-2130000
X467300Y-2460000
X620000Y-2752700
X547300Y-2690000
X727300Y-2670000
X912700Y-2480000
X820000Y-2417300
X530000Y-2387300
X520000Y-2130000
X690000
Y-2000300
X520000Y-2000000
X917300Y-1990000
X520000Y-1880000
X690000
X890000Y-1840000
X970000Y-1730000
X959500Y-1249500
X520000Y-1050000
X700000Y-996700
X520000Y-920000
X700000Y-870000
X520000Y-800000
X732700Y-510000
X670000Y-382700
X1080000Y-310000
X1260000Y-657300
X1447300Y-790000
X1239500Y-841600
X1368400Y-843200
X1305500Y-842200
X1196900Y-950000
X1433300Y-990100
X1222700Y-1380000
X1060000Y-1500000
X1160000Y-1712700
X1240000Y-1987300
X1332700Y-2050000
X1147300Y-2145000
X1332700Y-2240000
X1062700Y-2320000
X1120000Y-2380000
X1060000Y-2590000
X1590000Y-2240000
Y-2050000
X1832700
X1830000Y-1862700
X1617300Y-1800000
X1990000Y-1790000
X1841340Y-1702670
X1749060Y-1470000
X2000000Y-1460000
X1988200Y-1199500
X1667800Y-973900
X1665600Y-837800
X1667000Y-715100
X1678300Y-649000
X1826200Y-647700
X2418200Y-1110000
X2440000Y-1187300
X2502700Y-1410000
X2240000Y-1560000
X2360000Y-1950000
Y-2435000
X2420000Y-2485000
X2511100Y-2500800
X2096600Y-2570600
X2454200Y-2579200
X2455800Y-2635800
X2096600Y-2639300
X2455200Y-2694700
X2099700Y-2711100
X2812400Y-2710300
X2813400Y-2640200
X2812400Y-2568700
X2840000Y-2205000
X2591300Y-2089700
X2703290Y-2049690
X2542300Y-2018800
X3000000Y-1980000
X2541300Y-1880900
X2870000Y-1880000
X2770000Y-1722400
X2600500Y-1677750
X2660000Y-1680000
X2561140Y-1642700
X2977900Y-1497400
X2908500Y-1468600
X2854800Y-1418500
X2570000Y-1410000
X2637300
X2807200Y-1362800
X2803400Y-1169900
X3029200Y-1117500
X2989400Y-978200
X3510700Y-541700
X3510000Y-607300
X3297900Y-1124800
X3419000Y-1166800
X3110000Y-1360000
X3210700Y-1360500
X3213900Y-1422300
X3410000Y-1440000
X3348860Y-1450000
X3347300Y-1507300
X3164200Y-1880000
X3530000Y-1940000
X3497300Y-2010000
X3896300Y-2071400
X3798700Y-1980100
X3610000Y-1940000
X3754300Y-730000
X3586200Y-703700
X4140000Y-330000
X4220000Y-470000
X4560000Y-625100
X4330000Y-749000
Y-890000
X4212700Y-1050000
X4280000Y-1136800
X4207300Y-1199500
X4539400Y-1250600
X4540000Y-1330000
X4280000Y-1362200
X4492700Y-1590000
X4560000Y-1607300
X4412700Y-1728500
X4399700Y-1947600
X4127700Y-2105000
X4392700Y-2360000
X4330000Y-2432700
X4310000Y-2670000
X4240000
X4310000Y-2737300
X4240000
X4950000Y-2670000
X4740000Y-2537300
X4807300Y-2500000
Y-2432700
X4947300Y-2340000
Y-2260000
X4950000Y-2050000
X4752700Y-1840000
X4690000Y-1767300
X4950000Y-1690000
Y-1620000
X4672700Y-1440000
X4750000
X4940000Y-1400000
X4730000Y-1300000
X4640000Y-1137300
X4730000Y-1122700
X4830000
X4947300Y-1040000
Y-970000
X4980000Y-850000
X4750000Y-770000
X4980000Y-550000
X4892700Y-412700
X4661760Y-309730
X4720000Y-307300
X4680780Y-260580
X4740000Y-260000
X4970000Y-230000
X5230000
X5520000Y-670000
X5217300Y-674700
X5390000Y-720000
X5180000Y-970000
X5200000Y-1130000
Y-1210000
X5220000Y-1400000
X5180000Y-1620000
X5200000Y-1790000
Y-1870000
X5450000Y-1950000
X5350000
X5380000Y-2020000
X5450000Y-2050000
X5220000
X5330000Y-2070000
X5180000Y-2260000
X5210000Y-2410000
Y-2500000
Y-2630000
X5130000Y-2760000
X5627300Y-2717300
X5690000Y-2710000
X5627300Y-2662700
X5690000Y-2650000
X5747300Y-2420000
X5672700Y-2417300
X5952700Y-2405000
X5672700Y-2352700
X5747300
X6080000Y-2312300
X6007300Y-2210000
X5936700Y-2200000
Y-2105000
X5770000Y-2010000
X6031300
X5650000Y-1870000
X5850000
X5874350Y-1640000
X5650000Y-1620000
Y-1542700
X5720000Y-1540000
X5877530Y-1447520
X5630000Y-1437300
Y-1380000
X5607300Y-1317300
X6088650Y-1198650
X5767300Y-1197300
X5690000Y-1122700
X5767300
X5870000Y-1070000
X5970000Y-980000
X5770000Y-880000
X6050000Y-840000
X5817300Y-777300
X5762700Y-750000
X5640000Y-720000
X5837300Y-508120
X5800000Y-460000
X5837300Y-412700
X5666500Y-242700
X5739900
X5811200
X6430000Y-297300
X6100000
X6530000Y-400000
X6510600Y-586600
X6180600
X6482700Y-730000
X6152700
X6320000Y-802700
X6450000Y-1110000
X6380000
X6560000Y-1120000
X6202530Y-1222520
X6436000Y-1325400
X6487300Y-1375400
X6436400Y-1425400
X6340000Y-1700000
X6277100Y-1742750
X6168020Y-1742280
X6579800Y-1880100
X6570000Y-2030000
X6432700
X6515200Y-2095400
X6370000Y-2252700
X6520500Y-2327300
X6410000
X6330000Y-2620000
X6150000Y-2720000
X6590000Y-2760000
X6419000
X6930000Y-2682700
X6630000Y-2430000
X6900000Y-2347300
X6693100Y-2250000
X6870000Y-2240000
X7110000
Y-2150000
X6790000Y-2050000
X6924900Y-2040600
X7074900Y-2030000
X6874900Y-1962800
X6974900
X6760000Y-1720000
X6840000
X6760000Y-1650000
X6840000
X6760000Y-1590000
X6840000
X6760000Y-1520000
X7080000Y-1490000
X6826100Y-1035100
X6976100
X7026100Y-977300
X6750000Y-820000
X6650000Y-792700
X6830000Y-720000
X6960000Y-710000
X6840000Y-586600
X6760000Y-282230
X6993400Y-259400
X7120000Y-260000
X7367200Y-317600
X7360370Y-411500
X7310000Y-620000
X7170000Y-670000
X7430000Y-700000
X7420000Y-1100000
X7410000Y-1195420
X7415000Y-1324800
X7170000Y-1550000
X7415000Y-1574800
X7170000Y-1620000
X7415000Y-1674800
X7497000Y-1748000
X7514300Y-1824600
X7297900Y-1850900
X7454900Y-1867900
X7338200Y-1934100
X7224900Y-1962800
X7124900
X7200000Y-2040000
X7428100Y-2090000
X7460000Y-2240000
X7360000
X7480000Y-2330000
X7170000
X7387300Y-2525000
X7262700
X7367300Y-2620000
X7262700
X7367300Y-2720000
X7660000
X7810000
X7720000Y-2300000
X8100000Y-2286350
X7852700Y-2250000
X7707300Y-2120000
X8110000Y-2072000
X7890000Y-2070000
X8090000Y-1994660
Y-1860000
X8051200Y-1625100
X7748700Y-1574200
X7926700Y-1575100
X7710600Y-1339050
X7837600
X7964300
X8079500Y-1242500
X7732700Y-660000
X7637970Y-420000
X7620000Y-330000
X8300000Y-927000
X8290000Y-1050000
Y-1180000
X8300000Y-1308200
X8300500Y-1433700
X8297600Y-1563400
X8129300Y-1922600
X8442700Y-1943000
X8377300Y-2290000
X8300000
X8230000
X8377300Y-2370000
X8300000
X8230000
X8220000Y-2510000
X8432700Y-2560000
X8147300Y-2660000
X8648300Y-2409000
X8727300
X8648300Y-2332000
X8726800Y-2331000
X8682300Y-2268600
X8713300Y-2134200
X8650000Y-1940000
Y-1816000
Y-1689000
X8730000Y-1560000
X8650300Y-1435200
X8640000Y-1310000
X8650000Y-1180000
Y-1060000
Y-930000
Y-800000
T02
X7970000Y-2660000
Y-2406000
X8088100Y-638400
X7928100Y-478400
X8088100Y-318400
X8248100Y-478400
T03
X1810000Y-310000
X2190000
X2900000
X3320000
T04
X1390000Y-475000
Y-1250000
Y-1750000
Y-2525000
X3810000
Y-1750000
Y-1250000
Y-475000
T05
X300000Y-300000
Y-2700000
X8700000
Y-300000
M30
