G04 ================== begin FILE IDENTIFICATION RECORD ==================*
G04 Layout Name:  F:/3-MyLaptopDIR/POF-PSU-C2/PCB/PSU-C2-6Layers - Copy.brd*
G04 Film Name:    SILKSCREEN_TOP*
G04 File Format:  Gerber RS274X*
G04 File Origin:  Cadence Allegro 22.1-P001*
G04 Origin Date:  Thu Jun 12 14:48:47 2025*
G04 *
G04 Layer:  REF DES/SILKSCREEN_TOP*
G04 Layer:  PACKAGE GEOMETRY/SILKSCREEN_TOP*
G04 Layer:  BOARD GEOMETRY/SILKSCREEN_TOP*
G04 Layer:  BOARD GEOMETRY/ASSEMBLY_DETAIL*
G04 *
G04 Offset:    (0.0000 0.0000)*
G04 Mirror:    No*
G04 Mode:      Positive*
G04 Rotation:  0*
G04 FullContactRelief:  No*
G04 UndefLineWidth:     0.2540*
G04 ================== end FILE IDENTIFICATION RECORD ====================*
%FSLAX25Y25*MOIN*%
%IR0*IPPOS*OFA0.00000B0.00000*MIA0B0*SFA1.00000B1.00000*%
%ADD10C,.003937*%
%ADD11C,.004331*%
%ADD12C,.007874*%
%ADD13C,.011811*%
%ADD14C,.001575*%
%ADD15C,.001969*%
%ADD16C,.00315*%
G75*
%LPD*%
G75*
G36*
G01X116035Y-95878D02*
X116028D01*
X113929Y-93780D01*
Y-93772D01*
X116083D01*
X116094Y-93783D01*
Y-95819D01*
X116035Y-95878D01*
G37*
G36*
G01X187402Y-20079D02*
Y-22047D01*
X189370Y-20079D01*
X187402D01*
G37*
G36*
G01X196969Y-94331D02*
X198307D01*
X196969Y-95669D01*
Y-94331D01*
G37*
G36*
G01X196575Y-69921D02*
X197913D01*
X196575Y-71260D01*
Y-69921D01*
G37*
G36*
G01Y-44331D02*
X197913D01*
X196575Y-45669D01*
Y-44331D01*
G37*
G36*
G01X229134Y-107283D02*
Y-105315D01*
X231102Y-107283D01*
X229134D01*
G37*
G36*
G01X225264Y-42809D02*
X228020D01*
X225264Y-45565D01*
Y-42809D01*
G37*
G36*
G01X250000Y-105512D02*
X251575D01*
X250000Y-103937D01*
Y-105512D01*
G37*
G36*
G01X244389Y-89252D02*
G03I-885J0D01*
G37*
G36*
G01X260859Y-73819D02*
G03I-1954J0D01*
G37*
G36*
G01X285433Y-105906D02*
X283465D01*
X285433Y-103937D01*
Y-105906D01*
G37*
G36*
G01X291339Y-92913D02*
X293307D01*
X291339Y-94882D01*
Y-92913D01*
G37*
G36*
G01X316323Y-43163D02*
X314748D01*
X313961D01*
X316323Y-45526D01*
Y-44738D01*
Y-43163D01*
G37*
G36*
G01X330063Y-64807D02*
Y-64815D01*
X327965Y-66913D01*
X327957D01*
Y-64760D01*
X327969Y-64748D01*
X330004D01*
X330063Y-64807D01*
G37*
G54D10*
G01X14764Y-26339D02*
X9528D01*
Y-21732D01*
X17205D01*
X17204Y-26339D01*
X14764D01*
G01X25000Y-25197D02*
Y-23031D01*
X26575Y-24016D01*
X25000Y-25197D01*
G01X26575Y-23031D02*
Y-25197D01*
G01X23819Y-24016D02*
X27559D01*
G01X25787Y-22402D02*
X20551D01*
Y-17795D01*
X28228D01*
Y-22402D01*
X25787D01*
G01X29724Y-14528D02*
X24488D01*
Y-9921D01*
X32165D01*
Y-14528D01*
X29724D01*
G01X41378Y-107835D02*
X34567D01*
Y-103150D01*
X42559D01*
Y-107835D01*
X41378D01*
G01X36024Y-17323D02*
Y-15157D01*
X37598Y-16142D01*
X36024Y-17323D01*
G01X34843Y-16142D02*
X38583D01*
G01X37598Y-15157D02*
Y-17323D01*
G01X39173Y-14528D02*
X33937D01*
Y-9921D01*
X41614D01*
Y-14528D01*
X39173D01*
G01X113807Y-110295D02*
X113835D01*
Y-112323D01*
X90728D01*
Y-110280D01*
G01X116091Y-105520D02*
X116150D01*
Y-110287D01*
X88409D01*
Y-105472D01*
G01X88402Y-98650D02*
X88390D01*
Y-93768D01*
X94217D01*
G01X100984Y-44528D02*
X106220D01*
Y-49134D01*
X98543D01*
Y-44528D01*
X100984D01*
G01X96850Y-37402D02*
X95276Y-38976D01*
X96850Y-40551D01*
Y-37402D01*
G01X95276Y-40551D02*
Y-37402D01*
G01X94094Y-38976D02*
X98031D01*
G01X100984Y-38031D02*
X106220D01*
Y-42638D01*
X98543D01*
Y-38031D01*
X100984D01*
G01X110094Y-93724D02*
X116122D01*
Y-98614D01*
G01X109646Y-20512D02*
X114882D01*
Y-25118D01*
X107205D01*
Y-20512D01*
X109646D01*
G01X128307Y-102953D02*
Y-108189D01*
X123701D01*
Y-100512D01*
X128307D01*
Y-102953D01*
G01X135630Y-108228D02*
X130394D01*
Y-103622D01*
X138071D01*
Y-108228D01*
X135630D01*
G01X140354Y-107480D02*
X141929Y-105906D01*
X140354Y-104331D01*
Y-107480D01*
G01X141929Y-104331D02*
Y-107480D01*
G01X143110Y-105906D02*
X139173D01*
G01X166496Y-10669D02*
X173307D01*
Y-15354D01*
X165315D01*
Y-10669D01*
X166496D01*
G01X190551Y-109055D02*
X170472D01*
Y-100394D01*
X191339D01*
Y-109055D01*
X190551D01*
G01X183858Y-104724D02*
X182283D01*
G01X179528D02*
X177953D01*
G01X182283Y-106299D02*
Y-103150D01*
G01X179528Y-106299D02*
Y-103150D01*
G01X204331Y-21260D02*
Y-33071D01*
X187402D01*
Y-20079D01*
X204331D01*
Y-21260D01*
G01X192087Y-12717D02*
Y-17953D01*
X187480D01*
Y-10276D01*
X192087D01*
Y-12717D01*
G01X198622Y-102795D02*
X203858D01*
Y-107402D01*
X196181D01*
Y-102795D01*
X198622D01*
G01X197520Y-94291D02*
X203898D01*
Y-98543D01*
X196929D01*
Y-94291D01*
X197520D01*
G01X203189Y-91299D02*
X196378D01*
Y-86614D01*
X204370D01*
Y-91299D01*
X203189D01*
G01X188425Y-87008D02*
Y-81772D01*
X193031D01*
Y-89449D01*
X188425D01*
Y-87008D01*
G01X198622Y-78386D02*
X203858D01*
Y-82992D01*
X196181D01*
Y-78386D01*
X198622D01*
G01X202795Y-67283D02*
X195984D01*
Y-62598D01*
X203976D01*
Y-67283D01*
X202795D01*
G01X197126Y-69882D02*
X203504D01*
Y-74134D01*
X196535D01*
Y-69882D01*
X197126D01*
G01X198425Y-50827D02*
X203661D01*
Y-55433D01*
X195984D01*
Y-50827D01*
X198425D01*
G01Y-56929D02*
X203661D01*
Y-61535D01*
X195984D01*
Y-56929D01*
X198425D01*
G01X197126Y-44291D02*
X203504D01*
Y-48543D01*
X196535D01*
Y-44291D01*
X197126D01*
G01X202795Y-40512D02*
X195984D01*
Y-35827D01*
X203976D01*
Y-40512D01*
X202795D01*
G01X197992Y-11280D02*
Y-18091D01*
X193307D01*
Y-10098D01*
X197992D01*
Y-11280D01*
G01X223228Y-88189D02*
Y-108268D01*
X205906D01*
Y-85433D01*
X223228D01*
Y-88189D01*
G01Y-63386D02*
Y-83465D01*
X205906D01*
Y-60630D01*
X223228D01*
Y-63386D01*
G01Y-37795D02*
Y-57874D01*
X205906D01*
Y-35039D01*
X223228D01*
Y-37795D01*
G01Y-12992D02*
Y-33071D01*
X205906D01*
Y-10236D01*
X223228D01*
Y-12992D01*
G01X199173Y-17756D02*
Y-9055D01*
X203976D01*
Y-19173D01*
X199173D01*
Y-17756D01*
G01X213386Y-91339D02*
Y-102362D01*
G01X215748Y-98425D02*
G02Y-101181I-66J-1378D01*
G01Y-95669D02*
G02Y-98425I-66J-1378D01*
G01X214567Y-91339D02*
Y-102362D01*
G01X215748Y-92913D02*
G02Y-95669I-66J-1378D01*
G01X213386Y-66535D02*
Y-77559D01*
G01X215748Y-73622D02*
G02Y-76378I-66J-1378D01*
G01X214567Y-66535D02*
Y-77559D01*
G01X215748Y-70866D02*
G02Y-73622I-66J-1378D01*
G01Y-68110D02*
G02Y-70866I-66J-1378D01*
G01X213386Y-40945D02*
Y-51969D01*
G01X215748Y-48031D02*
G02Y-50787I-66J-1378D01*
G01Y-45276D02*
G02Y-48031I-66J-1378D01*
G01Y-42520D02*
G02Y-45276I-66J-1378D01*
G01X214567Y-40945D02*
Y-51969D01*
G01X213386Y-16142D02*
Y-27165D01*
G01X215748Y-23228D02*
G02Y-25984I-66J-1378D01*
G01Y-20472D02*
G02Y-23228I-66J-1378D01*
G01X214567Y-16142D02*
Y-27165D01*
G01X215748Y-17717D02*
G02Y-20472I-66J-1378D01*
G01X229134Y-104921D02*
Y-91535D01*
X242126D01*
Y-107283D01*
X229134D01*
Y-104921D01*
G01X242756Y-89370D02*
X227677D01*
Y-76575D01*
X243543D01*
Y-89370D01*
X242047D01*
G01X226051Y-42770D02*
X249594D01*
Y-75053D01*
X225185D01*
Y-42770D01*
X226051D01*
G01X230512Y-40906D02*
X225276D01*
Y-36299D01*
X232953D01*
Y-40906D01*
X230512D01*
G01X225630Y-25787D02*
Y-20551D01*
X230236D01*
Y-28228D01*
X225630D01*
Y-25787D01*
G01X228346Y-13386D02*
X231496D01*
G01X228346Y-11811D02*
X229921Y-13386D01*
X231496Y-11811D01*
X228346D01*
G01X229921Y-10630D02*
Y-14567D01*
G01X239173Y-31063D02*
X233937D01*
Y-26457D01*
X241614D01*
Y-31063D01*
X239173D01*
G01X236417Y-20906D02*
X241654D01*
Y-25512D01*
X233976D01*
Y-20906D01*
X236417D01*
G01X232323Y-17520D02*
Y-12283D01*
X236929D01*
Y-19961D01*
X232323D01*
Y-17520D01*
G01X242480Y-14764D02*
Y-20000D01*
X237874D01*
Y-12323D01*
X242480D01*
Y-14764D01*
G01X243740Y-102559D02*
Y-97323D01*
X248346D01*
Y-105000D01*
X243740D01*
Y-102559D01*
G01X251181Y-93307D02*
X259843D01*
Y-105512D01*
X250000D01*
Y-93307D01*
X251181D01*
G01X250197Y-88150D02*
X244961D01*
Y-83543D01*
X252638D01*
Y-88150D01*
X250197D01*
G01Y-82244D02*
X244961D01*
Y-77638D01*
X252638D01*
Y-82244D01*
X250197D01*
G01X252165Y-31063D02*
X246929D01*
Y-26457D01*
X254606D01*
Y-31063D01*
X252165D01*
G01X249409Y-20906D02*
X254646D01*
Y-25512D01*
X246969D01*
Y-20906D01*
X249409D01*
G01X244094Y-12205D02*
Y-16142D01*
G01X242520Y-13386D02*
X244094Y-14961D01*
X245669Y-13386D01*
X242520D01*
G01Y-14961D02*
X245669D01*
G01X245315Y-17520D02*
Y-12283D01*
X249921D01*
Y-19961D01*
X245315D01*
Y-17520D01*
G01X255472Y-14764D02*
Y-20000D01*
X250866D01*
Y-12323D01*
X255472D01*
Y-14764D01*
G01X262638Y-106496D02*
Y-101260D01*
X267244D01*
Y-108937D01*
X262638D01*
Y-106496D01*
G01X267283Y-93268D02*
Y-100079D01*
X262598D01*
Y-92087D01*
X267283D01*
Y-93268D01*
G01X258307Y-87992D02*
Y-82756D01*
X262913D01*
Y-90433D01*
X258307D01*
Y-87992D01*
G01X265157Y-30669D02*
X259921D01*
Y-26063D01*
X267598D01*
Y-30669D01*
X265157D01*
G01X262402Y-20906D02*
X267638D01*
Y-25512D01*
X259961D01*
Y-20906D01*
X262402D01*
G01X258307Y-17520D02*
Y-12283D01*
X262913D01*
Y-19961D01*
X258307D01*
Y-17520D01*
G01X283071Y-105906D02*
X269685D01*
Y-92913D01*
X285433D01*
Y-105906D01*
X283071D01*
G01X273819Y-85866D02*
X279055D01*
Y-90472D01*
X271378D01*
Y-85866D01*
X273819D01*
G01X263819Y-87992D02*
Y-82756D01*
X268425D01*
Y-90433D01*
X263819D01*
Y-87992D01*
G01X263472Y-59055D02*
Y-48917D01*
X283748D01*
Y-69193D01*
X263472D01*
Y-59055D01*
G01X270472Y-13780D02*
Y-17717D01*
G01X268898Y-14961D02*
X270472Y-16535D01*
X272047Y-14961D01*
X268898D01*
G01Y-16535D02*
X272047D01*
G01X268465Y-14764D02*
Y-20000D01*
X263858D01*
Y-12323D01*
X268465D01*
Y-14764D01*
G01X283268Y-85866D02*
X288504D01*
Y-90472D01*
X280827D01*
Y-85866D01*
X283268D01*
G01X293701Y-92913D02*
X307087D01*
Y-105906D01*
X291339D01*
Y-92913D01*
X293701D01*
G01X301614Y-90512D02*
X294803D01*
Y-85827D01*
X302795D01*
Y-90512D01*
X301614D01*
G01X291618Y-76555D02*
X298429D01*
Y-81240D01*
X290437D01*
Y-76555D01*
X291618D01*
G01X304972Y-81181D02*
X299736D01*
Y-76575D01*
X307413D01*
Y-81181D01*
X304972D01*
G01X316323Y-47100D02*
Y-74659D01*
X295850D01*
Y-43163D01*
X316323D01*
Y-47494D01*
G01X297835Y-23661D02*
X303071D01*
Y-28268D01*
X295394D01*
Y-23661D01*
X297835D01*
G01X308661Y-106299D02*
Y-89370D01*
X318504D01*
Y-109449D01*
X308661D01*
Y-106299D01*
G01X310630Y-100787D02*
X316535D01*
G01X313780Y-101575D02*
Y-97638D01*
G01Y-100787D02*
X311811Y-98425D01*
X315748D01*
X313780Y-100787D01*
G01X309803Y-76555D02*
X316614D01*
Y-81240D01*
X308622D01*
Y-76555D01*
X309803D01*
G01Y-81929D02*
X316614D01*
Y-86614D01*
X308622D01*
Y-81929D01*
X309803D01*
G01X332835Y-92441D02*
Y-92453D01*
X327953D01*
Y-86626D01*
G01X327909Y-70748D02*
Y-64720D01*
X332799D01*
G01X344480Y-67035D02*
Y-67008D01*
X346508D01*
Y-90114D01*
X344465D01*
G01X339705Y-64752D02*
Y-64693D01*
X344472D01*
Y-92433D01*
X339657D01*
G54D11*
G01X2165Y-92520D02*
X5315D01*
G01X2165Y-93123D02*
Y-91916D01*
G01X5315Y-90709D02*
X2165D01*
G01Y-89606D02*
X5315D01*
G01X3740D02*
Y-90709D01*
G01X2165Y-88110D02*
Y-87480D01*
G01Y-87795D02*
X5315D01*
G01Y-88110D02*
Y-87480D01*
G01X4895Y-85984D02*
X5157Y-85774D01*
X5315Y-85538D01*
Y-85328D01*
X5157Y-85118D01*
X4895Y-84961D01*
X4528Y-84882D01*
X4160Y-84934D01*
X3845Y-85066D01*
X3635Y-85302D01*
X3530Y-85617D01*
X3320Y-85800D01*
X2953Y-85879D01*
X2585Y-85827D01*
X2323Y-85696D01*
X2165Y-85512D01*
Y-85328D01*
X2270Y-85144D01*
X2533Y-84987D01*
G01X4895Y-81260D02*
X5157Y-81050D01*
X5315Y-80814D01*
Y-80604D01*
X5157Y-80394D01*
X4895Y-80236D01*
X4528Y-80157D01*
X4160Y-80210D01*
X3845Y-80341D01*
X3635Y-80578D01*
X3530Y-80893D01*
X3320Y-81076D01*
X2953Y-81155D01*
X2585Y-81102D01*
X2323Y-80971D01*
X2165Y-80787D01*
Y-80604D01*
X2270Y-80420D01*
X2533Y-80263D01*
G01X2165Y-78661D02*
Y-78031D01*
G01Y-78346D02*
X5315D01*
G01Y-78661D02*
Y-78031D01*
G01Y-76562D02*
X2165D01*
Y-76037D01*
X2323Y-75827D01*
X2533Y-75669D01*
X2848Y-75538D01*
X3215Y-75433D01*
X3740Y-75407D01*
X4265Y-75433D01*
X4633Y-75538D01*
X4948Y-75669D01*
X5157Y-75827D01*
X5315Y-76037D01*
Y-76562D01*
G01Y-73097D02*
Y-74147D01*
X2165D01*
Y-73097D01*
G01X3688Y-73517D02*
Y-74147D01*
G01X2165Y-69475D02*
X4422D01*
X4895Y-69370D01*
X5210Y-69160D01*
X5315Y-68898D01*
X5210Y-68635D01*
X4895Y-68425D01*
X4422Y-68320D01*
X2165D01*
G01X5315Y-67060D02*
X2165D01*
Y-66430D01*
X2323Y-66220D01*
X2690Y-66063D01*
X3110Y-66011D01*
X3530Y-66063D01*
X3845Y-66194D01*
X4003Y-66430D01*
Y-67060D01*
G01X22047Y-2165D02*
X22415Y-5315D01*
X22835Y-2165D01*
X23255Y-5315D01*
X23622Y-2165D01*
G01X24541Y-5315D02*
X25197Y-2165D01*
X25853Y-5315D01*
G01X25617Y-4213D02*
X24777D01*
G01X27034Y-5315D02*
Y-2165D01*
X27690D01*
X27900Y-2323D01*
X28031Y-2533D01*
X28084Y-2953D01*
X28031Y-3373D01*
X27874Y-3635D01*
X27690Y-3793D01*
X27034D01*
G01X27690D02*
X28084Y-5315D01*
G01X29318D02*
Y-2165D01*
X30525Y-5315D01*
Y-2165D01*
G01X31969D02*
X32598D01*
G01X32283D02*
Y-5315D01*
G01X31969D02*
X32598D01*
G01X34042D02*
Y-2165D01*
X35249Y-5315D01*
Y-2165D01*
G01X37165Y-3740D02*
X37690D01*
Y-4685D01*
X37533Y-5000D01*
X37349Y-5210D01*
X37087Y-5315D01*
X36824Y-5210D01*
X36641Y-5000D01*
X36483Y-4685D01*
X36378Y-4318D01*
X36326Y-3898D01*
Y-3530D01*
X36378Y-3215D01*
X36483Y-2848D01*
X36641Y-2533D01*
X36798Y-2323D01*
X37008Y-2165D01*
X37192D01*
X37402Y-2270D01*
X37559Y-2480D01*
G01X41129Y-5315D02*
Y-2165D01*
X42336Y-5315D01*
Y-2165D01*
G01X44094Y-5315D02*
X43885Y-5263D01*
X43701Y-5052D01*
X43543Y-4737D01*
X43438Y-4370D01*
X43386Y-3950D01*
Y-3530D01*
X43438Y-3110D01*
X43543Y-2743D01*
X43701Y-2428D01*
X43885Y-2218D01*
X44094Y-2165D01*
X44304Y-2218D01*
X44488Y-2428D01*
X44646Y-2743D01*
X44751Y-3110D01*
X44803Y-3530D01*
Y-3950D01*
X44751Y-4370D01*
X44646Y-4737D01*
X44488Y-5052D01*
X44304Y-5263D01*
X44094Y-5315D01*
G01X48294D02*
Y-2165D01*
X48924D01*
X49134Y-2323D01*
X49291Y-2690D01*
X49344Y-3110D01*
X49291Y-3530D01*
X49160Y-3845D01*
X48924Y-4003D01*
X48294D01*
G01X51181Y-5315D02*
X50971Y-5263D01*
X50787Y-5052D01*
X50630Y-4737D01*
X50525Y-4370D01*
X50472Y-3950D01*
Y-3530D01*
X50525Y-3110D01*
X50630Y-2743D01*
X50787Y-2428D01*
X50971Y-2218D01*
X51181Y-2165D01*
X51391Y-2218D01*
X51575Y-2428D01*
X51732Y-2743D01*
X51837Y-3110D01*
X51890Y-3530D01*
Y-3950D01*
X51837Y-4370D01*
X51732Y-4737D01*
X51575Y-5052D01*
X51391Y-5263D01*
X51181Y-5315D01*
G01X53019Y-2165D02*
Y-5315D01*
X54068D01*
G01X55249D02*
X55906Y-2165D01*
X56562Y-5315D01*
G01X56326Y-4213D02*
X55485D01*
G01X57743Y-5315D02*
Y-2165D01*
X58399D01*
X58609Y-2323D01*
X58740Y-2533D01*
X58793Y-2953D01*
X58740Y-3373D01*
X58583Y-3635D01*
X58399Y-3793D01*
X57743D01*
G01X58399D02*
X58793Y-5315D01*
G01X60315Y-2165D02*
X60945D01*
G01X60630D02*
Y-5315D01*
G01X60315D02*
X60945D01*
G01X62992Y-2165D02*
Y-5315D01*
G01X62389Y-2165D02*
X63596D01*
G01X65354Y-5315D02*
Y-3898D01*
X64830Y-2165D01*
G01X65879D02*
X65354Y-3898D01*
G01X69554Y-5315D02*
Y-2165D01*
X70184D01*
X70394Y-2323D01*
X70551Y-2690D01*
X70604Y-3110D01*
X70551Y-3530D01*
X70420Y-3845D01*
X70184Y-4003D01*
X69554D01*
G01X71916Y-5315D02*
Y-2165D01*
X72572D01*
X72782Y-2323D01*
X72913Y-2533D01*
X72966Y-2953D01*
X72913Y-3373D01*
X72756Y-3635D01*
X72572Y-3793D01*
X71916D01*
G01X72572D02*
X72966Y-5315D01*
G01X74803D02*
X74593Y-5263D01*
X74409Y-5052D01*
X74252Y-4737D01*
X74147Y-4370D01*
X74094Y-3950D01*
Y-3530D01*
X74147Y-3110D01*
X74252Y-2743D01*
X74409Y-2428D01*
X74593Y-2218D01*
X74803Y-2165D01*
X75013Y-2218D01*
X75197Y-2428D01*
X75354Y-2743D01*
X75459Y-3110D01*
X75512Y-3530D01*
Y-3950D01*
X75459Y-4370D01*
X75354Y-4737D01*
X75197Y-5052D01*
X75013Y-5263D01*
X74803Y-5315D01*
G01X77165Y-2165D02*
Y-5315D01*
G01X76562Y-2165D02*
X77769D01*
G01X80052Y-5315D02*
X79003D01*
Y-2165D01*
X80052D01*
G01X79633Y-3688D02*
X79003D01*
G01X82467Y-2428D02*
X82310Y-2270D01*
X82126Y-2165D01*
X81916D01*
X81680Y-2323D01*
X81496Y-2585D01*
X81365Y-2900D01*
X81260Y-3425D01*
X81233Y-3898D01*
X81286Y-4370D01*
X81365Y-4685D01*
X81522Y-5000D01*
X81706Y-5210D01*
X81890Y-5315D01*
X82074D01*
X82257Y-5210D01*
X82415Y-5052D01*
X82546Y-4843D01*
G01X84252Y-2165D02*
Y-5315D01*
G01X83648Y-2165D02*
X84856D01*
G01X86299D02*
X86929D01*
G01X86614D02*
Y-5315D01*
G01X86299D02*
X86929D01*
G01X88976D02*
X88767Y-5263D01*
X88583Y-5052D01*
X88425Y-4737D01*
X88320Y-4370D01*
X88268Y-3950D01*
Y-3530D01*
X88320Y-3110D01*
X88425Y-2743D01*
X88583Y-2428D01*
X88767Y-2218D01*
X88976Y-2165D01*
X89186Y-2218D01*
X89370Y-2428D01*
X89528Y-2743D01*
X89633Y-3110D01*
X89685Y-3530D01*
Y-3950D01*
X89633Y-4370D01*
X89528Y-4737D01*
X89370Y-5052D01*
X89186Y-5263D01*
X88976Y-5315D01*
G01X90735D02*
Y-2165D01*
X91942Y-5315D01*
Y-2165D01*
G01X34908Y-115945D02*
Y-112795D01*
X35538D01*
X35748Y-112953D01*
X35906Y-113320D01*
X35958Y-113740D01*
X35906Y-114160D01*
X35774Y-114475D01*
X35538Y-114633D01*
X34908D01*
G01X37244Y-115945D02*
Y-112795D01*
G01X38346D02*
Y-115945D01*
G01Y-114370D02*
X37244D01*
G01X40157Y-115945D02*
X39948Y-115893D01*
X39764Y-115682D01*
X39606Y-115367D01*
X39501Y-115000D01*
X39449Y-114580D01*
Y-114160D01*
X39501Y-113740D01*
X39606Y-113373D01*
X39764Y-113058D01*
X39948Y-112848D01*
X40157Y-112795D01*
X40367Y-112848D01*
X40551Y-113058D01*
X40709Y-113373D01*
X40814Y-113740D01*
X40866Y-114160D01*
Y-114580D01*
X40814Y-115000D01*
X40709Y-115367D01*
X40551Y-115682D01*
X40367Y-115893D01*
X40157Y-115945D01*
G01X42520Y-112795D02*
Y-115945D01*
G01X41916Y-112795D02*
X43123D01*
G01X44882Y-115945D02*
X44672Y-115893D01*
X44488Y-115682D01*
X44331Y-115367D01*
X44226Y-115000D01*
X44173Y-114580D01*
Y-114160D01*
X44226Y-113740D01*
X44331Y-113373D01*
X44488Y-113058D01*
X44672Y-112848D01*
X44882Y-112795D01*
X45092Y-112848D01*
X45276Y-113058D01*
X45433Y-113373D01*
X45538Y-113740D01*
X45591Y-114160D01*
Y-114580D01*
X45538Y-115000D01*
X45433Y-115367D01*
X45276Y-115682D01*
X45092Y-115893D01*
X44882Y-115945D01*
G01X46588Y-112795D02*
X47244Y-115945D01*
X47900Y-112795D01*
G01X49606Y-115945D02*
X49396Y-115893D01*
X49213Y-115682D01*
X49055Y-115367D01*
X48950Y-115000D01*
X48898Y-114580D01*
Y-114160D01*
X48950Y-113740D01*
X49055Y-113373D01*
X49213Y-113058D01*
X49396Y-112848D01*
X49606Y-112795D01*
X49816Y-112848D01*
X50000Y-113058D01*
X50157Y-113373D01*
X50263Y-113740D01*
X50315Y-114160D01*
Y-114580D01*
X50263Y-115000D01*
X50157Y-115367D01*
X50000Y-115682D01*
X49816Y-115893D01*
X49606Y-115945D01*
G01X51444Y-112795D02*
Y-115945D01*
X52493D01*
G01X54331Y-112795D02*
Y-115945D01*
G01X53727Y-112795D02*
X54934D01*
G01X56037Y-115945D02*
X56693Y-112795D01*
X57349Y-115945D01*
G01X57113Y-114843D02*
X56273D01*
G01X58740Y-112795D02*
X59370D01*
G01X59055D02*
Y-115945D01*
G01X58740D02*
X59370D01*
G01X61995Y-113058D02*
X61837Y-112900D01*
X61654Y-112795D01*
X61444D01*
X61207Y-112953D01*
X61024Y-113215D01*
X60893Y-113530D01*
X60787Y-114055D01*
X60761Y-114528D01*
X60814Y-115000D01*
X60893Y-115315D01*
X61050Y-115630D01*
X61233Y-115840D01*
X61417Y-115945D01*
X61601D01*
X61785Y-115840D01*
X61942Y-115682D01*
X62074Y-115472D01*
G01X66719Y-113058D02*
X66562Y-112900D01*
X66378Y-112795D01*
X66168D01*
X65932Y-112953D01*
X65748Y-113215D01*
X65617Y-113530D01*
X65512Y-114055D01*
X65485Y-114528D01*
X65538Y-115000D01*
X65617Y-115315D01*
X65774Y-115630D01*
X65958Y-115840D01*
X66142Y-115945D01*
X66326D01*
X66509Y-115840D01*
X66667Y-115682D01*
X66798Y-115472D01*
G01X69029Y-115945D02*
X67979D01*
Y-112795D01*
X69029D01*
G01X68609Y-114318D02*
X67979D01*
G01X70341Y-112795D02*
Y-115945D01*
X71391D01*
G01X72704Y-112795D02*
Y-115945D01*
X73753D01*
G01X88452Y-91693D02*
X88583Y-92008D01*
X88740Y-92218D01*
X88924Y-92323D01*
X89134Y-92218D01*
X89291Y-92008D01*
X89449Y-91693D01*
X89501Y-91273D01*
Y-89173D01*
G01X91654Y-92323D02*
Y-89173D01*
X90682Y-91430D01*
X91995D01*
G01X111719Y-5512D02*
Y-2362D01*
X112402Y-4987D01*
X113084Y-2362D01*
Y-5512D01*
G01X114186Y-2362D02*
Y-4619D01*
X114291Y-5092D01*
X114501Y-5407D01*
X114764Y-5512D01*
X115026Y-5407D01*
X115236Y-5092D01*
X115341Y-4619D01*
Y-2362D01*
G01X116575Y-5092D02*
X116785Y-5354D01*
X117021Y-5512D01*
X117231D01*
X117441Y-5354D01*
X117598Y-5092D01*
X117677Y-4724D01*
X117625Y-4357D01*
X117493Y-4042D01*
X117257Y-3832D01*
X116942Y-3727D01*
X116759Y-3517D01*
X116680Y-3150D01*
X116732Y-2782D01*
X116863Y-2520D01*
X117047Y-2362D01*
X117231D01*
X117415Y-2467D01*
X117572Y-2730D01*
G01X119488Y-2362D02*
Y-5512D01*
G01X118885Y-2362D02*
X120092D01*
G01X124790Y-2625D02*
X124633Y-2467D01*
X124449Y-2362D01*
X124239D01*
X124003Y-2520D01*
X123819Y-2782D01*
X123688Y-3097D01*
X123583Y-3622D01*
X123556Y-4094D01*
X123609Y-4567D01*
X123688Y-4882D01*
X123845Y-5197D01*
X124029Y-5407D01*
X124213Y-5512D01*
X124396D01*
X124580Y-5407D01*
X124737Y-5249D01*
X124869Y-5039D01*
G01X126575Y-5512D02*
X126365Y-5459D01*
X126181Y-5249D01*
X126024Y-4934D01*
X125919Y-4567D01*
X125866Y-4147D01*
Y-3727D01*
X125919Y-3307D01*
X126024Y-2940D01*
X126181Y-2625D01*
X126365Y-2415D01*
X126575Y-2362D01*
X126785Y-2415D01*
X126969Y-2625D01*
X127126Y-2940D01*
X127231Y-3307D01*
X127283Y-3727D01*
Y-4147D01*
X127231Y-4567D01*
X127126Y-4934D01*
X126969Y-5249D01*
X126785Y-5459D01*
X126575Y-5512D01*
G01X128333D02*
Y-2362D01*
X129541Y-5512D01*
Y-2362D01*
G01X130696Y-5512D02*
Y-2362D01*
X131903Y-5512D01*
Y-2362D01*
G01X134186Y-5512D02*
X133137D01*
Y-2362D01*
X134186D01*
G01X133767Y-3885D02*
X133137D01*
G01X136601Y-2625D02*
X136444Y-2467D01*
X136260Y-2362D01*
X136050D01*
X135814Y-2520D01*
X135630Y-2782D01*
X135499Y-3097D01*
X135394Y-3622D01*
X135367Y-4094D01*
X135420Y-4567D01*
X135499Y-4882D01*
X135656Y-5197D01*
X135840Y-5407D01*
X136024Y-5512D01*
X136207D01*
X136391Y-5407D01*
X136548Y-5249D01*
X136680Y-5039D01*
G01X138386Y-2362D02*
Y-5512D01*
G01X137782Y-2362D02*
X138989D01*
G01X142611Y-2887D02*
X142769Y-2572D01*
X142953Y-2415D01*
X143163Y-2362D01*
X143425Y-2467D01*
X143609Y-2730D01*
X143661Y-3044D01*
X143635Y-3360D01*
X143530Y-3622D01*
X143005Y-4147D01*
X142769Y-4515D01*
X142611Y-5039D01*
X142559Y-5512D01*
X143661D01*
G01X145131Y-4462D02*
X145814D01*
G01X148412Y-2625D02*
X148255Y-2467D01*
X148071Y-2362D01*
X147861D01*
X147625Y-2520D01*
X147441Y-2782D01*
X147310Y-3097D01*
X147205Y-3622D01*
X147178Y-4094D01*
X147231Y-4567D01*
X147310Y-4882D01*
X147467Y-5197D01*
X147651Y-5407D01*
X147835Y-5512D01*
X148019D01*
X148202Y-5407D01*
X148359Y-5249D01*
X148491Y-5039D01*
G01X149646Y-5512D02*
Y-2362D01*
G01X150748D02*
Y-5512D01*
G01Y-3937D02*
X149646D01*
G01X151903Y-5512D02*
X152559Y-2362D01*
X153215Y-5512D01*
G01X152979Y-4409D02*
X152139D01*
G01X154318Y-5512D02*
Y-2362D01*
X155525Y-5512D01*
Y-2362D01*
G01X156680Y-5512D02*
Y-2362D01*
X157887Y-5512D01*
Y-2362D01*
G01X160170Y-5512D02*
X159121D01*
Y-2362D01*
X160170D01*
G01X159751Y-3885D02*
X159121D01*
G01X161483Y-2362D02*
Y-5512D01*
X162533D01*
G01X163819Y-5092D02*
X164029Y-5354D01*
X164265Y-5512D01*
X164475D01*
X164685Y-5354D01*
X164843Y-5092D01*
X164921Y-4724D01*
X164869Y-4357D01*
X164737Y-4042D01*
X164501Y-3832D01*
X164186Y-3727D01*
X164003Y-3517D01*
X163924Y-3150D01*
X163976Y-2782D01*
X164107Y-2520D01*
X164291Y-2362D01*
X164475D01*
X164659Y-2467D01*
X164816Y-2730D01*
G01X169094Y-2362D02*
Y-5512D01*
G01X168491Y-2362D02*
X169698D01*
G01X171457Y-5512D02*
X171247Y-5459D01*
X171063Y-5249D01*
X170906Y-4934D01*
X170800Y-4567D01*
X170748Y-4147D01*
Y-3727D01*
X170800Y-3307D01*
X170906Y-2940D01*
X171063Y-2625D01*
X171247Y-2415D01*
X171457Y-2362D01*
X171667Y-2415D01*
X171850Y-2625D01*
X172008Y-2940D01*
X172113Y-3307D01*
X172165Y-3727D01*
Y-4147D01*
X172113Y-4567D01*
X172008Y-4934D01*
X171850Y-5249D01*
X171667Y-5459D01*
X171457Y-5512D01*
G01X176706D02*
X175656D01*
Y-2362D01*
X176706D01*
G01X176286Y-3885D02*
X175656D01*
G01X177940Y-5512D02*
Y-2362D01*
X179147Y-5512D01*
Y-2362D01*
G01X180249Y-5512D02*
X180906Y-2362D01*
X181562Y-5512D01*
G01X181326Y-4409D02*
X180485D01*
G01X183478Y-3832D02*
X183583Y-3674D01*
X183661Y-3412D01*
X183714Y-3044D01*
X183661Y-2730D01*
X183556Y-2520D01*
X183373Y-2362D01*
X182664D01*
Y-5512D01*
X183530D01*
X183714Y-5302D01*
X183819Y-4987D01*
X183871Y-4619D01*
X183819Y-4252D01*
X183661Y-3937D01*
X183478Y-3832D01*
X182664D01*
G01X185105Y-2362D02*
Y-5512D01*
X186155D01*
G01X188517D02*
X187467D01*
Y-2362D01*
X188517D01*
G01X188097Y-3885D02*
X187467D01*
G01X192192Y-5512D02*
Y-2362D01*
X192822D01*
X193031Y-2520D01*
X193189Y-2887D01*
X193241Y-3307D01*
X193189Y-3727D01*
X193058Y-4042D01*
X192822Y-4200D01*
X192192D01*
G01X195079Y-5512D02*
X194869Y-5459D01*
X194685Y-5249D01*
X194528Y-4934D01*
X194422Y-4567D01*
X194370Y-4147D01*
Y-3727D01*
X194422Y-3307D01*
X194528Y-2940D01*
X194685Y-2625D01*
X194869Y-2415D01*
X195079Y-2362D01*
X195289Y-2415D01*
X195472Y-2625D01*
X195630Y-2940D01*
X195735Y-3307D01*
X195787Y-3727D01*
Y-4147D01*
X195735Y-4567D01*
X195630Y-4934D01*
X195472Y-5249D01*
X195289Y-5459D01*
X195079Y-5512D01*
G01X196654Y-2362D02*
X197021Y-5512D01*
X197441Y-2362D01*
X197861Y-5512D01*
X198228Y-2362D01*
G01X200328Y-5512D02*
X199278D01*
Y-2362D01*
X200328D01*
G01X199908Y-3885D02*
X199278D01*
G01X201641Y-5512D02*
Y-2362D01*
X202296D01*
X202507Y-2520D01*
X202638Y-2730D01*
X202690Y-3150D01*
X202638Y-3570D01*
X202480Y-3832D01*
X202296Y-3989D01*
X201641D01*
G01X202296D02*
X202690Y-5512D01*
G01X206207D02*
Y-2362D01*
X206890Y-4987D01*
X207572Y-2362D01*
Y-5512D01*
G01X208596D02*
X209252Y-2362D01*
X209908Y-5512D01*
G01X209672Y-4409D02*
X208832D01*
G01X211011Y-5512D02*
Y-2362D01*
X212218Y-5512D01*
Y-2362D01*
G01X213320Y-5512D02*
X213976Y-2362D01*
X214633Y-5512D01*
G01X214396Y-4409D02*
X213556D01*
G01X216496Y-3937D02*
X217021D01*
Y-4882D01*
X216863Y-5197D01*
X216680Y-5407D01*
X216417Y-5512D01*
X216155Y-5407D01*
X215971Y-5197D01*
X215814Y-4882D01*
X215709Y-4515D01*
X215656Y-4094D01*
Y-3727D01*
X215709Y-3412D01*
X215814Y-3044D01*
X215971Y-2730D01*
X216129Y-2520D01*
X216339Y-2362D01*
X216522D01*
X216732Y-2467D01*
X216890Y-2677D01*
G01X219226Y-5512D02*
X218176D01*
Y-2362D01*
X219226D01*
G01X218806Y-3885D02*
X218176D01*
G01X220381Y-5512D02*
Y-2362D01*
X221063Y-4987D01*
X221745Y-2362D01*
Y-5512D01*
G01X223950D02*
X222900D01*
Y-2362D01*
X223950D01*
G01X223530Y-3885D02*
X222900D01*
G01X225184Y-5512D02*
Y-2362D01*
X226391Y-5512D01*
Y-2362D01*
G01X228150D02*
Y-5512D01*
G01X227546Y-2362D02*
X228753D01*
G01X233452Y-2625D02*
X233294Y-2467D01*
X233110Y-2362D01*
X232900D01*
X232664Y-2520D01*
X232480Y-2782D01*
X232349Y-3097D01*
X232244Y-3622D01*
X232218Y-4094D01*
X232270Y-4567D01*
X232349Y-4882D01*
X232507Y-5197D01*
X232690Y-5407D01*
X232874Y-5512D01*
X233058D01*
X233241Y-5407D01*
X233399Y-5249D01*
X233530Y-5039D01*
G01X234921Y-2362D02*
X235551D01*
G01X235236D02*
Y-5512D01*
G01X234921D02*
X235551D01*
G01X237074D02*
Y-2362D01*
X237730D01*
X237940Y-2520D01*
X238071Y-2730D01*
X238123Y-3150D01*
X238071Y-3570D01*
X237913Y-3832D01*
X237730Y-3989D01*
X237074D01*
G01X237730D02*
X238123Y-5512D01*
G01X240538Y-2625D02*
X240381Y-2467D01*
X240197Y-2362D01*
X239987D01*
X239751Y-2520D01*
X239567Y-2782D01*
X239436Y-3097D01*
X239331Y-3622D01*
X239304Y-4094D01*
X239357Y-4567D01*
X239436Y-4882D01*
X239593Y-5197D01*
X239777Y-5407D01*
X239961Y-5512D01*
X240144D01*
X240328Y-5407D01*
X240485Y-5249D01*
X240617Y-5039D01*
G01X241745Y-2362D02*
Y-4619D01*
X241850Y-5092D01*
X242060Y-5407D01*
X242323Y-5512D01*
X242585Y-5407D01*
X242795Y-5092D01*
X242900Y-4619D01*
Y-2362D01*
G01X244370D02*
X245000D01*
G01X244685D02*
Y-5512D01*
G01X244370D02*
X245000D01*
G01X247047Y-2362D02*
Y-5512D01*
G01X246444Y-2362D02*
X247651D01*
G01X124934Y-116142D02*
X123885D01*
Y-112992D01*
X124934D01*
G01X124515Y-114515D02*
X123885D01*
G01X126168Y-116142D02*
Y-112992D01*
X127375Y-116142D01*
Y-112992D01*
G01X129659Y-116142D02*
X128609D01*
Y-112992D01*
X129659D01*
G01X129239Y-114515D02*
X128609D01*
G01X130971Y-116142D02*
Y-112992D01*
X131627D01*
X131837Y-113150D01*
X131969Y-113359D01*
X132021Y-113780D01*
X131969Y-114200D01*
X131811Y-114462D01*
X131627Y-114619D01*
X130971D01*
G01X131627D02*
X132021Y-116142D01*
G01X134016Y-114567D02*
X134541D01*
Y-115512D01*
X134383Y-115827D01*
X134200Y-116037D01*
X133937Y-116142D01*
X133674Y-116037D01*
X133491Y-115827D01*
X133333Y-115512D01*
X133228Y-115144D01*
X133176Y-114724D01*
Y-114357D01*
X133228Y-114042D01*
X133333Y-113674D01*
X133491Y-113359D01*
X133648Y-113150D01*
X133858Y-112992D01*
X134042D01*
X134252Y-113097D01*
X134409Y-113307D01*
G01X136220Y-116142D02*
Y-114724D01*
X135696Y-112992D01*
G01X136745D02*
X136220Y-114724D01*
G01X140394Y-116142D02*
Y-112992D01*
G01X141496D02*
Y-116142D01*
G01Y-114567D02*
X140394D01*
G01X142651Y-116142D02*
X143307Y-112992D01*
X143963Y-116142D01*
G01X143727Y-115039D02*
X142887D01*
G01X145144Y-116142D02*
Y-112992D01*
X145800D01*
X146011Y-113150D01*
X146142Y-113359D01*
X146194Y-113780D01*
X146142Y-114200D01*
X145984Y-114462D01*
X145800Y-114619D01*
X145144D01*
G01X145800D02*
X146194Y-116142D01*
G01X147375Y-112992D02*
X148031Y-116142D01*
X148688Y-112992D01*
G01X150919Y-116142D02*
X149869D01*
Y-112992D01*
X150919D01*
G01X150499Y-114515D02*
X149869D01*
G01X152205Y-115722D02*
X152415Y-115984D01*
X152651Y-116142D01*
X152861D01*
X153071Y-115984D01*
X153228Y-115722D01*
X153307Y-115354D01*
X153255Y-114987D01*
X153123Y-114672D01*
X152887Y-114462D01*
X152572Y-114357D01*
X152389Y-114147D01*
X152310Y-113780D01*
X152362Y-113412D01*
X152493Y-113150D01*
X152677Y-112992D01*
X152861D01*
X153044Y-113097D01*
X153202Y-113359D01*
G01X155118Y-112992D02*
Y-116142D01*
G01X154515Y-112992D02*
X155722D01*
G01X158005Y-116142D02*
X156956D01*
Y-112992D01*
X158005D01*
G01X157585Y-114515D02*
X156956D01*
G01X159318Y-116142D02*
Y-112992D01*
X159974D01*
X160184Y-113150D01*
X160315Y-113359D01*
X160367Y-113780D01*
X160315Y-114200D01*
X160157Y-114462D01*
X159974Y-114619D01*
X159318D01*
G01X159974D02*
X160367Y-116142D01*
G01X204633D02*
Y-112992D01*
X205315Y-115617D01*
X205997Y-112992D01*
Y-116142D01*
G01X207152D02*
Y-112992D01*
X207782D01*
X207992Y-113150D01*
X208150Y-113517D01*
X208202Y-113937D01*
X208150Y-114357D01*
X208019Y-114672D01*
X207782Y-114830D01*
X207152D01*
G01X209515Y-116142D02*
Y-112992D01*
X210144D01*
X210354Y-113150D01*
X210512Y-113517D01*
X210564Y-113937D01*
X210512Y-114357D01*
X210381Y-114672D01*
X210144Y-114830D01*
X209515D01*
G01X212979Y-113255D02*
X212822Y-113097D01*
X212638Y-112992D01*
X212428D01*
X212192Y-113150D01*
X212008Y-113412D01*
X211877Y-113727D01*
X211772Y-114252D01*
X211745Y-114724D01*
X211798Y-115197D01*
X211877Y-115512D01*
X212034Y-115827D01*
X212218Y-116037D01*
X212402Y-116142D01*
X212585D01*
X212769Y-116037D01*
X212926Y-115879D01*
X213058Y-115669D01*
G01X214764Y-116247D02*
X214711Y-116194D01*
Y-116089D01*
X214764Y-116037D01*
X214816Y-116089D01*
Y-116194D01*
X214764Y-116247D01*
G01Y-114830D02*
X214711Y-114777D01*
Y-114672D01*
X214764Y-114619D01*
X214816Y-114672D01*
Y-114777D01*
X214764Y-114830D01*
G01X216627Y-113517D02*
X216785Y-113202D01*
X216969Y-113044D01*
X217178Y-112992D01*
X217441Y-113097D01*
X217625Y-113359D01*
X217677Y-113674D01*
X217651Y-113990D01*
X217546Y-114252D01*
X217021Y-114777D01*
X216785Y-115144D01*
X216627Y-115669D01*
X216575Y-116142D01*
X217677D01*
G01X219488Y-116247D02*
X219436Y-116194D01*
Y-116089D01*
X219488Y-116037D01*
X219541Y-116089D01*
Y-116194D01*
X219488Y-116247D01*
G01X221352Y-113517D02*
X221509Y-113202D01*
X221693Y-113044D01*
X221903Y-112992D01*
X222165Y-113097D01*
X222349Y-113359D01*
X222402Y-113674D01*
X222375Y-113990D01*
X222270Y-114252D01*
X221745Y-114777D01*
X221509Y-115144D01*
X221352Y-115669D01*
X221299Y-116142D01*
X222402D01*
G01X223556Y-112992D02*
X224213Y-116142D01*
X224869Y-112992D01*
G01X269055Y-114567D02*
X269580D01*
Y-115512D01*
X269422Y-115827D01*
X269239Y-116037D01*
X268976Y-116142D01*
X268714Y-116037D01*
X268530Y-115827D01*
X268373Y-115512D01*
X268268Y-115144D01*
X268215Y-114724D01*
Y-114357D01*
X268268Y-114042D01*
X268373Y-113674D01*
X268530Y-113359D01*
X268688Y-113150D01*
X268898Y-112992D01*
X269081D01*
X269291Y-113097D01*
X269449Y-113307D01*
G01X270735Y-112992D02*
Y-116142D01*
X271785D01*
G01X273097D02*
Y-112992D01*
X273727D01*
X273937Y-113150D01*
X274094Y-113517D01*
X274147Y-113937D01*
X274094Y-114357D01*
X273963Y-114672D01*
X273727Y-114830D01*
X273097D01*
G01X275459Y-116142D02*
Y-112992D01*
X276089D01*
X276299Y-113150D01*
X276457Y-113517D01*
X276509Y-113937D01*
X276457Y-114357D01*
X276326Y-114672D01*
X276089Y-114830D01*
X275459D01*
G01X277848Y-113517D02*
X278005Y-113202D01*
X278189Y-113044D01*
X278399Y-112992D01*
X278661Y-113097D01*
X278845Y-113359D01*
X278898Y-113674D01*
X278871Y-113990D01*
X278767Y-114252D01*
X278241Y-114777D01*
X278005Y-115144D01*
X277848Y-115669D01*
X277795Y-116142D01*
X278898D01*
G01X280709Y-112992D02*
X280499Y-113097D01*
X280341Y-113359D01*
X280236Y-113674D01*
X280157Y-114094D01*
X280131Y-114567D01*
X280157Y-115039D01*
X280236Y-115459D01*
X280341Y-115774D01*
X280499Y-116037D01*
X280709Y-116142D01*
X280919Y-116037D01*
X281076Y-115774D01*
X281181Y-115459D01*
X281260Y-115039D01*
X281286Y-114567D01*
X281260Y-114094D01*
X281181Y-113674D01*
X281076Y-113359D01*
X280919Y-113097D01*
X280709Y-112992D01*
G01X282572Y-113517D02*
X282730Y-113202D01*
X282913Y-113044D01*
X283123Y-112992D01*
X283386Y-113097D01*
X283570Y-113359D01*
X283622Y-113674D01*
X283596Y-113990D01*
X283491Y-114252D01*
X282966Y-114777D01*
X282730Y-115144D01*
X282572Y-115669D01*
X282520Y-116142D01*
X283622D01*
G01X285748D02*
Y-112992D01*
X284777Y-115249D01*
X286089D01*
G01X291404Y-116142D02*
Y-112992D01*
X292034D01*
X292244Y-113150D01*
X292402Y-113517D01*
X292454Y-113937D01*
X292402Y-114357D01*
X292270Y-114672D01*
X292034Y-114830D01*
X291404D01*
G01X294291Y-116142D02*
X294081Y-116089D01*
X293898Y-115879D01*
X293740Y-115564D01*
X293635Y-115197D01*
X293583Y-114777D01*
Y-114357D01*
X293635Y-113937D01*
X293740Y-113570D01*
X293898Y-113255D01*
X294081Y-113044D01*
X294291Y-112992D01*
X294501Y-113044D01*
X294685Y-113255D01*
X294843Y-113570D01*
X294948Y-113937D01*
X295000Y-114357D01*
Y-114777D01*
X294948Y-115197D01*
X294843Y-115564D01*
X294685Y-115879D01*
X294501Y-116089D01*
X294291Y-116142D01*
G01X296155D02*
Y-112992D01*
X297152D01*
G01X296785Y-114515D02*
X296155D01*
G01X298674Y-115092D02*
X299357D01*
G01X300853Y-116142D02*
Y-112992D01*
X301483D01*
X301693Y-113150D01*
X301850Y-113517D01*
X301903Y-113937D01*
X301850Y-114357D01*
X301719Y-114672D01*
X301483Y-114830D01*
X300853D01*
G01X303189Y-115722D02*
X303399Y-115984D01*
X303635Y-116142D01*
X303845D01*
X304055Y-115984D01*
X304213Y-115722D01*
X304291Y-115354D01*
X304239Y-114987D01*
X304107Y-114672D01*
X303871Y-114462D01*
X303556Y-114357D01*
X303373Y-114147D01*
X303294Y-113780D01*
X303346Y-113412D01*
X303478Y-113150D01*
X303661Y-112992D01*
X303845D01*
X304029Y-113097D01*
X304186Y-113359D01*
G01X305525Y-112992D02*
Y-115249D01*
X305630Y-115722D01*
X305840Y-116037D01*
X306102Y-116142D01*
X306365Y-116037D01*
X306575Y-115722D01*
X306680Y-115249D01*
Y-112992D01*
G01X308123Y-115092D02*
X308806D01*
G01X311404Y-113255D02*
X311247Y-113097D01*
X311063Y-112992D01*
X310853D01*
X310617Y-113150D01*
X310433Y-113412D01*
X310302Y-113727D01*
X310197Y-114252D01*
X310170Y-114724D01*
X310223Y-115197D01*
X310302Y-115512D01*
X310459Y-115827D01*
X310643Y-116037D01*
X310827Y-116142D01*
X311011D01*
X311194Y-116037D01*
X311352Y-115879D01*
X311483Y-115669D01*
G01X312690Y-113517D02*
X312848Y-113202D01*
X313031Y-113044D01*
X313241Y-112992D01*
X313504Y-113097D01*
X313688Y-113359D01*
X313740Y-113674D01*
X313714Y-113990D01*
X313609Y-114252D01*
X313084Y-114777D01*
X312848Y-115144D01*
X312690Y-115669D01*
X312638Y-116142D01*
X313740D01*
G01X288452Y-5315D02*
Y-2165D01*
X289081D01*
X289291Y-2323D01*
X289449Y-2690D01*
X289501Y-3110D01*
X289449Y-3530D01*
X289318Y-3845D01*
X289081Y-4003D01*
X288452D01*
G01X291916Y-2428D02*
X291759Y-2270D01*
X291575Y-2165D01*
X291365D01*
X291129Y-2323D01*
X290945Y-2585D01*
X290814Y-2900D01*
X290709Y-3425D01*
X290682Y-3898D01*
X290735Y-4370D01*
X290814Y-4685D01*
X290971Y-5000D01*
X291155Y-5210D01*
X291339Y-5315D01*
X291522D01*
X291706Y-5210D01*
X291863Y-5052D01*
X291995Y-4843D01*
G01X293911Y-3635D02*
X294016Y-3478D01*
X294094Y-3215D01*
X294147Y-2848D01*
X294094Y-2533D01*
X293989Y-2323D01*
X293806Y-2165D01*
X293097D01*
Y-5315D01*
X293963D01*
X294147Y-5105D01*
X294252Y-4790D01*
X294304Y-4422D01*
X294252Y-4055D01*
X294094Y-3740D01*
X293911Y-3635D01*
X293097D01*
G01X297874Y-4895D02*
X298084Y-5157D01*
X298320Y-5315D01*
X298530D01*
X298740Y-5157D01*
X298898Y-4895D01*
X298976Y-4528D01*
X298924Y-4160D01*
X298793Y-3845D01*
X298556Y-3635D01*
X298241Y-3530D01*
X298058Y-3320D01*
X297979Y-2953D01*
X298031Y-2585D01*
X298163Y-2323D01*
X298346Y-2165D01*
X298530D01*
X298714Y-2270D01*
X298871Y-2533D01*
G01X300472Y-2165D02*
X301102D01*
G01X300787D02*
Y-5315D01*
G01X300472D02*
X301102D01*
G01X302651Y-2165D02*
X303648D01*
X302651Y-5315D01*
X303648D01*
G01X306037D02*
X304987D01*
Y-2165D01*
X306037D01*
G01X305617Y-3688D02*
X304987D01*
G01X307874Y-5420D02*
X307822Y-5367D01*
Y-5263D01*
X307874Y-5210D01*
X307926Y-5263D01*
Y-5367D01*
X307874Y-5420D01*
G01Y-4003D02*
X307822Y-3950D01*
Y-3845D01*
X307874Y-3793D01*
X307926Y-3845D01*
Y-3950D01*
X307874Y-4003D01*
G01X309790Y-4948D02*
X309974Y-5210D01*
X310184Y-5315D01*
X310394Y-5210D01*
X310578Y-4895D01*
X310709Y-4422D01*
X310761Y-3950D01*
Y-3373D01*
X310709Y-2900D01*
X310578Y-2480D01*
X310420Y-2270D01*
X310236Y-2165D01*
X310026Y-2270D01*
X309869Y-2480D01*
X309764Y-2795D01*
X309711Y-3215D01*
X309764Y-3583D01*
X309895Y-3950D01*
X310052Y-4160D01*
X310236Y-4213D01*
X310446Y-4108D01*
X310604Y-3845D01*
X310761Y-3373D01*
G01X312598Y-2165D02*
X312389Y-2270D01*
X312231Y-2533D01*
X312126Y-2848D01*
X312047Y-3268D01*
X312021Y-3740D01*
X312047Y-4213D01*
X312126Y-4633D01*
X312231Y-4948D01*
X312389Y-5210D01*
X312598Y-5315D01*
X312808Y-5210D01*
X312966Y-4948D01*
X313071Y-4633D01*
X313150Y-4213D01*
X313176Y-3740D01*
X313150Y-3268D01*
X313071Y-2848D01*
X312966Y-2533D01*
X312808Y-2270D01*
X312598Y-2165D01*
G01X314278Y-5315D02*
Y-2165D01*
X314961Y-4790D01*
X315643Y-2165D01*
Y-5315D01*
G01X316641D02*
Y-2165D01*
X317323Y-4790D01*
X318005Y-2165D01*
Y-5315D01*
G01X319134D02*
X320236Y-2165D01*
G01X319134D02*
X320236Y-5315D01*
G01X321470Y-4685D02*
X321627Y-5052D01*
X321837Y-5263D01*
X322074Y-5315D01*
X322283Y-5263D01*
X322493Y-5000D01*
X322625Y-4685D01*
X322651Y-4370D01*
X322598Y-4003D01*
X322415Y-3740D01*
X322231Y-3635D01*
X321995D01*
G01X322231D02*
X322389Y-3478D01*
X322520Y-3215D01*
X322572Y-2900D01*
X322520Y-2585D01*
X322389Y-2323D01*
X322152Y-2165D01*
X321916Y-2218D01*
X321680Y-2428D01*
G01X324409Y-2165D02*
X324200Y-2270D01*
X324042Y-2533D01*
X323937Y-2848D01*
X323858Y-3268D01*
X323832Y-3740D01*
X323858Y-4213D01*
X323937Y-4633D01*
X324042Y-4948D01*
X324200Y-5210D01*
X324409Y-5315D01*
X324619Y-5210D01*
X324777Y-4948D01*
X324882Y-4633D01*
X324961Y-4213D01*
X324987Y-3740D01*
X324961Y-3268D01*
X324882Y-2848D01*
X324777Y-2533D01*
X324619Y-2270D01*
X324409Y-2165D01*
G01X326089Y-5315D02*
Y-2165D01*
X326772Y-4790D01*
X327454Y-2165D01*
Y-5315D01*
G01X328452D02*
Y-2165D01*
X329134Y-4790D01*
X329816Y-2165D01*
Y-5315D01*
G01X318767Y-115512D02*
X318898Y-115827D01*
X319055Y-116037D01*
X319239Y-116142D01*
X319449Y-116037D01*
X319606Y-115827D01*
X319764Y-115512D01*
X319816Y-115092D01*
Y-112992D01*
G01X321076D02*
Y-115249D01*
X321181Y-115722D01*
X321391Y-116037D01*
X321654Y-116142D01*
X321916Y-116037D01*
X322126Y-115722D01*
X322231Y-115249D01*
Y-112992D01*
G01X323412Y-116142D02*
Y-112992D01*
X324619Y-116142D01*
Y-112992D01*
G01X326693Y-116142D02*
Y-112992D01*
X325722Y-115249D01*
X327034D01*
G01X328241Y-113517D02*
X328399Y-113202D01*
X328583Y-113044D01*
X328793Y-112992D01*
X329055Y-113097D01*
X329239Y-113359D01*
X329291Y-113674D01*
X329265Y-113990D01*
X329160Y-114252D01*
X328635Y-114777D01*
X328399Y-115144D01*
X328241Y-115669D01*
X328189Y-116142D01*
X329291D01*
G01X330525Y-115669D02*
X330682Y-115932D01*
X330866Y-116089D01*
X331102Y-116142D01*
X331339Y-116037D01*
X331522Y-115827D01*
X331654Y-115459D01*
X331680Y-115039D01*
X331627Y-114619D01*
X331496Y-114357D01*
X331312Y-114147D01*
X331129Y-114094D01*
X330945Y-114147D01*
X330709Y-114357D01*
X330787Y-112992D01*
X331496D01*
G54D12*
G01X19685Y-106299D02*
G03I-7874J0D01*
G01Y-11811D02*
G03I-7874J0D01*
G01X7874Y-99213D02*
Y-18898D01*
G01X20500Y-90736D02*
G03I-5476J0D01*
G01X14906Y-93870D02*
Y-88409D01*
X12362Y-90953D01*
Y-90976D01*
G01X14906Y-88409D02*
X14953D01*
X17402Y-90858D01*
G01X98031Y-59055D02*
G03I-43307J0D01*
G01X335433Y-110236D02*
X18898D01*
G01Y-7874D02*
X335433D01*
G01X193307Y-59055D02*
G03I-43307J0D01*
G01X328272Y-18835D02*
G03I-9843J0D01*
G01X316461Y-20409D02*
X320398D01*
G01Y-16866D02*
X316461D01*
X318429Y-20409D01*
X320398Y-16866D01*
G01X318429Y-21591D02*
Y-16079D01*
G01X350394Y-106299D02*
G03I-7874J0D01*
G01Y-11811D02*
G03I-7874J0D01*
G01X346457Y-18898D02*
Y-99213D01*
G54D13*
G01X65354Y-91339D02*
X75591D01*
G01X72047Y-34646D02*
X82283D01*
G01X77165Y-30315D02*
Y-38976D01*
G01X134252Y-89173D02*
X144488D01*
G01X132677Y-35039D02*
X142913D01*
G01X137795Y-30709D02*
Y-39370D01*
G54D14*
G01X10105Y-32283D02*
Y-29134D01*
X10761D01*
X10971Y-29291D01*
X11102Y-29501D01*
X11155Y-29921D01*
X11102Y-30341D01*
X10945Y-30604D01*
X10761Y-30761D01*
X10105D01*
G01X10761D02*
X11155Y-32283D01*
G01X11837Y-31916D02*
X12021Y-32178D01*
X12231Y-32283D01*
X12441Y-32178D01*
X12625Y-31864D01*
X12756Y-31391D01*
X12808Y-30919D01*
Y-30341D01*
X12756Y-29869D01*
X12625Y-29449D01*
X12467Y-29239D01*
X12283Y-29134D01*
X12074Y-29239D01*
X11916Y-29449D01*
X11811Y-29764D01*
X11759Y-30184D01*
X11811Y-30551D01*
X11942Y-30919D01*
X12100Y-31129D01*
X12283Y-31181D01*
X12493Y-31076D01*
X12651Y-30814D01*
X12808Y-30341D01*
G01X21076Y-26378D02*
Y-23228D01*
X21601D01*
X21811Y-23386D01*
X21969Y-23596D01*
X22100Y-23911D01*
X22205Y-24278D01*
X22231Y-24803D01*
X22205Y-25328D01*
X22100Y-25696D01*
X21969Y-26011D01*
X21811Y-26220D01*
X21601Y-26378D01*
X21076D01*
G01X22730Y-25906D02*
X22887Y-26168D01*
X23071Y-26326D01*
X23307Y-26378D01*
X23543Y-26273D01*
X23727Y-26063D01*
X23858Y-25696D01*
X23885Y-25276D01*
X23832Y-24856D01*
X23701Y-24593D01*
X23517Y-24383D01*
X23333Y-24331D01*
X23150Y-24383D01*
X22913Y-24593D01*
X22992Y-23228D01*
X23701D01*
G01X30105Y-100263D02*
X29948Y-100105D01*
X29764Y-100000D01*
X29554D01*
X29318Y-100157D01*
X29134Y-100420D01*
X29003Y-100735D01*
X28898Y-101260D01*
X28871Y-101732D01*
X28924Y-102205D01*
X29003Y-102520D01*
X29160Y-102835D01*
X29344Y-103044D01*
X29528Y-103150D01*
X29711D01*
X29895Y-103044D01*
X30052Y-102887D01*
X30184Y-102677D01*
G01X31181Y-103150D02*
Y-100000D01*
X30866Y-100630D01*
G01Y-103150D02*
X31496D01*
G01X32257Y-102677D02*
X32415Y-102940D01*
X32598Y-103097D01*
X32835Y-103150D01*
X33071Y-103044D01*
X33255Y-102835D01*
X33386Y-102467D01*
X33412Y-102047D01*
X33359Y-101627D01*
X33228Y-101365D01*
X33044Y-101155D01*
X32861Y-101102D01*
X32677Y-101155D01*
X32441Y-101365D01*
X32520Y-100000D01*
X33228D01*
G01X30184Y-18898D02*
Y-15748D01*
X30840D01*
X31050Y-15906D01*
X31181Y-16115D01*
X31233Y-16535D01*
X31181Y-16956D01*
X31024Y-17218D01*
X30840Y-17375D01*
X30184D01*
G01X30840D02*
X31233Y-18898D01*
G01X32362D02*
Y-15748D01*
X32047Y-16378D01*
G01Y-18898D02*
X32677D01*
G01X44698Y-13386D02*
Y-10236D01*
X45223D01*
X45433Y-10394D01*
X45591Y-10604D01*
X45722Y-10919D01*
X45827Y-11286D01*
X45853Y-11811D01*
X45827Y-12336D01*
X45722Y-12704D01*
X45591Y-13019D01*
X45433Y-13228D01*
X45223Y-13386D01*
X44698D01*
G01X46929D02*
Y-10236D01*
X46614Y-10866D01*
G01Y-13386D02*
X47244D01*
G01X88976Y-27165D02*
X88767Y-27113D01*
X88583Y-26903D01*
X88425Y-26588D01*
X88320Y-26220D01*
X88268Y-25800D01*
Y-25381D01*
X88320Y-24961D01*
X88425Y-24593D01*
X88583Y-24278D01*
X88767Y-24068D01*
X88976Y-24016D01*
X89186Y-24068D01*
X89370Y-24278D01*
X89528Y-24593D01*
X89633Y-24961D01*
X89685Y-25381D01*
Y-25800D01*
X89633Y-26220D01*
X89528Y-26588D01*
X89370Y-26903D01*
X89186Y-27113D01*
X88976Y-27165D01*
G01X89186Y-26326D02*
X89501Y-27165D01*
G01X90578D02*
X90630Y-26483D01*
X90709Y-25906D01*
X90814Y-25381D01*
X90945Y-24803D01*
X91155Y-24016D01*
X90105D01*
G01X87503Y-18673D02*
X89730Y-20900D01*
G01X87076Y-19100D02*
X87930Y-18246D01*
G01X90528Y-20102D02*
X88301Y-17875D01*
X88746Y-17429D01*
X89006Y-17392D01*
X89378Y-17541D01*
X89711Y-17800D01*
X89971Y-18135D01*
X90101Y-18450D01*
X90046Y-18728D01*
X89600Y-19174D01*
G01X89860Y-17058D02*
X89749Y-16724D01*
X89767Y-16483D01*
X89879Y-16297D01*
X90139Y-16186D01*
X90454Y-16241D01*
X90714Y-16427D01*
X90918Y-16669D01*
X91029Y-16928D01*
Y-17670D01*
X91122Y-18097D01*
X91382Y-18580D01*
X91679Y-18951D01*
X92458Y-18172D01*
G01X91029Y-15889D02*
X90918Y-15555D01*
X90937Y-15313D01*
X91048Y-15128D01*
X91308Y-15017D01*
X91623Y-15072D01*
X91883Y-15258D01*
X92087Y-15499D01*
X92198Y-15759D01*
Y-16501D01*
X92291Y-16928D01*
X92551Y-17411D01*
X92848Y-17782D01*
X93628Y-17002D01*
G01X99278Y-53346D02*
Y-50197D01*
X99934D01*
X100144Y-50354D01*
X100276Y-50564D01*
X100328Y-50984D01*
X100276Y-51404D01*
X100118Y-51667D01*
X99934Y-51824D01*
X99278D01*
G01X99934D02*
X100328Y-53346D01*
G01X101457D02*
Y-50197D01*
X101142Y-50827D01*
G01Y-53346D02*
X101772D01*
G01X102611Y-50722D02*
X102769Y-50407D01*
X102953Y-50249D01*
X103163Y-50197D01*
X103425Y-50302D01*
X103609Y-50564D01*
X103661Y-50879D01*
X103635Y-51194D01*
X103530Y-51457D01*
X103005Y-51981D01*
X102769Y-52349D01*
X102611Y-52874D01*
X102559Y-53346D01*
X103661D01*
G01X104711D02*
X104764Y-52664D01*
X104843Y-52087D01*
X104948Y-51562D01*
X105079Y-50984D01*
X105289Y-50197D01*
X104239D01*
G01X101981Y-36220D02*
Y-33071D01*
X102507D01*
X102717Y-33228D01*
X102874Y-33438D01*
X103005Y-33753D01*
X103110Y-34121D01*
X103137Y-34646D01*
X103110Y-35170D01*
X103005Y-35538D01*
X102874Y-35853D01*
X102717Y-36063D01*
X102507Y-36220D01*
X101981D01*
G01X103767Y-35853D02*
X103950Y-36115D01*
X104160Y-36220D01*
X104370Y-36115D01*
X104554Y-35801D01*
X104685Y-35328D01*
X104737Y-34856D01*
Y-34278D01*
X104685Y-33806D01*
X104554Y-33386D01*
X104396Y-33176D01*
X104213Y-33071D01*
X104003Y-33176D01*
X103845Y-33386D01*
X103740Y-33701D01*
X103688Y-34121D01*
X103740Y-34488D01*
X103871Y-34856D01*
X104029Y-35066D01*
X104213Y-35118D01*
X104422Y-35013D01*
X104580Y-34751D01*
X104737Y-34278D01*
G01X111417Y-32087D02*
X114567D01*
G01X111417Y-32690D02*
Y-31483D01*
G01X114567Y-30958D02*
X111417D01*
Y-30328D01*
X111575Y-30118D01*
X111942Y-29961D01*
X112362Y-29908D01*
X112782Y-29961D01*
X113097Y-30092D01*
X113255Y-30328D01*
Y-30958D01*
G01X111942Y-29278D02*
X111627Y-29121D01*
X111470Y-28937D01*
X111417Y-28727D01*
X111522Y-28465D01*
X111785Y-28281D01*
X112100Y-28228D01*
X112415Y-28255D01*
X112677Y-28359D01*
X113202Y-28885D01*
X113570Y-29121D01*
X114094Y-29278D01*
X114567Y-29331D01*
Y-28228D01*
G01Y-27126D02*
X111417D01*
X112047Y-27441D01*
G01X114567D02*
Y-26811D01*
G01X106168Y-19685D02*
Y-16535D01*
X106824D01*
X107034Y-16693D01*
X107165Y-16903D01*
X107218Y-17323D01*
X107165Y-17743D01*
X107008Y-18005D01*
X106824Y-18163D01*
X106168D01*
G01X106824D02*
X107218Y-19685D01*
G01X108346D02*
Y-16535D01*
X108031Y-17165D01*
G01Y-19685D02*
X108661D01*
G01X109501Y-17060D02*
X109659Y-16745D01*
X109843Y-16588D01*
X110052Y-16535D01*
X110315Y-16641D01*
X110499Y-16903D01*
X110551Y-17218D01*
X110525Y-17533D01*
X110420Y-17795D01*
X109895Y-18320D01*
X109659Y-18688D01*
X109501Y-19213D01*
X109449Y-19685D01*
X110551D01*
G01X111654D02*
X111837Y-19633D01*
X112047Y-19475D01*
X112178Y-19213D01*
X112231Y-18845D01*
X112178Y-18478D01*
X112021Y-18163D01*
X111785Y-18005D01*
X111522D01*
X111365Y-17900D01*
X111233Y-17638D01*
X111181Y-17270D01*
X111260Y-16903D01*
X111444Y-16641D01*
X111654Y-16535D01*
X111863Y-16641D01*
X112047Y-16903D01*
X112126Y-17270D01*
X112074Y-17638D01*
X111942Y-17900D01*
X111785Y-18005D01*
X111522D01*
X111286Y-18163D01*
X111129Y-18478D01*
X111076Y-18845D01*
X111129Y-19213D01*
X111260Y-19475D01*
X111470Y-19633D01*
X111654Y-19685D01*
G01X118373Y-98031D02*
Y-94882D01*
X119029D01*
X119239Y-95039D01*
X119370Y-95249D01*
X119422Y-95669D01*
X119370Y-96089D01*
X119213Y-96352D01*
X119029Y-96509D01*
X118373D01*
G01X119029D02*
X119422Y-98031D01*
G01X120551D02*
Y-94882D01*
X120236Y-95512D01*
G01Y-98031D02*
X120866D01*
G01X121706Y-96719D02*
X121890Y-96352D01*
X122047Y-96142D01*
X122257Y-96037D01*
X122441Y-96142D01*
X122572Y-96352D01*
X122677Y-96667D01*
X122704Y-97034D01*
X122677Y-97349D01*
X122572Y-97664D01*
X122415Y-97926D01*
X122231Y-98031D01*
X122021Y-97926D01*
X121837Y-97612D01*
X121732Y-97139D01*
X121706Y-96614D01*
X121759Y-95932D01*
X121837Y-95564D01*
X121969Y-95197D01*
X122152Y-94934D01*
X122336Y-94882D01*
X122520Y-94987D01*
X122651Y-95249D01*
G01X130328Y-102953D02*
Y-99803D01*
X130853D01*
X131063Y-99961D01*
X131220Y-100170D01*
X131352Y-100485D01*
X131457Y-100853D01*
X131483Y-101378D01*
X131457Y-101903D01*
X131352Y-102270D01*
X131220Y-102585D01*
X131063Y-102795D01*
X130853Y-102953D01*
X130328D01*
G01X132060Y-101641D02*
X132244Y-101273D01*
X132402Y-101063D01*
X132611Y-100958D01*
X132795Y-101063D01*
X132926Y-101273D01*
X133031Y-101588D01*
X133058Y-101956D01*
X133031Y-102270D01*
X132926Y-102585D01*
X132769Y-102848D01*
X132585Y-102953D01*
X132375Y-102848D01*
X132192Y-102533D01*
X132087Y-102060D01*
X132060Y-101535D01*
X132113Y-100853D01*
X132192Y-100485D01*
X132323Y-100118D01*
X132507Y-99856D01*
X132690Y-99803D01*
X132874Y-99908D01*
X133005Y-100170D01*
G01X175774Y-10499D02*
X175617Y-10341D01*
X175433Y-10236D01*
X175223D01*
X174987Y-10394D01*
X174803Y-10656D01*
X174672Y-10971D01*
X174567Y-11496D01*
X174541Y-11969D01*
X174593Y-12441D01*
X174672Y-12756D01*
X174830Y-13071D01*
X175013Y-13281D01*
X175197Y-13386D01*
X175381D01*
X175564Y-13281D01*
X175722Y-13123D01*
X175853Y-12913D01*
G01X176850Y-13386D02*
Y-10236D01*
X176535Y-10866D01*
G01Y-13386D02*
X177165D01*
G01X177953Y-17848D02*
X174803D01*
Y-17192D01*
X174961Y-16981D01*
X175170Y-16850D01*
X175591Y-16798D01*
X176011Y-16850D01*
X176273Y-17008D01*
X176430Y-17192D01*
Y-17848D01*
G01Y-17192D02*
X177953Y-16798D01*
G01X175328Y-16168D02*
X175013Y-16011D01*
X174856Y-15827D01*
X174803Y-15617D01*
X174908Y-15354D01*
X175170Y-15170D01*
X175485Y-15118D01*
X175801Y-15144D01*
X176063Y-15249D01*
X176588Y-15774D01*
X176956Y-16011D01*
X177480Y-16168D01*
X177953Y-16220D01*
Y-15118D01*
G01X179318Y-95932D02*
X179160Y-95774D01*
X178976Y-95669D01*
X178767D01*
X178530Y-95827D01*
X178346Y-96089D01*
X178215Y-96404D01*
X178110Y-96929D01*
X178084Y-97402D01*
X178137Y-97874D01*
X178215Y-98189D01*
X178373Y-98504D01*
X178556Y-98714D01*
X178740Y-98819D01*
X178924D01*
X179107Y-98714D01*
X179265Y-98556D01*
X179396Y-98346D01*
G01X180394Y-98819D02*
Y-95669D01*
X180079Y-96299D01*
G01Y-98819D02*
X180709D01*
G01X182362D02*
Y-95669D01*
X181391Y-97926D01*
X182704D01*
G01X187205Y-93241D02*
X184055D01*
Y-92585D01*
X184213Y-92375D01*
X184422Y-92244D01*
X184843Y-92192D01*
X185263Y-92244D01*
X185525Y-92402D01*
X185682Y-92585D01*
Y-93241D01*
G01Y-92585D02*
X187205Y-92192D01*
G01Y-91063D02*
X184055D01*
X184685Y-91378D01*
G01X187205D02*
Y-90748D01*
G01X184580Y-89908D02*
X184265Y-89751D01*
X184107Y-89567D01*
X184055Y-89357D01*
X184160Y-89094D01*
X184422Y-88911D01*
X184737Y-88858D01*
X185053Y-88885D01*
X185315Y-88989D01*
X185840Y-89515D01*
X186207Y-89751D01*
X186732Y-89908D01*
X187205Y-89961D01*
Y-88858D01*
G01X186732Y-88333D02*
X186995Y-88176D01*
X187152Y-87992D01*
X187205Y-87756D01*
X187100Y-87520D01*
X186890Y-87336D01*
X186522Y-87205D01*
X186102Y-87178D01*
X185682Y-87231D01*
X185420Y-87362D01*
X185210Y-87546D01*
X185157Y-87730D01*
X185210Y-87913D01*
X185420Y-88150D01*
X184055Y-88071D01*
Y-87362D01*
G01X185499Y-61024D02*
Y-57874D01*
X186155D01*
X186365Y-58031D01*
X186496Y-58241D01*
X186548Y-58661D01*
X186496Y-59081D01*
X186339Y-59344D01*
X186155Y-59501D01*
X185499D01*
G01X186155D02*
X186548Y-61024D01*
G01X187677D02*
Y-57874D01*
X187362Y-58504D01*
G01Y-61024D02*
X187992D01*
G01X188832Y-58399D02*
X188989Y-58084D01*
X189173Y-57926D01*
X189383Y-57874D01*
X189646Y-57979D01*
X189830Y-58241D01*
X189882Y-58556D01*
X189856Y-58872D01*
X189751Y-59134D01*
X189226Y-59659D01*
X188989Y-60026D01*
X188832Y-60551D01*
X188780Y-61024D01*
X189882D01*
G01X190485Y-59711D02*
X190669Y-59344D01*
X190827Y-59134D01*
X191037Y-59029D01*
X191220Y-59134D01*
X191352Y-59344D01*
X191457Y-59659D01*
X191483Y-60026D01*
X191457Y-60341D01*
X191352Y-60656D01*
X191194Y-60919D01*
X191011Y-61024D01*
X190800Y-60919D01*
X190617Y-60604D01*
X190512Y-60131D01*
X190485Y-59606D01*
X190538Y-58924D01*
X190617Y-58556D01*
X190748Y-58189D01*
X190932Y-57926D01*
X191115Y-57874D01*
X191299Y-57979D01*
X191430Y-58241D01*
G01X183281Y-20472D02*
Y-22730D01*
X183386Y-23202D01*
X183596Y-23517D01*
X183858Y-23622D01*
X184121Y-23517D01*
X184331Y-23202D01*
X184436Y-22730D01*
Y-20472D01*
G01X185512Y-23622D02*
Y-20472D01*
X185197Y-21102D01*
G01Y-23622D02*
X185827D01*
G01X183727Y-16745D02*
X183570Y-16903D01*
X183465Y-17087D01*
Y-17296D01*
X183622Y-17533D01*
X183885Y-17717D01*
X184200Y-17848D01*
X184724Y-17953D01*
X185197Y-17979D01*
X185669Y-17926D01*
X185984Y-17848D01*
X186299Y-17690D01*
X186509Y-17507D01*
X186614Y-17323D01*
Y-17139D01*
X186509Y-16956D01*
X186352Y-16798D01*
X186142Y-16667D01*
G01X185984Y-16247D02*
X186352Y-16089D01*
X186562Y-15879D01*
X186614Y-15643D01*
X186562Y-15433D01*
X186299Y-15223D01*
X185984Y-15092D01*
X185669Y-15066D01*
X185302Y-15118D01*
X185039Y-15302D01*
X184934Y-15485D01*
Y-15722D01*
G01Y-15485D02*
X184777Y-15328D01*
X184515Y-15197D01*
X184200Y-15144D01*
X183885Y-15197D01*
X183622Y-15328D01*
X183465Y-15564D01*
X183517Y-15800D01*
X183727Y-16037D01*
G01X179396Y-16745D02*
X179239Y-16903D01*
X179134Y-17087D01*
Y-17296D01*
X179291Y-17533D01*
X179554Y-17717D01*
X179869Y-17848D01*
X180394Y-17953D01*
X180866Y-17979D01*
X181339Y-17926D01*
X181654Y-17848D01*
X181969Y-17690D01*
X182178Y-17507D01*
X182283Y-17323D01*
Y-17139D01*
X182178Y-16956D01*
X182021Y-16798D01*
X181811Y-16667D01*
G01X179659Y-16168D02*
X179344Y-16011D01*
X179186Y-15827D01*
X179134Y-15617D01*
X179239Y-15354D01*
X179501Y-15170D01*
X179816Y-15118D01*
X180131Y-15144D01*
X180394Y-15249D01*
X180919Y-15774D01*
X181286Y-16011D01*
X181811Y-16168D01*
X182283Y-16220D01*
Y-15118D01*
G01X192389Y-102362D02*
Y-99213D01*
X193044D01*
X193255Y-99370D01*
X193386Y-99580D01*
X193438Y-100000D01*
X193386Y-100420D01*
X193228Y-100682D01*
X193044Y-100840D01*
X192389D01*
G01X193044D02*
X193438Y-102362D01*
G01X194068Y-99737D02*
X194226Y-99422D01*
X194409Y-99265D01*
X194619Y-99213D01*
X194882Y-99318D01*
X195066Y-99580D01*
X195118Y-99895D01*
X195092Y-100210D01*
X194987Y-100472D01*
X194462Y-100997D01*
X194226Y-101365D01*
X194068Y-101890D01*
X194016Y-102362D01*
X195118D01*
G01X196168D02*
X196220Y-101680D01*
X196299Y-101102D01*
X196404Y-100578D01*
X196535Y-100000D01*
X196745Y-99213D01*
X195696D01*
G01X192730Y-94882D02*
Y-97139D01*
X192835Y-97612D01*
X193044Y-97926D01*
X193307Y-98031D01*
X193570Y-97926D01*
X193780Y-97612D01*
X193885Y-97139D01*
Y-94882D01*
G01X194961Y-98031D02*
X195144Y-97979D01*
X195354Y-97822D01*
X195485Y-97559D01*
X195538Y-97192D01*
X195485Y-96824D01*
X195328Y-96509D01*
X195092Y-96352D01*
X194830D01*
X194672Y-96247D01*
X194541Y-95984D01*
X194488Y-95617D01*
X194567Y-95249D01*
X194751Y-94987D01*
X194961Y-94882D01*
X195170Y-94987D01*
X195354Y-95249D01*
X195433Y-95617D01*
X195381Y-95984D01*
X195249Y-96247D01*
X195092Y-96352D01*
X194830D01*
X194593Y-96509D01*
X194436Y-96824D01*
X194383Y-97192D01*
X194436Y-97559D01*
X194567Y-97822D01*
X194777Y-97979D01*
X194961Y-98031D01*
G01X189948Y-90420D02*
X189790Y-90263D01*
X189606Y-90157D01*
X189396D01*
X189160Y-90315D01*
X188976Y-90578D01*
X188845Y-90893D01*
X188740Y-91417D01*
X188714Y-91890D01*
X188767Y-92362D01*
X188845Y-92677D01*
X189003Y-92992D01*
X189186Y-93202D01*
X189370Y-93307D01*
X189554D01*
X189737Y-93202D01*
X189895Y-93044D01*
X190026Y-92835D01*
G01X191024Y-93307D02*
Y-90157D01*
X190709Y-90787D01*
G01Y-93307D02*
X191339D01*
G01X192178Y-90682D02*
X192336Y-90367D01*
X192520Y-90210D01*
X192730Y-90157D01*
X192992Y-90263D01*
X193176Y-90525D01*
X193228Y-90840D01*
X193202Y-91155D01*
X193097Y-91417D01*
X192572Y-91942D01*
X192336Y-92310D01*
X192178Y-92835D01*
X192126Y-93307D01*
X193228D01*
G01X190617Y-79134D02*
Y-75984D01*
X191273D01*
X191483Y-76142D01*
X191614Y-76352D01*
X191667Y-76772D01*
X191614Y-77192D01*
X191457Y-77454D01*
X191273Y-77611D01*
X190617D01*
G01X191273D02*
X191667Y-79134D01*
G01X192296Y-76509D02*
X192454Y-76194D01*
X192638Y-76037D01*
X192848Y-75984D01*
X193110Y-76089D01*
X193294Y-76352D01*
X193346Y-76667D01*
X193320Y-76982D01*
X193215Y-77244D01*
X192690Y-77769D01*
X192454Y-78137D01*
X192296Y-78661D01*
X192244Y-79134D01*
X193346D01*
G01X194449Y-75984D02*
X194239Y-76089D01*
X194081Y-76352D01*
X193976Y-76667D01*
X193898Y-77087D01*
X193871Y-77559D01*
X193898Y-78031D01*
X193976Y-78452D01*
X194081Y-78767D01*
X194239Y-79029D01*
X194449Y-79134D01*
X194659Y-79029D01*
X194816Y-78767D01*
X194921Y-78452D01*
X195000Y-78031D01*
X195026Y-77559D01*
X195000Y-77087D01*
X194921Y-76667D01*
X194816Y-76352D01*
X194659Y-76089D01*
X194449Y-75984D01*
G01X194278Y-68570D02*
X194121Y-68412D01*
X193937Y-68307D01*
X193727D01*
X193491Y-68465D01*
X193307Y-68727D01*
X193176Y-69042D01*
X193071Y-69567D01*
X193044Y-70039D01*
X193097Y-70512D01*
X193176Y-70827D01*
X193333Y-71142D01*
X193517Y-71352D01*
X193701Y-71457D01*
X193885D01*
X194068Y-71352D01*
X194226Y-71194D01*
X194357Y-70984D01*
G01X195302Y-71457D02*
X195354Y-70774D01*
X195433Y-70197D01*
X195538Y-69672D01*
X195669Y-69094D01*
X195879Y-68307D01*
X194830D01*
G01X192730Y-72047D02*
Y-74304D01*
X192835Y-74777D01*
X193044Y-75092D01*
X193307Y-75197D01*
X193570Y-75092D01*
X193780Y-74777D01*
X193885Y-74304D01*
Y-72047D01*
G01X194462Y-73885D02*
X194646Y-73517D01*
X194803Y-73307D01*
X195013Y-73202D01*
X195197Y-73307D01*
X195328Y-73517D01*
X195433Y-73832D01*
X195459Y-74200D01*
X195433Y-74515D01*
X195328Y-74830D01*
X195170Y-75092D01*
X194987Y-75197D01*
X194777Y-75092D01*
X194593Y-74777D01*
X194488Y-74304D01*
X194462Y-73780D01*
X194515Y-73097D01*
X194593Y-72730D01*
X194724Y-72362D01*
X194908Y-72100D01*
X195092Y-72047D01*
X195276Y-72152D01*
X195407Y-72415D01*
G01X196063Y-50722D02*
X192913D01*
Y-50066D01*
X193071Y-49856D01*
X193281Y-49724D01*
X193701Y-49672D01*
X194121Y-49724D01*
X194383Y-49882D01*
X194541Y-50066D01*
Y-50722D01*
G01Y-50066D02*
X196063Y-49672D01*
G01Y-48543D02*
X192913D01*
X193543Y-48858D01*
G01X196063D02*
Y-48228D01*
G01Y-46942D02*
X195381Y-46890D01*
X194803Y-46811D01*
X194278Y-46706D01*
X193701Y-46575D01*
X192913Y-46365D01*
Y-47415D01*
G01X192533Y-42323D02*
Y-44580D01*
X192638Y-45053D01*
X192848Y-45367D01*
X193110Y-45472D01*
X193373Y-45367D01*
X193583Y-45053D01*
X193688Y-44580D01*
Y-42323D01*
G01X194265Y-42848D02*
X194422Y-42533D01*
X194606Y-42375D01*
X194816Y-42323D01*
X195079Y-42428D01*
X195263Y-42690D01*
X195315Y-43005D01*
X195289Y-43320D01*
X195184Y-43583D01*
X194659Y-44107D01*
X194422Y-44475D01*
X194265Y-45000D01*
X194213Y-45472D01*
X195315D01*
G01X191522Y-35696D02*
X191365Y-35538D01*
X191181Y-35433D01*
X190971D01*
X190735Y-35591D01*
X190551Y-35853D01*
X190420Y-36168D01*
X190315Y-36693D01*
X190289Y-37165D01*
X190341Y-37638D01*
X190420Y-37953D01*
X190578Y-38268D01*
X190761Y-38478D01*
X190945Y-38583D01*
X191129D01*
X191312Y-38478D01*
X191470Y-38320D01*
X191601Y-38110D01*
G01X192913Y-38583D02*
Y-35433D01*
X191942Y-37690D01*
X193255D01*
G01X202625Y-83071D02*
Y-86220D01*
X203674D01*
G01X205118D02*
Y-83071D01*
X204147Y-85328D01*
X205459D01*
G01X205184Y-57874D02*
Y-61024D01*
X206233D01*
G01X206785Y-60394D02*
X206942Y-60761D01*
X207152Y-60971D01*
X207389Y-61024D01*
X207598Y-60971D01*
X207808Y-60709D01*
X207940Y-60394D01*
X207966Y-60079D01*
X207913Y-59711D01*
X207730Y-59449D01*
X207546Y-59344D01*
X207310D01*
G01X207546D02*
X207704Y-59186D01*
X207835Y-58924D01*
X207887Y-58609D01*
X207835Y-58294D01*
X207704Y-58031D01*
X207467Y-57874D01*
X207231Y-57926D01*
X206995Y-58137D01*
G01X225407Y-97638D02*
Y-99895D01*
X225512Y-100368D01*
X225722Y-100682D01*
X225984Y-100787D01*
X226247Y-100682D01*
X226457Y-100368D01*
X226562Y-99895D01*
Y-97638D01*
G01X227192Y-100420D02*
X227375Y-100682D01*
X227585Y-100787D01*
X227795Y-100682D01*
X227979Y-100368D01*
X228110Y-99895D01*
X228163Y-99422D01*
Y-98845D01*
X228110Y-98373D01*
X227979Y-97953D01*
X227822Y-97743D01*
X227638Y-97638D01*
X227428Y-97743D01*
X227270Y-97953D01*
X227165Y-98268D01*
X227113Y-98688D01*
X227165Y-99055D01*
X227296Y-99422D01*
X227454Y-99633D01*
X227638Y-99685D01*
X227848Y-99580D01*
X228005Y-99318D01*
X228163Y-98845D01*
G01X224226Y-82677D02*
Y-84934D01*
X224331Y-85407D01*
X224541Y-85722D01*
X224803Y-85827D01*
X225066Y-85722D01*
X225276Y-85407D01*
X225381Y-84934D01*
Y-82677D01*
G01X226404Y-85827D02*
X226457Y-85144D01*
X226535Y-84567D01*
X226641Y-84042D01*
X226772Y-83465D01*
X226981Y-82677D01*
X225932D01*
G01X223885Y-32677D02*
Y-35827D01*
X224934D01*
G01X225564Y-33202D02*
X225722Y-32887D01*
X225906Y-32730D01*
X226115Y-32677D01*
X226378Y-32782D01*
X226562Y-33044D01*
X226614Y-33359D01*
X226588Y-33675D01*
X226483Y-33937D01*
X225958Y-34462D01*
X225722Y-34830D01*
X225564Y-35354D01*
X225512Y-35827D01*
X226614D01*
G01X226772Y-19816D02*
X223622D01*
Y-19160D01*
X223780Y-18950D01*
X223989Y-18819D01*
X224409Y-18767D01*
X224830Y-18819D01*
X225092Y-18976D01*
X225249Y-19160D01*
Y-19816D01*
G01Y-19160D02*
X226772Y-18767D01*
G01Y-17638D02*
X223622D01*
X224252Y-17953D01*
G01X226772D02*
Y-17323D01*
G01X223622Y-15984D02*
X223727Y-16194D01*
X223989Y-16352D01*
X224304Y-16457D01*
X224724Y-16535D01*
X225197Y-16562D01*
X225669Y-16535D01*
X226089Y-16457D01*
X226404Y-16352D01*
X226667Y-16194D01*
X226772Y-15984D01*
X226667Y-15774D01*
X226404Y-15617D01*
X226089Y-15512D01*
X225669Y-15433D01*
X225197Y-15407D01*
X224724Y-15433D01*
X224304Y-15512D01*
X223989Y-15617D01*
X223727Y-15774D01*
X223622Y-15984D01*
G01X224672Y-11024D02*
Y-14173D01*
X225722D01*
G01X226850D02*
Y-11024D01*
X226535Y-11654D01*
G01Y-14173D02*
X227165D01*
G01X239370Y-40682D02*
X236220D01*
Y-40026D01*
X236378Y-39816D01*
X236588Y-39685D01*
X237008Y-39633D01*
X237428Y-39685D01*
X237690Y-39843D01*
X237848Y-40026D01*
Y-40682D01*
G01Y-40026D02*
X239370Y-39633D01*
G01Y-38504D02*
X236220D01*
X236850Y-38819D01*
G01X239370D02*
Y-38189D01*
G01X238898Y-37428D02*
X239160Y-37270D01*
X239318Y-37087D01*
X239370Y-36850D01*
X239265Y-36614D01*
X239055Y-36430D01*
X238688Y-36299D01*
X238268Y-36273D01*
X237848Y-36326D01*
X237585Y-36457D01*
X237375Y-36641D01*
X237323Y-36824D01*
X237375Y-37008D01*
X237585Y-37244D01*
X236220Y-37165D01*
Y-36457D01*
G01X233281Y-11811D02*
Y-8661D01*
X233806D01*
X234016Y-8819D01*
X234173Y-9029D01*
X234304Y-9344D01*
X234409Y-9711D01*
X234436Y-10236D01*
X234409Y-10761D01*
X234304Y-11129D01*
X234173Y-11444D01*
X234016Y-11654D01*
X233806Y-11811D01*
X233281D01*
G01X235013Y-9186D02*
X235170Y-8871D01*
X235354Y-8714D01*
X235564Y-8661D01*
X235827Y-8767D01*
X236011Y-9029D01*
X236063Y-9344D01*
X236037Y-9659D01*
X235932Y-9921D01*
X235407Y-10446D01*
X235170Y-10814D01*
X235013Y-11339D01*
X234961Y-11811D01*
X236063D01*
G01X241601D02*
Y-8661D01*
X242257D01*
X242467Y-8819D01*
X242598Y-9029D01*
X242651Y-9449D01*
X242598Y-9869D01*
X242441Y-10131D01*
X242257Y-10289D01*
X241601D01*
G01X242257D02*
X242651Y-11811D01*
G01X243202Y-11181D02*
X243359Y-11548D01*
X243570Y-11759D01*
X243806Y-11811D01*
X244016Y-11759D01*
X244226Y-11496D01*
X244357Y-11181D01*
X244383Y-10866D01*
X244331Y-10499D01*
X244147Y-10236D01*
X243963Y-10131D01*
X243727D01*
G01X243963D02*
X244121Y-9974D01*
X244252Y-9711D01*
X244304Y-9396D01*
X244252Y-9081D01*
X244121Y-8819D01*
X243885Y-8661D01*
X243648Y-8714D01*
X243412Y-8924D01*
G01X243963Y-109055D02*
Y-105906D01*
X244619D01*
X244830Y-106063D01*
X244961Y-106273D01*
X245013Y-106693D01*
X244961Y-107113D01*
X244803Y-107375D01*
X244619Y-107533D01*
X243963D01*
G01X244619D02*
X245013Y-109055D01*
G01X245643Y-106430D02*
X245800Y-106115D01*
X245984Y-105958D01*
X246194Y-105906D01*
X246457Y-106011D01*
X246641Y-106273D01*
X246693Y-106588D01*
X246667Y-106903D01*
X246562Y-107165D01*
X246037Y-107690D01*
X245800Y-108058D01*
X245643Y-108583D01*
X245591Y-109055D01*
X246693D01*
G01X247296Y-107743D02*
X247480Y-107375D01*
X247638Y-107165D01*
X247848Y-107060D01*
X248031Y-107165D01*
X248163Y-107375D01*
X248268Y-107690D01*
X248294Y-108058D01*
X248268Y-108373D01*
X248163Y-108688D01*
X248005Y-108950D01*
X247822Y-109055D01*
X247611Y-108950D01*
X247428Y-108635D01*
X247323Y-108163D01*
X247296Y-107638D01*
X247349Y-106956D01*
X247428Y-106588D01*
X247559Y-106220D01*
X247743Y-105958D01*
X247926Y-105906D01*
X248110Y-106011D01*
X248241Y-106273D01*
G01X245932Y-92126D02*
Y-88976D01*
X246588D01*
X246798Y-89134D01*
X246929Y-89344D01*
X246981Y-89764D01*
X246929Y-90184D01*
X246772Y-90446D01*
X246588Y-90604D01*
X245932D01*
G01X246588D02*
X246981Y-92126D01*
G01X247611Y-89501D02*
X247769Y-89186D01*
X247953Y-89029D01*
X248163Y-88976D01*
X248425Y-89081D01*
X248609Y-89344D01*
X248661Y-89659D01*
X248635Y-89974D01*
X248530Y-90236D01*
X248005Y-90761D01*
X247769Y-91129D01*
X247611Y-91654D01*
X247559Y-92126D01*
X248661D01*
G01X249764D02*
Y-88976D01*
X249449Y-89606D01*
G01Y-92126D02*
X250079D01*
G01X244304Y-93307D02*
Y-95564D01*
X244409Y-96037D01*
X244619Y-96352D01*
X244882Y-96457D01*
X245144Y-96352D01*
X245354Y-96037D01*
X245459Y-95564D01*
Y-93307D01*
G01X246535Y-96457D02*
Y-93307D01*
X246220Y-93937D01*
G01Y-96457D02*
X246850D01*
G01X248189Y-93307D02*
X247979Y-93412D01*
X247822Y-93674D01*
X247717Y-93989D01*
X247638Y-94409D01*
X247611Y-94882D01*
X247638Y-95354D01*
X247717Y-95774D01*
X247822Y-96089D01*
X247979Y-96352D01*
X248189Y-96457D01*
X248399Y-96352D01*
X248556Y-96089D01*
X248661Y-95774D01*
X248740Y-95354D01*
X248767Y-94882D01*
X248740Y-94409D01*
X248661Y-93989D01*
X248556Y-93674D01*
X248399Y-93412D01*
X248189Y-93307D01*
G01X251575Y-70472D02*
Y-73622D01*
G01X250971Y-70472D02*
X252178D01*
G01X252704Y-73622D02*
Y-70472D01*
X253333D01*
X253543Y-70630D01*
X253701Y-70997D01*
X253753Y-71417D01*
X253701Y-71837D01*
X253570Y-72152D01*
X253333Y-72310D01*
X252704D01*
G01X254436Y-73255D02*
X254619Y-73517D01*
X254830Y-73622D01*
X255039Y-73517D01*
X255223Y-73202D01*
X255354Y-72730D01*
X255407Y-72257D01*
Y-71680D01*
X255354Y-71207D01*
X255223Y-70787D01*
X255066Y-70578D01*
X254882Y-70472D01*
X254672Y-70578D01*
X254515Y-70787D01*
X254409Y-71102D01*
X254357Y-71522D01*
X254409Y-71890D01*
X254541Y-72257D01*
X254698Y-72467D01*
X254882Y-72520D01*
X255092Y-72415D01*
X255249Y-72152D01*
X255407Y-71680D01*
G01X251391Y-45669D02*
Y-47926D01*
X251496Y-48399D01*
X251706Y-48714D01*
X251969Y-48819D01*
X252231Y-48714D01*
X252441Y-48399D01*
X252546Y-47926D01*
Y-45669D01*
G01X253044Y-48189D02*
X253202Y-48556D01*
X253412Y-48767D01*
X253648Y-48819D01*
X253858Y-48767D01*
X254068Y-48504D01*
X254200Y-48189D01*
X254226Y-47874D01*
X254173Y-47507D01*
X253989Y-47244D01*
X253806Y-47139D01*
X253570D01*
G01X253806D02*
X253963Y-46981D01*
X254094Y-46719D01*
X254147Y-46404D01*
X254094Y-46089D01*
X253963Y-45827D01*
X253727Y-45669D01*
X253491Y-45722D01*
X253255Y-45932D01*
G01X251181Y-38189D02*
Y-41339D01*
G01X250578Y-38189D02*
X251785D01*
G01X252310Y-41339D02*
Y-38189D01*
X252940D01*
X253150Y-38346D01*
X253307Y-38714D01*
X253359Y-39134D01*
X253307Y-39554D01*
X253176Y-39869D01*
X252940Y-40026D01*
X252310D01*
G01X253989Y-38714D02*
X254147Y-38399D01*
X254331Y-38241D01*
X254541Y-38189D01*
X254803Y-38294D01*
X254987Y-38556D01*
X255039Y-38871D01*
X255013Y-39187D01*
X254908Y-39449D01*
X254383Y-39974D01*
X254147Y-40341D01*
X253989Y-40866D01*
X253937Y-41339D01*
X255039D01*
G01X246457Y-34252D02*
Y-37402D01*
G01X245853Y-34252D02*
X247060D01*
G01X247585Y-37402D02*
Y-34252D01*
X248215D01*
X248425Y-34409D01*
X248583Y-34777D01*
X248635Y-35197D01*
X248583Y-35617D01*
X248452Y-35932D01*
X248215Y-36089D01*
X247585D01*
G01X249764Y-37402D02*
Y-34252D01*
X249449Y-34882D01*
G01Y-37402D02*
X250079D01*
G01X241995Y-33071D02*
Y-29921D01*
X242651D01*
X242861Y-30079D01*
X242992Y-30289D01*
X243044Y-30709D01*
X242992Y-31129D01*
X242835Y-31391D01*
X242651Y-31548D01*
X241995D01*
G01X242651D02*
X243044Y-33071D01*
G01X244173D02*
Y-29921D01*
X243858Y-30551D01*
G01Y-33071D02*
X244488D01*
G01X245249Y-32441D02*
X245407Y-32808D01*
X245617Y-33019D01*
X245853Y-33071D01*
X246063Y-33019D01*
X246273Y-32756D01*
X246404Y-32441D01*
X246430Y-32126D01*
X246378Y-31759D01*
X246194Y-31496D01*
X246011Y-31391D01*
X245774D01*
G01X246011D02*
X246168Y-31233D01*
X246299Y-30971D01*
X246352Y-30656D01*
X246299Y-30341D01*
X246168Y-30079D01*
X245932Y-29921D01*
X245696Y-29974D01*
X245459Y-30184D01*
G01X242782Y-27559D02*
Y-24409D01*
X243438D01*
X243648Y-24567D01*
X243780Y-24777D01*
X243832Y-25197D01*
X243780Y-25617D01*
X243622Y-25879D01*
X243438Y-26037D01*
X242782D01*
G01X243438D02*
X243832Y-27559D01*
G01X244462Y-26247D02*
X244646Y-25879D01*
X244803Y-25669D01*
X245013Y-25564D01*
X245197Y-25669D01*
X245328Y-25879D01*
X245433Y-26194D01*
X245459Y-26562D01*
X245433Y-26877D01*
X245328Y-27192D01*
X245170Y-27454D01*
X244987Y-27559D01*
X244777Y-27454D01*
X244593Y-27139D01*
X244488Y-26667D01*
X244462Y-26142D01*
X244515Y-25459D01*
X244593Y-25092D01*
X244724Y-24724D01*
X244908Y-24462D01*
X245092Y-24409D01*
X245276Y-24515D01*
X245407Y-24777D01*
G01X245879Y-11811D02*
Y-8661D01*
X246404D01*
X246614Y-8819D01*
X246772Y-9029D01*
X246903Y-9344D01*
X247008Y-9711D01*
X247034Y-10236D01*
X247008Y-10761D01*
X246903Y-11129D01*
X246772Y-11444D01*
X246614Y-11654D01*
X246404Y-11811D01*
X245879D01*
G01X247533Y-11181D02*
X247690Y-11548D01*
X247900Y-11759D01*
X248137Y-11811D01*
X248346Y-11759D01*
X248556Y-11496D01*
X248688Y-11181D01*
X248714Y-10866D01*
X248661Y-10499D01*
X248478Y-10236D01*
X248294Y-10131D01*
X248058D01*
G01X248294D02*
X248452Y-9974D01*
X248583Y-9711D01*
X248635Y-9396D01*
X248583Y-9081D01*
X248452Y-8819D01*
X248215Y-8661D01*
X247979Y-8714D01*
X247743Y-8924D01*
G01X254908Y-106562D02*
X254751Y-106404D01*
X254567Y-106299D01*
X254357D01*
X254121Y-106457D01*
X253937Y-106719D01*
X253806Y-107034D01*
X253701Y-107559D01*
X253674Y-108031D01*
X253727Y-108504D01*
X253806Y-108819D01*
X253963Y-109134D01*
X254147Y-109344D01*
X254331Y-109449D01*
X254515D01*
X254698Y-109344D01*
X254856Y-109186D01*
X254987Y-108976D01*
G01X255984Y-109449D02*
Y-106299D01*
X255669Y-106929D01*
G01Y-109449D02*
X256299D01*
G01X257060Y-108819D02*
X257218Y-109186D01*
X257428Y-109396D01*
X257664Y-109449D01*
X257874Y-109396D01*
X258084Y-109134D01*
X258215Y-108819D01*
X258241Y-108504D01*
X258189Y-108137D01*
X258005Y-107874D01*
X257822Y-107769D01*
X257585D01*
G01X257822D02*
X257979Y-107611D01*
X258110Y-107349D01*
X258163Y-107034D01*
X258110Y-106719D01*
X257979Y-106457D01*
X257743Y-106299D01*
X257507Y-106352D01*
X257270Y-106562D01*
G01X257480Y-89107D02*
X254331D01*
Y-88452D01*
X254488Y-88241D01*
X254698Y-88110D01*
X255118Y-88058D01*
X255538Y-88110D01*
X255800Y-88268D01*
X255958Y-88452D01*
Y-89107D01*
G01Y-88452D02*
X257480Y-88058D01*
G01X254856Y-87428D02*
X254541Y-87270D01*
X254383Y-87087D01*
X254331Y-86877D01*
X254436Y-86614D01*
X254698Y-86430D01*
X255013Y-86378D01*
X255328Y-86404D01*
X255591Y-86509D01*
X256115Y-87034D01*
X256483Y-87270D01*
X257008Y-87428D01*
X257480Y-87480D01*
Y-86378D01*
G01X254856Y-85774D02*
X254541Y-85617D01*
X254383Y-85433D01*
X254331Y-85223D01*
X254436Y-84961D01*
X254698Y-84777D01*
X255013Y-84724D01*
X255328Y-84751D01*
X255591Y-84856D01*
X256115Y-85381D01*
X256483Y-85617D01*
X257008Y-85774D01*
X257480Y-85827D01*
Y-84724D01*
G01X261680Y-81890D02*
Y-78740D01*
X262336D01*
X262546Y-78898D01*
X262677Y-79107D01*
X262730Y-79528D01*
X262677Y-79948D01*
X262520Y-80210D01*
X262336Y-80367D01*
X261680D01*
G01X262336D02*
X262730Y-81890D01*
G01X263359Y-79265D02*
X263517Y-78950D01*
X263701Y-78793D01*
X263911Y-78740D01*
X264173Y-78845D01*
X264357Y-79107D01*
X264409Y-79422D01*
X264383Y-79738D01*
X264278Y-80000D01*
X263753Y-80525D01*
X263517Y-80893D01*
X263359Y-81417D01*
X263307Y-81890D01*
X264409D01*
G01X264934Y-81260D02*
X265092Y-81627D01*
X265302Y-81837D01*
X265538Y-81890D01*
X265748Y-81837D01*
X265958Y-81575D01*
X266089Y-81260D01*
X266115Y-80945D01*
X266063Y-80578D01*
X265879Y-80315D01*
X265696Y-80210D01*
X265459D01*
G01X265696D02*
X265853Y-80052D01*
X265984Y-79790D01*
X266037Y-79475D01*
X265984Y-79160D01*
X265853Y-78898D01*
X265617Y-78740D01*
X265381Y-78793D01*
X265144Y-79003D01*
G01X253806Y-81102D02*
Y-77953D01*
X254462D01*
X254672Y-78110D01*
X254803Y-78320D01*
X254856Y-78740D01*
X254803Y-79160D01*
X254646Y-79422D01*
X254462Y-79580D01*
X253806D01*
G01X254462D02*
X254856Y-81102D01*
G01X255984D02*
Y-77953D01*
X255669Y-78583D01*
G01Y-81102D02*
X256299D01*
G01X257192Y-80735D02*
X257375Y-80997D01*
X257585Y-81102D01*
X257795Y-80997D01*
X257979Y-80683D01*
X258110Y-80210D01*
X258163Y-79737D01*
Y-79160D01*
X258110Y-78688D01*
X257979Y-78268D01*
X257822Y-78058D01*
X257638Y-77953D01*
X257428Y-78058D01*
X257270Y-78268D01*
X257165Y-78583D01*
X257113Y-79003D01*
X257165Y-79370D01*
X257296Y-79737D01*
X257454Y-79948D01*
X257638Y-80000D01*
X257848Y-79895D01*
X258005Y-79633D01*
X258163Y-79160D01*
G01X255381Y-34646D02*
Y-31496D01*
X256037D01*
X256247Y-31654D01*
X256378Y-31863D01*
X256430Y-32283D01*
X256378Y-32704D01*
X256220Y-32966D01*
X256037Y-33123D01*
X255381D01*
G01X256037D02*
X256430Y-34646D01*
G01X257559D02*
Y-31496D01*
X257244Y-32126D01*
G01Y-34646D02*
X257874D01*
G01X259528D02*
Y-31496D01*
X258556Y-33753D01*
X259869D01*
G01X256168Y-27559D02*
Y-24409D01*
X256824D01*
X257034Y-24567D01*
X257165Y-24777D01*
X257218Y-25197D01*
X257165Y-25617D01*
X257008Y-25879D01*
X256824Y-26037D01*
X256168D01*
G01X256824D02*
X257218Y-27559D01*
G01X258294D02*
X258346Y-26877D01*
X258425Y-26299D01*
X258530Y-25774D01*
X258661Y-25197D01*
X258871Y-24409D01*
X257822D01*
G01X261627Y-11811D02*
Y-8661D01*
X262152D01*
X262362Y-8819D01*
X262520Y-9029D01*
X262651Y-9344D01*
X262756Y-9711D01*
X262782Y-10236D01*
X262756Y-10761D01*
X262651Y-11129D01*
X262520Y-11444D01*
X262362Y-11654D01*
X262152Y-11811D01*
X261627D01*
G01X264173D02*
Y-8661D01*
X263202Y-10919D01*
X264515D01*
G01X254593Y-11811D02*
Y-8661D01*
X255249D01*
X255459Y-8819D01*
X255591Y-9029D01*
X255643Y-9449D01*
X255591Y-9869D01*
X255433Y-10131D01*
X255249Y-10289D01*
X254593D01*
G01X255249D02*
X255643Y-11811D01*
G01X257087D02*
Y-8661D01*
X256115Y-10919D01*
X257428D01*
G01X267979Y-109449D02*
Y-106299D01*
X268635D01*
X268845Y-106457D01*
X268976Y-106667D01*
X269029Y-107087D01*
X268976Y-107507D01*
X268819Y-107769D01*
X268635Y-107926D01*
X267979D01*
G01X268635D02*
X269029Y-109449D01*
G01X269659Y-106824D02*
X269816Y-106509D01*
X270000Y-106352D01*
X270210Y-106299D01*
X270472Y-106404D01*
X270656Y-106667D01*
X270709Y-106981D01*
X270682Y-107297D01*
X270578Y-107559D01*
X270052Y-108084D01*
X269816Y-108452D01*
X269659Y-108976D01*
X269606Y-109449D01*
X270709D01*
G01X271811D02*
X271995Y-109396D01*
X272205Y-109239D01*
X272336Y-108976D01*
X272389Y-108609D01*
X272336Y-108242D01*
X272178Y-107926D01*
X271942Y-107769D01*
X271680D01*
X271522Y-107664D01*
X271391Y-107402D01*
X271339Y-107034D01*
X271417Y-106667D01*
X271601Y-106404D01*
X271811Y-106299D01*
X272021Y-106404D01*
X272205Y-106667D01*
X272283Y-107034D01*
X272231Y-107402D01*
X272100Y-107664D01*
X271942Y-107769D01*
X271680D01*
X271444Y-107926D01*
X271286Y-108242D01*
X271233Y-108609D01*
X271286Y-108976D01*
X271417Y-109239D01*
X271627Y-109396D01*
X271811Y-109449D01*
G01X271916Y-85039D02*
Y-81890D01*
X272572D01*
X272782Y-82047D01*
X272913Y-82257D01*
X272966Y-82677D01*
X272913Y-83097D01*
X272756Y-83359D01*
X272572Y-83517D01*
X271916D01*
G01X272572D02*
X272966Y-85039D01*
G01X273596Y-82415D02*
X273753Y-82100D01*
X273937Y-81942D01*
X274147Y-81890D01*
X274409Y-81995D01*
X274593Y-82257D01*
X274646Y-82572D01*
X274619Y-82887D01*
X274515Y-83150D01*
X273989Y-83674D01*
X273753Y-84042D01*
X273596Y-84567D01*
X273543Y-85039D01*
X274646D01*
G01X276063D02*
Y-81890D01*
X275092Y-84147D01*
X276404D01*
G01X269554Y-33071D02*
Y-29921D01*
X270210D01*
X270420Y-30079D01*
X270551Y-30289D01*
X270604Y-30709D01*
X270551Y-31129D01*
X270394Y-31391D01*
X270210Y-31548D01*
X269554D01*
G01X270210D02*
X270604Y-33071D01*
G01X271732D02*
Y-29921D01*
X271417Y-30551D01*
G01Y-33071D02*
X272047D01*
G01X272887Y-30446D02*
X273044Y-30131D01*
X273228Y-29974D01*
X273438Y-29921D01*
X273701Y-30026D01*
X273885Y-30289D01*
X273937Y-30604D01*
X273911Y-30919D01*
X273806Y-31181D01*
X273281Y-31706D01*
X273044Y-32074D01*
X272887Y-32598D01*
X272835Y-33071D01*
X273937D01*
G01X271129Y-24803D02*
Y-21654D01*
X271785D01*
X271995Y-21811D01*
X272126Y-22021D01*
X272178Y-22441D01*
X272126Y-22861D01*
X271969Y-23123D01*
X271785Y-23281D01*
X271129D01*
G01X271785D02*
X272178Y-24803D01*
G01X273307D02*
X273491Y-24751D01*
X273701Y-24593D01*
X273832Y-24331D01*
X273885Y-23963D01*
X273832Y-23596D01*
X273674Y-23281D01*
X273438Y-23123D01*
X273176D01*
X273019Y-23019D01*
X272887Y-22756D01*
X272835Y-22389D01*
X272913Y-22021D01*
X273097Y-21759D01*
X273307Y-21654D01*
X273517Y-21759D01*
X273701Y-22021D01*
X273780Y-22389D01*
X273727Y-22756D01*
X273596Y-23019D01*
X273438Y-23123D01*
X273176D01*
X272940Y-23281D01*
X272782Y-23596D01*
X272730Y-23963D01*
X272782Y-24331D01*
X272913Y-24593D01*
X273123Y-24751D01*
X273307Y-24803D01*
G01X267979Y-11811D02*
Y-8661D01*
X268635D01*
X268845Y-8819D01*
X268976Y-9029D01*
X269029Y-9449D01*
X268976Y-9869D01*
X268819Y-10131D01*
X268635Y-10289D01*
X267979D01*
G01X268635D02*
X269029Y-11811D01*
G01X269580Y-11339D02*
X269737Y-11601D01*
X269921Y-11759D01*
X270157Y-11811D01*
X270394Y-11706D01*
X270578Y-11496D01*
X270709Y-11129D01*
X270735Y-10709D01*
X270682Y-10289D01*
X270551Y-10026D01*
X270367Y-9816D01*
X270184Y-9764D01*
X270000Y-9816D01*
X269764Y-10026D01*
X269843Y-8661D01*
X270551D01*
G01X278950Y-106299D02*
Y-108556D01*
X279055Y-109029D01*
X279265Y-109344D01*
X279528Y-109449D01*
X279790Y-109344D01*
X280000Y-109029D01*
X280105Y-108556D01*
Y-106299D01*
G01X281181Y-109449D02*
Y-106299D01*
X280866Y-106929D01*
G01Y-109449D02*
X281496D01*
G01X282835D02*
Y-106299D01*
X282520Y-106929D01*
G01Y-109449D02*
X283150D01*
G01X283727Y-85433D02*
Y-82283D01*
X284383D01*
X284593Y-82441D01*
X284724Y-82651D01*
X284777Y-83071D01*
X284724Y-83491D01*
X284567Y-83753D01*
X284383Y-83911D01*
X283727D01*
G01X284383D02*
X284777Y-85433D01*
G01X285407Y-82808D02*
X285564Y-82493D01*
X285748Y-82336D01*
X285958Y-82283D01*
X286220Y-82389D01*
X286404Y-82651D01*
X286457Y-82966D01*
X286430Y-83281D01*
X286326Y-83543D01*
X285800Y-84068D01*
X285564Y-84436D01*
X285407Y-84961D01*
X285354Y-85433D01*
X286457D01*
G01X286981Y-84961D02*
X287139Y-85223D01*
X287323Y-85381D01*
X287559Y-85433D01*
X287795Y-85328D01*
X287979Y-85118D01*
X288110Y-84751D01*
X288137Y-84331D01*
X288084Y-83911D01*
X287953Y-83648D01*
X287769Y-83438D01*
X287585Y-83386D01*
X287402Y-83438D01*
X287165Y-83648D01*
X287244Y-82283D01*
X287953D01*
G01X282100Y-36220D02*
Y-38478D01*
X282205Y-38950D01*
X282415Y-39265D01*
X282677Y-39370D01*
X282940Y-39265D01*
X283150Y-38950D01*
X283255Y-38478D01*
Y-36220D01*
G01X284646Y-39370D02*
Y-36220D01*
X283674Y-38478D01*
X284987D01*
G01X278346Y-25591D02*
X278137Y-25538D01*
X277953Y-25328D01*
X277795Y-25013D01*
X277690Y-24646D01*
X277638Y-24226D01*
Y-23806D01*
X277690Y-23386D01*
X277795Y-23019D01*
X277953Y-22704D01*
X278137Y-22493D01*
X278346Y-22441D01*
X278556Y-22493D01*
X278740Y-22704D01*
X278898Y-23019D01*
X279003Y-23386D01*
X279055Y-23806D01*
Y-24226D01*
X279003Y-24646D01*
X278898Y-25013D01*
X278740Y-25328D01*
X278556Y-25538D01*
X278346Y-25591D01*
G01X278556Y-24751D02*
X278871Y-25591D01*
G01X280000D02*
Y-22441D01*
X279685Y-23071D01*
G01Y-25591D02*
X280315D01*
G01X290341Y-89239D02*
X290184Y-89081D01*
X290000Y-88976D01*
X289790D01*
X289554Y-89134D01*
X289370Y-89396D01*
X289239Y-89711D01*
X289134Y-90236D01*
X289107Y-90709D01*
X289160Y-91181D01*
X289239Y-91496D01*
X289396Y-91811D01*
X289580Y-92021D01*
X289764Y-92126D01*
X289948D01*
X290131Y-92021D01*
X290289Y-91863D01*
X290420Y-91654D01*
G01X291417Y-92126D02*
Y-88976D01*
X291102Y-89606D01*
G01Y-92126D02*
X291732D01*
G01X293071D02*
Y-88976D01*
X292756Y-89606D01*
G01Y-92126D02*
X293386D01*
G01X290341Y-71522D02*
X290184Y-71365D01*
X290000Y-71260D01*
X289790D01*
X289554Y-71417D01*
X289370Y-71680D01*
X289239Y-71995D01*
X289134Y-72520D01*
X289107Y-72992D01*
X289160Y-73465D01*
X289239Y-73780D01*
X289396Y-74094D01*
X289580Y-74304D01*
X289764Y-74409D01*
X289948D01*
X290131Y-74304D01*
X290289Y-74147D01*
X290420Y-73937D01*
G01X291417Y-74409D02*
X291601Y-74357D01*
X291811Y-74200D01*
X291942Y-73937D01*
X291995Y-73570D01*
X291942Y-73202D01*
X291785Y-72887D01*
X291548Y-72730D01*
X291286D01*
X291129Y-72625D01*
X290997Y-72362D01*
X290945Y-71995D01*
X291024Y-71627D01*
X291207Y-71365D01*
X291417Y-71260D01*
X291627Y-71365D01*
X291811Y-71627D01*
X291890Y-71995D01*
X291837Y-72362D01*
X291706Y-72625D01*
X291548Y-72730D01*
X291286D01*
X291050Y-72887D01*
X290893Y-73202D01*
X290840Y-73570D01*
X290893Y-73937D01*
X291024Y-74200D01*
X291233Y-74357D01*
X291417Y-74409D01*
G01X290945Y-25591D02*
X290735Y-25538D01*
X290551Y-25328D01*
X290394Y-25013D01*
X290289Y-24646D01*
X290236Y-24226D01*
Y-23806D01*
X290289Y-23386D01*
X290394Y-23019D01*
X290551Y-22704D01*
X290735Y-22493D01*
X290945Y-22441D01*
X291155Y-22493D01*
X291339Y-22704D01*
X291496Y-23019D01*
X291601Y-23386D01*
X291654Y-23806D01*
Y-24226D01*
X291601Y-24646D01*
X291496Y-25013D01*
X291339Y-25328D01*
X291155Y-25538D01*
X290945Y-25591D01*
G01X291155Y-24751D02*
X291470Y-25591D01*
G01X292100Y-22966D02*
X292257Y-22651D01*
X292441Y-22493D01*
X292651Y-22441D01*
X292913Y-22546D01*
X293097Y-22808D01*
X293150Y-23123D01*
X293123Y-23439D01*
X293019Y-23701D01*
X292493Y-24226D01*
X292257Y-24593D01*
X292100Y-25118D01*
X292047Y-25591D01*
X293150D01*
G01X295879Y-106299D02*
Y-108556D01*
X295984Y-109029D01*
X296194Y-109344D01*
X296457Y-109449D01*
X296719Y-109344D01*
X296929Y-109029D01*
X297034Y-108556D01*
Y-106299D01*
G01X298110Y-109449D02*
Y-106299D01*
X297795Y-106929D01*
G01Y-109449D02*
X298425D01*
G01X299265Y-106824D02*
X299422Y-106509D01*
X299606Y-106352D01*
X299816Y-106299D01*
X300079Y-106404D01*
X300263Y-106667D01*
X300315Y-106981D01*
X300289Y-107297D01*
X300184Y-107559D01*
X299659Y-108084D01*
X299422Y-108452D01*
X299265Y-108976D01*
X299213Y-109449D01*
X300315D01*
G01X304987Y-89580D02*
X304830Y-89737D01*
X304724Y-89921D01*
Y-90131D01*
X304882Y-90367D01*
X305144Y-90551D01*
X305459Y-90682D01*
X305984Y-90787D01*
X306457Y-90814D01*
X306929Y-90761D01*
X307244Y-90682D01*
X307559Y-90525D01*
X307769Y-90341D01*
X307874Y-90157D01*
Y-89974D01*
X307769Y-89790D01*
X307611Y-89633D01*
X307402Y-89501D01*
G01X307874Y-88504D02*
X304724D01*
X305354Y-88819D01*
G01X307874D02*
Y-88189D01*
G01X304724Y-86850D02*
X304830Y-87060D01*
X305092Y-87218D01*
X305407Y-87323D01*
X305827Y-87402D01*
X306299Y-87428D01*
X306772Y-87402D01*
X307192Y-87323D01*
X307507Y-87218D01*
X307769Y-87060D01*
X307874Y-86850D01*
X307769Y-86641D01*
X307507Y-86483D01*
X307192Y-86378D01*
X306772Y-86299D01*
X306299Y-86273D01*
X305827Y-86299D01*
X305407Y-86378D01*
X305092Y-86483D01*
X304830Y-86641D01*
X304724Y-86850D01*
G01X304987Y-83674D02*
X304830Y-83832D01*
X304724Y-84016D01*
Y-84226D01*
X304882Y-84462D01*
X305144Y-84646D01*
X305459Y-84777D01*
X305984Y-84882D01*
X306457Y-84908D01*
X306929Y-84856D01*
X307244Y-84777D01*
X307559Y-84619D01*
X307769Y-84436D01*
X307874Y-84252D01*
Y-84068D01*
X307769Y-83885D01*
X307611Y-83727D01*
X307402Y-83596D01*
G01X307507Y-83044D02*
X307769Y-82861D01*
X307874Y-82651D01*
X307769Y-82441D01*
X307454Y-82257D01*
X306981Y-82126D01*
X306509Y-82074D01*
X305932D01*
X305459Y-82126D01*
X305039Y-82257D01*
X304830Y-82415D01*
X304724Y-82598D01*
X304830Y-82808D01*
X305039Y-82966D01*
X305354Y-83071D01*
X305774Y-83123D01*
X306142Y-83071D01*
X306509Y-82940D01*
X306719Y-82782D01*
X306772Y-82598D01*
X306667Y-82389D01*
X306404Y-82231D01*
X305932Y-82074D01*
G01X297507Y-85039D02*
Y-81890D01*
X298163D01*
X298373Y-82047D01*
X298504Y-82257D01*
X298556Y-82677D01*
X298504Y-83097D01*
X298346Y-83359D01*
X298163Y-83517D01*
X297507D01*
G01X298163D02*
X298556Y-85039D01*
G01X299685D02*
Y-81890D01*
X299370Y-82520D01*
G01Y-85039D02*
X300000D01*
G01X301339D02*
X301522Y-84987D01*
X301732Y-84830D01*
X301863Y-84567D01*
X301916Y-84200D01*
X301863Y-83832D01*
X301706Y-83517D01*
X301470Y-83359D01*
X301207D01*
X301050Y-83255D01*
X300919Y-82992D01*
X300866Y-82625D01*
X300945Y-82257D01*
X301129Y-81995D01*
X301339Y-81890D01*
X301548Y-81995D01*
X301732Y-82257D01*
X301811Y-82625D01*
X301759Y-82992D01*
X301627Y-83255D01*
X301470Y-83359D01*
X301207D01*
X300971Y-83517D01*
X300814Y-83832D01*
X300761Y-84200D01*
X300814Y-84567D01*
X300945Y-84830D01*
X301155Y-84987D01*
X301339Y-85039D01*
G01X304934Y-37402D02*
Y-39659D01*
X305039Y-40131D01*
X305249Y-40446D01*
X305512Y-40551D01*
X305774Y-40446D01*
X305984Y-40131D01*
X306089Y-39659D01*
Y-37402D01*
G01X306588Y-40079D02*
X306745Y-40341D01*
X306929Y-40499D01*
X307165Y-40551D01*
X307402Y-40446D01*
X307585Y-40236D01*
X307717Y-39869D01*
X307743Y-39449D01*
X307690Y-39029D01*
X307559Y-38767D01*
X307375Y-38556D01*
X307192Y-38504D01*
X307008Y-38556D01*
X306772Y-38767D01*
X306850Y-37402D01*
X307559D01*
G01X308661Y-27690D02*
X305512D01*
Y-27034D01*
X305669Y-26824D01*
X305879Y-26693D01*
X306299Y-26641D01*
X306719Y-26693D01*
X306981Y-26850D01*
X307139Y-27034D01*
Y-27690D01*
G01Y-27034D02*
X308661Y-26641D01*
G01Y-25512D02*
X305512D01*
X306142Y-25827D01*
G01X308661D02*
Y-25197D01*
G01Y-23858D02*
X305512D01*
X306142Y-24173D01*
G01X308661D02*
Y-23543D01*
G01X321916Y-109055D02*
Y-105906D01*
X322546D01*
X322756Y-106063D01*
X322913Y-106430D01*
X322966Y-106850D01*
X322913Y-107270D01*
X322782Y-107585D01*
X322546Y-107743D01*
X321916D01*
G01X323517Y-109055D02*
Y-105906D01*
X324042D01*
X324252Y-106063D01*
X324409Y-106273D01*
X324541Y-106588D01*
X324646Y-106956D01*
X324672Y-107480D01*
X324646Y-108005D01*
X324541Y-108373D01*
X324409Y-108688D01*
X324252Y-108898D01*
X324042Y-109055D01*
X323517D01*
G01X325748D02*
Y-105906D01*
X325433Y-106535D01*
G01Y-109055D02*
X326063D01*
G01X324803Y-100787D02*
Y-103937D01*
G01X324200Y-100787D02*
X325407D01*
G01X325932Y-103937D02*
Y-100787D01*
X326562D01*
X326772Y-100945D01*
X326929Y-101312D01*
X326981Y-101732D01*
X326929Y-102152D01*
X326798Y-102467D01*
X326562Y-102625D01*
X325932D01*
G01X328110Y-103937D02*
Y-100787D01*
X327795Y-101417D01*
G01Y-103937D02*
X328425D01*
G01X329764Y-100787D02*
X329554Y-100893D01*
X329396Y-101155D01*
X329291Y-101470D01*
X329213Y-101890D01*
X329186Y-102362D01*
X329213Y-102835D01*
X329291Y-103255D01*
X329396Y-103570D01*
X329554Y-103832D01*
X329764Y-103937D01*
X329974Y-103832D01*
X330131Y-103570D01*
X330236Y-103255D01*
X330315Y-102835D01*
X330341Y-102362D01*
X330315Y-101890D01*
X330236Y-101470D01*
X330131Y-101155D01*
X329974Y-100893D01*
X329764Y-100787D01*
G01X321260Y-56299D02*
Y-59449D01*
G01X320656Y-56299D02*
X321863D01*
G01X322389Y-59449D02*
Y-56299D01*
X323019D01*
X323228Y-56457D01*
X323386Y-56824D01*
X323438Y-57244D01*
X323386Y-57664D01*
X323255Y-57979D01*
X323019Y-58137D01*
X322389D01*
G01X324515Y-59449D02*
X324567Y-58767D01*
X324646Y-58189D01*
X324751Y-57664D01*
X324882Y-57087D01*
X325092Y-56299D01*
X324042D01*
G01X318898Y-61024D02*
Y-64173D01*
G01X318294Y-61024D02*
X319501D01*
G01X320026Y-64173D02*
Y-61024D01*
X320656D01*
X320866Y-61181D01*
X321024Y-61548D01*
X321076Y-61969D01*
X321024Y-62389D01*
X320893Y-62704D01*
X320656Y-62861D01*
X320026D01*
G01X322205Y-64173D02*
X322389Y-64121D01*
X322598Y-63963D01*
X322730Y-63701D01*
X322782Y-63333D01*
X322730Y-62966D01*
X322572Y-62651D01*
X322336Y-62493D01*
X322074D01*
X321916Y-62389D01*
X321785Y-62126D01*
X321732Y-61759D01*
X321811Y-61391D01*
X321995Y-61129D01*
X322205Y-61024D01*
X322415Y-61129D01*
X322598Y-61391D01*
X322677Y-61759D01*
X322625Y-62126D01*
X322493Y-62389D01*
X322336Y-62493D01*
X322074D01*
X321837Y-62651D01*
X321680Y-62966D01*
X321627Y-63333D01*
X321680Y-63701D01*
X321811Y-63963D01*
X322021Y-64121D01*
X322205Y-64173D01*
G01X327165Y-30118D02*
Y-33268D01*
G01X326562Y-30118D02*
X327769D01*
G01X328294Y-33268D02*
Y-30118D01*
X328924D01*
X329134Y-30276D01*
X329291Y-30643D01*
X329344Y-31063D01*
X329291Y-31483D01*
X329160Y-31798D01*
X328924Y-31956D01*
X328294D01*
G01X330472Y-33268D02*
Y-30118D01*
X330157Y-30748D01*
G01Y-33268D02*
X330787D01*
G01X331680Y-32900D02*
X331863Y-33163D01*
X332074Y-33268D01*
X332283Y-33163D01*
X332467Y-32848D01*
X332598Y-32375D01*
X332651Y-31903D01*
Y-31326D01*
X332598Y-30853D01*
X332467Y-30433D01*
X332310Y-30223D01*
X332126Y-30118D01*
X331916Y-30223D01*
X331759Y-30433D01*
X331654Y-30748D01*
X331601Y-31168D01*
X331654Y-31535D01*
X331785Y-31903D01*
X331942Y-32113D01*
X332126Y-32165D01*
X332336Y-32061D01*
X332493Y-31798D01*
X332651Y-31326D01*
G01X329528Y-52362D02*
Y-55512D01*
G01X328924Y-52362D02*
X330131D01*
G01X330656Y-55512D02*
Y-52362D01*
X331286D01*
X331496Y-52520D01*
X331654Y-52887D01*
X331706Y-53307D01*
X331654Y-53727D01*
X331522Y-54042D01*
X331286Y-54200D01*
X330656D01*
G01X332336D02*
X332520Y-53832D01*
X332677Y-53622D01*
X332887Y-53517D01*
X333071Y-53622D01*
X333202Y-53832D01*
X333307Y-54147D01*
X333333Y-54515D01*
X333307Y-54830D01*
X333202Y-55144D01*
X333044Y-55407D01*
X332861Y-55512D01*
X332651Y-55407D01*
X332467Y-55092D01*
X332362Y-54619D01*
X332336Y-54094D01*
X332389Y-53412D01*
X332467Y-53044D01*
X332598Y-52677D01*
X332782Y-52415D01*
X332966Y-52362D01*
X333150Y-52467D01*
X333281Y-52730D01*
G01X329003Y-59213D02*
X329134Y-59528D01*
X329291Y-59737D01*
X329475Y-59843D01*
X329685Y-59737D01*
X329843Y-59528D01*
X330000Y-59213D01*
X330052Y-58793D01*
Y-56693D01*
G01X331181Y-59843D02*
Y-56693D01*
X330866Y-57323D01*
G01Y-59843D02*
X331496D01*
G01X329134Y-47244D02*
Y-50394D01*
G01X328530Y-47244D02*
X329737D01*
G01X330263Y-50394D02*
Y-47244D01*
X330893D01*
X331102Y-47402D01*
X331260Y-47769D01*
X331312Y-48189D01*
X331260Y-48609D01*
X331129Y-48924D01*
X330893Y-49081D01*
X330263D01*
G01X331863Y-49921D02*
X332021Y-50184D01*
X332205Y-50341D01*
X332441Y-50394D01*
X332677Y-50289D01*
X332861Y-50079D01*
X332992Y-49711D01*
X333019Y-49291D01*
X332966Y-48871D01*
X332835Y-48609D01*
X332651Y-48399D01*
X332467Y-48346D01*
X332283Y-48399D01*
X332047Y-48609D01*
X332126Y-47244D01*
X332835D01*
G01X329134Y-42126D02*
Y-45276D01*
G01X328530Y-42126D02*
X329737D01*
G01X330263Y-45276D02*
Y-42126D01*
X330893D01*
X331102Y-42283D01*
X331260Y-42651D01*
X331312Y-43071D01*
X331260Y-43491D01*
X331129Y-43806D01*
X330893Y-43963D01*
X330263D01*
G01X332756Y-45276D02*
Y-42126D01*
X331785Y-44383D01*
X333097D01*
G01X328740Y-37598D02*
Y-40748D01*
G01X328137Y-37598D02*
X329344D01*
G01X329869Y-40748D02*
Y-37598D01*
X330499D01*
X330709Y-37756D01*
X330866Y-38123D01*
X330919Y-38543D01*
X330866Y-38963D01*
X330735Y-39278D01*
X330499Y-39436D01*
X329869D01*
G01X331470Y-40118D02*
X331627Y-40485D01*
X331837Y-40696D01*
X332074Y-40748D01*
X332283Y-40696D01*
X332493Y-40433D01*
X332625Y-40118D01*
X332651Y-39803D01*
X332598Y-39436D01*
X332415Y-39173D01*
X332231Y-39068D01*
X331995D01*
G01X332231D02*
X332389Y-38911D01*
X332520Y-38648D01*
X332572Y-38333D01*
X332520Y-38019D01*
X332389Y-37756D01*
X332152Y-37598D01*
X331916Y-37651D01*
X331680Y-37861D01*
G01X329987Y-20866D02*
Y-24016D01*
X331037D01*
G01X331588D02*
Y-20866D01*
X332113D01*
X332323Y-21024D01*
X332480Y-21233D01*
X332611Y-21548D01*
X332717Y-21916D01*
X332743Y-22441D01*
X332717Y-22966D01*
X332611Y-23333D01*
X332480Y-23648D01*
X332323Y-23858D01*
X332113Y-24016D01*
X331588D01*
G01X333819D02*
Y-20866D01*
X333504Y-21496D01*
G01Y-24016D02*
X334134D01*
G01X338976Y-23622D02*
Y-26772D01*
G01X338373Y-23622D02*
X339580D01*
G01X340105Y-26772D02*
Y-23622D01*
X340735D01*
X340945Y-23780D01*
X341102Y-24147D01*
X341155Y-24567D01*
X341102Y-24987D01*
X340971Y-25302D01*
X340735Y-25459D01*
X340105D01*
G01X342283Y-26772D02*
Y-23622D01*
X341969Y-24252D01*
G01Y-26772D02*
X342598D01*
G01X343937D02*
X344121Y-26719D01*
X344331Y-26562D01*
X344462Y-26299D01*
X344515Y-25932D01*
X344462Y-25565D01*
X344304Y-25249D01*
X344068Y-25092D01*
X343806D01*
X343648Y-24987D01*
X343517Y-24724D01*
X343465Y-24357D01*
X343543Y-23989D01*
X343727Y-23727D01*
X343937Y-23622D01*
X344147Y-23727D01*
X344331Y-23989D01*
X344409Y-24357D01*
X344357Y-24724D01*
X344226Y-24987D01*
X344068Y-25092D01*
X343806D01*
X343570Y-25249D01*
X343412Y-25565D01*
X343359Y-25932D01*
X343412Y-26299D01*
X343543Y-26562D01*
X343753Y-26719D01*
X343937Y-26772D01*
G54D15*
G01X100644Y-31660D02*
X104724D01*
Y-21000D01*
X104246D01*
G01X97665Y-31660D02*
X93583D01*
Y-21000D01*
X93964D01*
G01X101366D02*
X96798D01*
G01X258870Y-70661D02*
Y-73819D01*
X261824D01*
G01X258854Y-47531D02*
Y-44319D01*
X262106D01*
G01X275331Y-13989D02*
Y-18556D01*
G01X285991Y-17689D02*
Y-21772D01*
X275331D01*
Y-21391D01*
G01X285991Y-14710D02*
Y-10630D01*
X275331D01*
Y-11109D01*
G01X288398Y-70665D02*
Y-73839D01*
X285220D01*
G01X285248Y-44283D02*
Y-44303D01*
X288362D01*
Y-47382D01*
G01X293835Y-13989D02*
Y-18556D01*
G01X304495Y-17689D02*
Y-21772D01*
X293835D01*
Y-21391D01*
G01X304495Y-14710D02*
Y-10630D01*
X293835D01*
Y-11109D01*
G54D16*
G01X60210Y-14173D02*
Y-9449D01*
X62625Y-14173D01*
Y-9449D01*
G01X64764Y-14173D02*
Y-9449D01*
X64134Y-10394D01*
G01Y-14173D02*
X65394D01*
G01X76548Y-99409D02*
X76233Y-99173D01*
X75866Y-99016D01*
X75446D01*
X74974Y-99252D01*
X74606Y-99646D01*
X74344Y-100118D01*
X74134Y-100906D01*
X74081Y-101614D01*
X74186Y-102323D01*
X74344Y-102795D01*
X74659Y-103268D01*
X75026Y-103583D01*
X75394Y-103740D01*
X75761D01*
X76129Y-103583D01*
X76444Y-103346D01*
X76706Y-103031D01*
G01X77585D02*
X77900Y-103425D01*
X78268Y-103661D01*
X78740Y-103740D01*
X79213Y-103583D01*
X79580Y-103268D01*
X79843Y-102717D01*
X79895Y-102087D01*
X79790Y-101457D01*
X79528Y-101063D01*
X79160Y-100748D01*
X78793Y-100669D01*
X78425Y-100748D01*
X77953Y-101063D01*
X78110Y-99016D01*
X79528D01*
G01X76903Y-19488D02*
Y-14764D01*
X78163D01*
X78583Y-15000D01*
X78898Y-15551D01*
X79003Y-16181D01*
X78898Y-16811D01*
X78635Y-17283D01*
X78163Y-17520D01*
X76903D01*
G01X81299Y-19488D02*
Y-14764D01*
X80669Y-15709D01*
G01Y-19488D02*
X81929D01*
G01X101745Y-58071D02*
X101430Y-57835D01*
X101063Y-57677D01*
X100643D01*
X100170Y-57913D01*
X99803Y-58307D01*
X99541Y-58780D01*
X99331Y-59567D01*
X99278Y-60276D01*
X99383Y-60984D01*
X99541Y-61457D01*
X99856Y-61929D01*
X100223Y-62244D01*
X100591Y-62402D01*
X100958D01*
X101326Y-62244D01*
X101641Y-62008D01*
X101903Y-61693D01*
G01X102940Y-60433D02*
X103307Y-59882D01*
X103622Y-59567D01*
X104042Y-59409D01*
X104409Y-59567D01*
X104672Y-59882D01*
X104882Y-60354D01*
X104934Y-60906D01*
X104882Y-61378D01*
X104672Y-61850D01*
X104357Y-62244D01*
X103989Y-62402D01*
X103570Y-62244D01*
X103202Y-61772D01*
X102992Y-61063D01*
X102940Y-60276D01*
X103044Y-59252D01*
X103202Y-58701D01*
X103465Y-58150D01*
X103832Y-57756D01*
X104200Y-57677D01*
X104567Y-57835D01*
X104830Y-58228D01*
G01X119816Y-18898D02*
Y-14173D01*
X121076D01*
X121496Y-14409D01*
X121811Y-14961D01*
X121916Y-15591D01*
X121811Y-16220D01*
X121548Y-16693D01*
X121076Y-16929D01*
X119816D01*
G01X123215Y-14961D02*
X123530Y-14488D01*
X123898Y-14252D01*
X124318Y-14173D01*
X124843Y-14331D01*
X125210Y-14724D01*
X125315Y-15197D01*
X125263Y-15669D01*
X125052Y-16063D01*
X124003Y-16850D01*
X123530Y-17402D01*
X123215Y-18189D01*
X123110Y-18898D01*
X125315D01*
G01X136588Y-14173D02*
Y-9449D01*
X139003Y-14173D01*
Y-9449D01*
G01X140144Y-10236D02*
X140459Y-9764D01*
X140827Y-9528D01*
X141247Y-9449D01*
X141772Y-9606D01*
X142139Y-10000D01*
X142244Y-10472D01*
X142192Y-10945D01*
X141981Y-11339D01*
X140932Y-12126D01*
X140459Y-12677D01*
X140144Y-13465D01*
X140039Y-14173D01*
X142244D01*
M02*
