G04 ================== begin FILE IDENTIFICATION RECORD ==================*
G04 Layout Name:  F:/3-MyLaptopDIR/POF-PSU-C2/PCB/PSU-C2-6Layers - Copy.brd*
G04 Film Name:    SOLDERMASK_BOTTOM*
G04 File Format:  Gerber RS274X*
G04 File Origin:  Cadence Allegro 22.1-P001*
G04 Origin Date:  Thu Jun 12 14:48:47 2025*
G04 *
G04 Layer:  VIA CLASS/SOLDERMASK_BOTTOM*
G04 Layer:  PIN/SOLDERMASK_BOTTOM*
G04 *
G04 Offset:    (0.0000 0.0000)*
G04 Mirror:    No*
G04 Mode:      Positive*
G04 Rotation:  0*
G04 FullContactRelief:  No*
G04 UndefLineWidth:     0.2540*
G04 ================== end FILE IDENTIFICATION RECORD ====================*
%FSLAX25Y25*MOIN*%
%IR0*IPPOS*OFA0.00000B0.00000*MIA0B0*SFA1.00000B1.00000*%
%ADD31R,.03937X.017717*%
%ADD17R,.03937X.035433*%
%ADD20R,.035433X.03937*%
%ADD13R,.051181X.027559*%
%ADD14R,.027559X.051181*%
%ADD25C,.015748*%
%ADD10R,.090551X.033071*%
%ADD16R,.024016X.053937*%
%ADD15C,.035433*%
%ADD26R,.03937X.043307*%
%ADD27R,.043307X.051181*%
%ADD29R,.074803X.043307*%
%ADD28R,.045276X.090551*%
%ADD24R,.090551X.045276*%
%ADD21R,.043307X.074803*%
%ADD32R,.074803X.062992*%
%ADD33R,.027559X.023622*%
%ADD23R,.062992X.074803*%
%ADD34C,.055118*%
%ADD12R,.035433X.027559*%
%ADD19R,.035433X.01378*%
%ADD18C,.102362*%
%ADD11R,.027559X.035433*%
%ADD30R,.01378X.035433*%
%ADD22C,.074803*%
%LPD*%
G75*
G54D10*
X13780Y-86496D03*
Y-81496D03*
Y-76496D03*
Y-71496D03*
Y-66496D03*
Y-61496D03*
Y-56496D03*
Y-51496D03*
Y-46496D03*
Y-41496D03*
Y-36496D03*
Y-31496D03*
X27559Y-86496D03*
Y-81496D03*
Y-76496D03*
Y-71496D03*
Y-66496D03*
Y-61496D03*
Y-56496D03*
Y-51496D03*
Y-46496D03*
Y-41496D03*
Y-36496D03*
Y-31496D03*
X326772Y-86496D03*
Y-81496D03*
Y-76496D03*
Y-71496D03*
Y-66496D03*
Y-61496D03*
Y-56496D03*
Y-51496D03*
Y-46496D03*
Y-41496D03*
Y-36496D03*
Y-31496D03*
X340551Y-86496D03*
Y-81496D03*
Y-76496D03*
Y-71496D03*
Y-66496D03*
Y-61496D03*
Y-56496D03*
Y-51496D03*
Y-46496D03*
Y-41496D03*
Y-36496D03*
Y-31496D03*
G54D11*
X24803Y-96850D03*
X20866D03*
X38189Y-72441D03*
X42126D03*
X49606Y-37402D03*
Y-28740D03*
X53543Y-37402D03*
Y-28740D03*
X69685Y-88583D03*
X65748D03*
Y-80709D03*
X69685D03*
X66142Y-43701D03*
X70079D03*
X72047Y-70472D03*
X75984D03*
X72047Y-58268D03*
X75984D03*
X81102Y-61417D03*
X92126Y-55512D03*
X85039Y-61417D03*
X92126Y-49606D03*
X96063Y-76772D03*
X100000D03*
X98425Y-65748D03*
X94488D03*
X96063Y-55512D03*
Y-49606D03*
X109055Y-76772D03*
X105118D03*
Y-71260D03*
X109055D03*
X110630Y-50000D03*
X117323Y-84252D03*
X121260D03*
X114567Y-50000D03*
X134252Y-59055D03*
X138189D03*
X144094Y-38189D03*
X140157D03*
X162205Y-98425D03*
X166142D03*
X157874Y-92913D03*
X161811D03*
X166535D03*
X166890Y-35039D03*
X162953D03*
X162992Y-29528D03*
X166929D03*
X170472Y-92913D03*
X177559Y-56693D03*
X172047D03*
X168110D03*
X174409Y-62992D03*
X170472D03*
X177559Y-41339D03*
X173661Y-35079D03*
X177598D03*
X168110Y-41339D03*
X172047D03*
X177559Y-29488D03*
X173622D03*
X180709Y-72441D03*
X184646D03*
X181496Y-56693D03*
X186220Y-35827D03*
Y-41339D03*
X181496D03*
X198031Y-105118D03*
Y-80709D03*
Y-55118D03*
X190157Y-35827D03*
Y-41339D03*
X198031Y-12992D03*
Y-18504D03*
X201969Y-105118D03*
Y-80709D03*
Y-55118D03*
Y-12992D03*
Y-18504D03*
X230709Y-87008D03*
X226772D03*
X230709Y-78740D03*
X227165Y-38583D03*
X231102D03*
X242520Y-94094D03*
X238976Y-87008D03*
X234646Y-78740D03*
X238976Y-63780D03*
X235039D03*
X252717Y-105512D03*
X252756Y-100000D03*
X252776Y-94488D03*
X246457Y-94094D03*
X242913Y-87008D03*
X250787Y-63386D03*
X262205Y-105512D03*
X262283Y-98850D03*
X256654Y-105512D03*
X256693Y-100000D03*
X256713Y-94488D03*
X261669Y-92106D03*
X254724Y-63386D03*
X261417Y-45669D03*
X266142Y-105512D03*
X266220Y-98850D03*
X271654Y-100787D03*
X273228Y-88189D03*
X271654Y-95276D03*
X265606Y-92106D03*
X264567Y-72441D03*
X268504D03*
X274409Y-54724D03*
X270472D03*
X265354Y-45669D03*
X275591Y-100787D03*
X277165Y-88189D03*
X275591Y-95276D03*
X282677Y-88189D03*
X278740Y-72835D03*
X282677D03*
X283858Y-48031D03*
X282283Y-35039D03*
X278346D03*
X282283Y-29528D03*
X278346D03*
X280315Y-19291D03*
X276378D03*
Y-13780D03*
X280315D03*
X292520Y-95276D03*
X288583D03*
X286614Y-88189D03*
X287795Y-48031D03*
X293701Y-12992D03*
X300787Y-84252D03*
X296850D03*
X305067Y-65079D03*
X299638Y-56276D03*
X303575D03*
X297638Y-12992D03*
X309004Y-65079D03*
X316929Y-35433D03*
X312992D03*
X316929Y-40945D03*
X312992D03*
G54D20*
X70472Y-94488D03*
X64961D03*
X66142Y-22441D03*
X71654D03*
X92343Y-43701D03*
X86831D03*
X100000Y-71260D03*
X94488D03*
X120866Y-59055D03*
X126378D03*
X146063Y-88583D03*
X151575D03*
X198425Y-88976D03*
Y-63780D03*
Y-38189D03*
X203937Y-88976D03*
Y-63780D03*
Y-38189D03*
X241732Y-72441D03*
X247244D03*
G54D30*
X120472Y-50000D03*
X122441D03*
X120472Y-38583D03*
X122441D03*
X124409Y-50000D03*
X126378D03*
X128346D03*
X124409Y-38583D03*
X126378D03*
X128346D03*
G54D12*
X24409Y-105906D03*
Y-101969D03*
X38976Y-87402D03*
Y-91339D03*
Y-78346D03*
Y-82283D03*
X37776Y-36654D03*
Y-32717D03*
X66535Y-66929D03*
Y-70866D03*
Y-61811D03*
Y-57874D03*
X81496Y-70866D03*
Y-66929D03*
X80925Y-47224D03*
Y-43287D03*
X75413Y-47244D03*
Y-43307D03*
X86614Y-49213D03*
Y-53150D03*
X120866Y-89764D03*
Y-93701D03*
X115354D03*
Y-89764D03*
X115315Y-77953D03*
X120886D03*
X115315Y-74016D03*
X120886D03*
X134646Y-43307D03*
Y-48425D03*
Y-52362D03*
Y-39370D03*
X140531Y-88134D03*
Y-92071D03*
X140551Y-83071D03*
Y-79134D03*
X146063Y-83071D03*
Y-79134D03*
X144094Y-32677D03*
Y-28740D03*
X150000Y-38189D03*
Y-34252D03*
X156693Y-38189D03*
Y-34252D03*
X165354Y-68110D03*
Y-72047D03*
X159843Y-71988D03*
Y-68051D03*
X170866Y-71988D03*
Y-68051D03*
X168504Y-51161D03*
Y-47224D03*
X184646Y-65748D03*
Y-61811D03*
X182677Y-51181D03*
Y-47244D03*
X190157Y-65748D03*
Y-61811D03*
X189764Y-25591D03*
Y-21654D03*
X195276Y-25591D03*
Y-29528D03*
X208268Y-98425D03*
Y-94488D03*
X201181Y-74016D03*
Y-70079D03*
X208268Y-47638D03*
Y-43701D03*
X200787Y-29528D03*
Y-25591D03*
X220866Y-76378D03*
Y-80315D03*
Y-66929D03*
Y-70866D03*
X223622Y-97638D03*
Y-101575D03*
Y-47244D03*
Y-51181D03*
X235433Y-99213D03*
Y-103150D03*
X240945Y-81496D03*
Y-77559D03*
X235433Y-72835D03*
Y-68898D03*
X242126Y-44094D03*
Y-40157D03*
X246063Y-103150D03*
Y-99213D03*
X247638Y-43701D03*
Y-47638D03*
X262992Y-77953D03*
Y-81890D03*
X260236Y-66929D03*
X254331Y-72835D03*
Y-68898D03*
X260236Y-62992D03*
X253937Y-35807D03*
Y-39744D03*
X259449Y-35827D03*
Y-39764D03*
X273622Y-68898D03*
Y-72835D03*
X270866Y-48819D03*
Y-44882D03*
X264961Y-35827D03*
Y-39764D03*
X272441Y-35433D03*
Y-31496D03*
X281890Y-98819D03*
Y-94882D03*
X282283Y-57874D03*
Y-53937D03*
X276378Y-48819D03*
Y-44882D03*
X285827Y-16535D03*
Y-12598D03*
X292913Y-107087D03*
Y-103150D03*
X287008Y-67717D03*
X288189Y-57874D03*
Y-53937D03*
X287008Y-63780D03*
X298425Y-103150D03*
Y-107087D03*
Y-98031D03*
X304331Y-103150D03*
Y-107087D03*
Y-98031D03*
X298425Y-94094D03*
X306299Y-87402D03*
X304331Y-94094D03*
X306299Y-83465D03*
X299327Y-65528D03*
Y-61591D03*
X304331Y-16535D03*
Y-12598D03*
X308610Y-59756D03*
Y-55819D03*
X316976Y-55764D03*
Y-59701D03*
X323622Y-100787D03*
Y-104724D03*
X329134Y-100787D03*
Y-104724D03*
G54D21*
X65575Y-32984D03*
G54D22*
X71260Y-12205D03*
X86220D03*
X114173D03*
X130709D03*
G54D13*
X32283Y-97638D03*
Y-101378D03*
Y-105118D03*
X41732Y-97638D03*
Y-105118D03*
X48819Y-88189D03*
Y-80709D03*
Y-84449D03*
X58268Y-88189D03*
Y-80709D03*
X158858Y-86614D03*
Y-79134D03*
Y-82874D03*
X169291Y-86614D03*
Y-79134D03*
Y-82874D03*
G54D31*
X162831Y-22634D03*
Y-20075D03*
Y-17516D03*
Y-14957D03*
X178012Y-22634D03*
Y-20075D03*
Y-17516D03*
Y-14957D03*
G54D23*
X78740Y-103937D03*
X91732D03*
X101575D03*
X114567D03*
X174409Y-104724D03*
X187402D03*
G54D32*
X212205Y-78346D03*
Y-65354D03*
Y-28346D03*
Y-15354D03*
X215748Y-103150D03*
Y-90157D03*
Y-52756D03*
Y-39764D03*
X222047Y-28346D03*
Y-15354D03*
X299606Y-44882D03*
Y-27165D03*
G54D14*
X38189Y-63780D03*
Y-54331D03*
X45669Y-63780D03*
Y-54331D03*
X41929D03*
G54D33*
X287795Y-36220D03*
Y-42126D03*
G54D24*
X83465Y-94882D03*
Y-77559D03*
X86220Y-37402D03*
Y-20079D03*
X182677Y-96457D03*
Y-79134D03*
G54D15*
X37795Y-46063D03*
X60236Y-59843D03*
X162992Y-41339D03*
X287795Y-83465D03*
G54D34*
X313780Y-104724D03*
Y-94724D03*
X318429Y-25134D03*
Y-12535D03*
X312130Y-18835D03*
X324728D03*
G54D16*
X34681Y-23094D03*
X38524Y-12434D03*
X42220Y-23094D03*
X233500D03*
X241039D03*
X237343Y-12434D03*
X246492Y-23094D03*
X250335Y-12434D03*
X259484Y-23094D03*
X254031D03*
X263327Y-12434D03*
X267024Y-23094D03*
G54D25*
X75591Y-65354D03*
X73622D03*
X71654D03*
X75591Y-63386D03*
X73622D03*
X71654D03*
X175591Y-47268D03*
X173622D03*
X175591Y-49236D03*
X173622D03*
X175591Y-51205D03*
X173622D03*
G54D26*
X98819Y-94882D03*
X105118D03*
G54D17*
X44094Y-37402D03*
Y-31890D03*
X114173Y-44094D03*
Y-38583D03*
X138189Y-32283D03*
Y-26772D03*
G54D18*
X54724Y-99409D03*
Y-68898D03*
Y-49213D03*
Y-18701D03*
X150000Y-99409D03*
Y-68898D03*
Y-49213D03*
Y-18701D03*
G54D27*
X102146Y-85921D03*
G54D19*
X59843Y-33071D03*
Y-35039D03*
Y-37008D03*
Y-29134D03*
Y-31102D03*
X71260Y-33071D03*
Y-35039D03*
Y-37008D03*
Y-29134D03*
Y-31102D03*
X96457Y-88583D03*
Y-86811D03*
Y-85039D03*
Y-83268D03*
X107480Y-88583D03*
Y-86811D03*
Y-85039D03*
Y-83268D03*
G54D28*
X114173Y-25984D03*
X131496D03*
G54D29*
X124323Y-44268D03*
M02*
