G04 ================== begin FILE IDENTIFICATION RECORD ==================*
G04 Layout Name:  F:/3-MyLaptopDIR/POF-PSU-C2/PCB/PSU-C2-6Layers - Copy.brd*
G04 Film Name:    VCC*
G04 File Format:  Gerber RS274X*
G04 File Origin:  Cadence Allegro 22.1-P001*
G04 Origin Date:  Thu Jun 12 14:48:47 2025*
G04 *
G04 Layer:  ETCH/VCC*
G04 Layer:  PIN/VCC*
G04 Layer:  VIA CLASS/VCC*
G04 *
G04 Offset:    (0.0000 0.0000)*
G04 Mirror:    No*
G04 Mode:      Positive*
G04 Rotation:  0*
G04 FullContactRelief:  No*
G04 UndefLineWidth:     0.2540*
G04 ================== end FILE IDENTIFICATION RECORD ====================*
%FSLAX25Y25*MOIN*%
%IR0*IPPOS*OFA0.00000B0.00000*MIA0B0*SFA1.00000B1.00000*%
%ADD11C,.015748*%
%ADD14C,.047244*%
%ADD10C,.090551*%
%ADD12C,.098425*%
%ADD13C,.070866*%
%ADD15C,.007874*%
%ADD16C,.011811*%
%ADD17C,.008661*%
%ADD18C,.005*%
%ADD23C,.078756*%
%ADD19C,.04726*%
%ADD20C,.055134*%
%ADD21C,.129937*%
%ADD22C,.137811*%
G75*
%LPD*%
G75*
G36*
G01X82345Y-7876D02*
G02X82626Y-8560I0J-400D01*
G03X81102Y-12205I3594J-3644D01*
G03X91339I5119J0D01*
G03X89815Y-8560I-5119J0D01*
G02X90096Y-7876I281J285D01*
G01X110298D01*
G02X110579Y-8560I0J-400D01*
G03X109054Y-12205I3594J-3644D01*
G03X119292I5119J0D01*
G03X117768Y-8560I-5119J0D01*
G02X118049Y-7876I281J285D01*
G01X126291D01*
G02X126589Y-8541I0J-400D01*
G03X125196Y-12205I4119J-3663D01*
G03X136221I5513J0D01*
G03X134828Y-8541I-5513J0D01*
G02X135127Y-7876I299J266D01*
G01X192611D01*
G02X192998Y-8374I0J-400D01*
G03X192913Y-9055I2671J-681D01*
G03X198426I2757J0D01*
G03X198341Y-8374I-2757J0D01*
G02X198728Y-7876I388J99D01*
G01X202847D01*
G02X203234Y-8374I0J-400D01*
G03X203149Y-9055I2671J-681D01*
G03X205906Y-11812I2757J0D01*
G03X207963Y-10890I0J2757D01*
G02X208661Y-11156I298J-266D01*
G01Y-75465D01*
G03Y-78079I1968J-1307D01*
G01Y-79450D01*
G03Y-83543I1181J-2046D01*
G01Y-87008D01*
X205867D01*
G03X203937Y-86220I-1930J-1969D01*
G03X202063Y-86955I0J-2756D01*
G01X202006Y-87008D01*
X201181D01*
G03X200068Y-87469I0J-1575D01*
G01X192211Y-95326D01*
G02X191542Y-95149I-283J283D01*
G03X189264Y-93413I-2278J-626D01*
G03X186903Y-95679I0J-2363D01*
G02X186503Y-96063I-400J16D01*
G01X185692D01*
X183858Y-94230D01*
Y-72276D01*
X184079D01*
X184098Y-72280D01*
G03X184360Y-72320I548J2701D01*
G03X184357Y-72441I2754J-123D01*
G03X189871I2757J0D01*
G03X187400Y-69699I-2757J0D01*
G03X187402Y-69579I-2754J123D01*
G03X184646Y-66822I-2757J0D01*
G01X184645D01*
G03X184257Y-66850I0J-2757D01*
G02X183812Y-66550I-57J396D01*
G03X183397Y-65816I-1528J-379D01*
G01X182216Y-64635D01*
G03X181891Y-64385I-1113J-1114D01*
G01Y-63280D01*
G03X181198Y-61609I-2363J0D01*
G01X180517Y-60928D01*
G03X178846Y-60235I-1671J-1671D01*
G01X176878D01*
G03X174515Y-62598I0J-2363D01*
G01Y-64173D01*
X172047D01*
G03X170934Y-64635I0J-1575D01*
G01X169359Y-66209D01*
G03X168898Y-67323I1113J-1114D01*
G01Y-93513D01*
G03Y-98038I1575J-2263D01*
G01Y-102472D01*
X168765Y-102520D01*
G03X168307Y-102731I921J-2598D01*
G03X166929Y-102361I-1378J-2387D01*
G03X164172Y-105118I0J-2757D01*
G03X164512Y-106443I2757J0D01*
G03X164172Y-107768I2417J-1325D01*
G03X164846Y-109573I2757J0D01*
G02X164543Y-110235I-302J-262D01*
G01X27208D01*
G02X26853Y-109650I0J400D01*
G03X27166Y-108374I-2444J1276D01*
G03X27088Y-107722I-2757J0D01*
G02X27644Y-107264I389J95D01*
G03X28634Y-107481I990J2145D01*
G03X26271Y-105118I0J2363D01*
G01Y-105120D01*
G03X26307Y-105529I2363J1D01*
G02X25722Y-105950I-394J-70D01*
G03X24289Y-105620I-1313J-2424D01*
G03X21547Y-103149I-2742J-285D01*
G03X20087Y-103568I0J-2757D01*
G02X19500Y-103367I-212J339D01*
G03X8449Y-98905I-7557J-2801D01*
G02X7876Y-98545I-173J361D01*
G01Y-19550D01*
G02X8442Y-19186I400J0D01*
G03X11810Y-19919I3369J7375D01*
G01X11811D01*
G03X19919Y-11811I0J8108D01*
G01Y-11810D01*
G03X19186Y-8442I-8108J-1D01*
G02X19550Y-7876I364J166D01*
G01X66842D01*
G02X67141Y-8541I0J-400D01*
G03X65747Y-12205I4119J-3663D01*
G03X76772I5513J0D01*
G03X75379Y-8541I-5513J0D01*
G02X75678Y-7876I299J266D01*
G01X82345D01*
G37*
G36*
G01X176472Y-67323D02*
X180450D01*
X180709Y-67581D01*
Y-94882D01*
G03X181170Y-95995I1575J0D01*
G01X183926Y-98751D01*
G03X184397Y-99076I1114J1113D01*
G03X184251Y-99894I2217J-818D01*
G03X186614Y-102257I2363J0D01*
G03X188818Y-100746I0J2363D01*
G03X189264Y-100788I446J2320D01*
G03X191444Y-99335I0J2363D01*
G01X191496Y-99213D01*
X192126D01*
G03X193239Y-98751I0J1575D01*
G01X201251Y-90740D01*
G02X201838Y-90764I283J-283D01*
G03X203937Y-91733I2099J1788D01*
G03X206428Y-90157I0J2757D01*
G01X213127D01*
X219359Y-96389D01*
G03X220472Y-96850I1114J1113D01*
G01X221674D01*
G03X223335Y-97532I1661J1681D01*
G03X224736Y-97072I0J2363D01*
G03X226272Y-97639I1535J1796D01*
G03X228033Y-96850I0J2363D01*
G01X233411D01*
X233448Y-96866D01*
G03X234358Y-97048I910J2181D01*
G01X240748D01*
G03X241658Y-96866I0J2363D01*
G01X241695Y-96850D01*
X246198D01*
X249452Y-100104D01*
G02X249176Y-100787I-283J-283D01*
G03X246850Y-103150I37J-2363D01*
G03X251576I2363J0D01*
G03X251572Y-103016I-2363J-3D01*
G02X252130Y-102626I399J23D01*
G03X252756Y-102756I626J1445D01*
G01X267064D01*
X270146Y-105838D01*
G03X270525Y-106117I1114J1113D01*
G03X272835Y-107981I2310J499D01*
G03X275187Y-105845I0J2363D01*
G01X275194Y-105773D01*
X276704Y-104263D01*
G03X277165Y-103150I-1113J1114D01*
G01Y-92126D01*
X277556D01*
X277608Y-92162D01*
G03X278740Y-92520I1133J1611D01*
G01X280052D01*
X280103Y-92643D01*
G03X282283Y-94095I2180J911D01*
G03X284582Y-92280I0J2363D01*
G01X284619Y-92126D01*
X292153D01*
X292189Y-92280D01*
G03X294488Y-94095I2299J547D01*
G03X296575Y-92841I0J2363D01*
G02X297211Y-92745I353J-188D01*
G01X299674Y-95208D01*
G03X300787Y-95669I1114J1113D01*
G01X305118D01*
G03X306231Y-95208I0J1575D01*
G01X307739Y-93701D01*
X309089D01*
G02X309486Y-94154I0J-400D01*
G03X309448Y-94724I4294J-571D01*
G03X313780Y-99056I4331J0D01*
G03X318098Y-95066I0J4332D01*
G01X318112Y-94882D01*
X320472D01*
G03X321586Y-94420I0J1575D01*
G01X322767Y-93239D01*
G03X323228Y-92126I-1113J1114D01*
G01Y-89629D01*
X324274Y-88583D01*
X338684D01*
G02X339081Y-89025I0J-400D01*
G03X339066Y-89315I2741J-291D01*
G03X339069Y-89445I2757J1D01*
G03X337728Y-91811I1415J-2366D01*
G03X338181Y-93327I2757J0D01*
G03X337728Y-94843I2303J-1515D01*
G03X340484Y-97599I2757J0D01*
G03X342039Y-97119I0J2757D01*
G03X343594Y-97599I1555J2276D01*
G03X345743Y-96569I0J2757D01*
G02X346455Y-96820I312J-251D01*
G01Y-98586D01*
G02X345902Y-98956I-400J0D01*
G03X342757Y-98329I-3146J-7580D01*
G01X342756D01*
G03X334550Y-106535I0J-8206D01*
G01Y-106537D01*
G03X335176Y-109681I8206J1D01*
G02X334807Y-110235I-370J-153D01*
G01X309034D01*
G02X308837Y-109487I0J400D01*
G03X310191Y-107586I-1357J2400D01*
G02X310879Y-107388I393J-73D01*
G03X313780Y-108662I2900J2664D01*
G03Y-100787I0J3938D01*
G03X309843Y-104624I0J-3938D01*
G02X309194Y-104928I-400J10D01*
G03X307480Y-104330I-1714J-2160D01*
G03X304902Y-106112I0J-2757D01*
G02X304154I-374J141D01*
G03X301575Y-104330I-2579J-975D01*
G03X298818Y-107087I0J-2757D01*
G03X300218Y-109487I2757J0D01*
G02X300021Y-110235I-197J-348D01*
G01X262380D01*
G02X262008Y-109686I0J400D01*
G03X262206Y-108661I-2559J1025D01*
G03X256692I-2757J0D01*
G03X256890Y-109686I2757J1D01*
G02X256518Y-110235I-371J-149D01*
G01X255647D01*
G02X255276Y-109686I0J400D01*
G03X255473Y-108661I-2559J1025D01*
G03X249960I-2757J0D01*
G03X250157Y-109686I2757J1D01*
G02X249786Y-110235I-371J-149D01*
G01X243680D01*
G02X243483Y-109487I0J400D01*
G03X244883Y-107087I-1357J2400D01*
G03X239369I-2757J0D01*
G03X240769Y-109487I2757J0D01*
G02X240572Y-110235I-197J-348D01*
G01X204899D01*
G02X204528Y-109686I0J400D01*
G03X204725Y-108661I-2559J1025D01*
G03X199212I-2757J0D01*
G03X199409Y-109686I2757J1D01*
G02X199038Y-110235I-371J-149D01*
G01X172047D01*
Y-109190D01*
X172074Y-109143D01*
G03X172442Y-107768I-2389J1376D01*
G03X172102Y-106443I-2757J0D01*
G03X172442Y-105118I-2417J1325D01*
G03X172047Y-103697I-2757J0D01*
G01Y-98038D01*
G03X173229Y-95776I-1575J2263D01*
G03X173226Y-95655I-2757J-3D01*
G03X175698Y-92913I-285J2742D01*
G03X172941Y-90157I-2757J0D01*
G03X172510Y-90191I0J-2757D01*
G02X172047Y-89796I-63J395D01*
G01Y-79331D01*
G02X172559Y-78947I400J0D01*
G03X173217Y-79040I657J2270D01*
G03Y-74314I0J2363D01*
G03X172559Y-74407I0J-2363D01*
G02X172047Y-74024I-111J384D01*
G01Y-70499D01*
G02X172633Y-70145I400J0D01*
G03X173728Y-70414I1096J2094D01*
G03X176091Y-68051I0J2363D01*
G03X176074Y-67770I-2363J-2D01*
G02X176472Y-67323I397J48D01*
G37*
G36*
G01X211811Y-7876D02*
X220205D01*
G02X220570Y-8438I0J-400D01*
G03X220334Y-9555I2520J-1117D01*
G03X223091Y-12312I2757J0D01*
G03X224535Y-11903I0J2756D01*
G03X225980Y-12312I1445J2347D01*
G03X227384Y-11928I0J2757D01*
G03X227652Y-12067I1404J2373D01*
G02X227722Y-12380I-82J-182D01*
G03X227058Y-14173I2093J-1794D01*
G01Y-15500D01*
X226397Y-16161D01*
G03X225590Y-18110I1949J-1949D01*
G01Y-18536D01*
G03X226397Y-20485I2756J0D01*
G01X227866Y-21954D01*
G03X229815Y-22761I1949J1949D01*
G03X230641Y-22635I0J2757D01*
G02X231153Y-23093I120J-382D01*
G03X231102Y-23622I2706J-529D01*
G01Y-28404D01*
G02X230459Y-28722I-400J0D01*
G03X229028Y-28239I-1431J-1879D01*
G03X228863Y-28245I2J-2363D01*
G03X226878Y-27165I-1985J-1282D01*
G03X225057Y-28022I0J-2363D01*
G02X224357Y-27851I-308J255D01*
G03X222047Y-25983I-2310J-495D01*
G03X220370Y-26682I0J-2363D01*
G02X219686Y-26397I-284J282D01*
G01Y-26378D01*
G03X217323Y-28741I-2363J0D01*
G03X219000Y-28042I0J2363D01*
G02X219684Y-28327I284J-282D01*
G01Y-28346D01*
G03X222047Y-30709I2363J0D01*
G03X223868Y-29852I0J2363D01*
G02X224568Y-30023I308J-255D01*
G03X226878Y-31891I2310J495D01*
G03X227043Y-31885I-2J2363D01*
G03X227105Y-31976I1984J1284D01*
G02X226959Y-32292I-163J-116D01*
G03X224802Y-34646I206J-2354D01*
G03X225798Y-36572I2363J0D01*
G02X225849Y-37181I-232J-326D01*
G01X225216Y-37815D01*
G03X224409Y-39764I1949J-1949D01*
G01Y-41444D01*
X224016D01*
G03Y-46957I0J-2757D01*
G01X224301D01*
X224302Y-47156D01*
G03X227059Y-49894I2757J19D01*
G03X229816Y-47138I0J2757D01*
G01Y-44743D01*
G02X230344Y-44364I400J0D01*
G03X231102Y-44489I758J2238D01*
G03X233465Y-42126I0J2363D01*
G03X231793Y-39866I-2363J0D01*
G02X231627Y-39201I117J383D01*
G01X232037Y-38790D01*
G02X232714Y-39002I283J-283D01*
G03X235039Y-40946I2326J419D01*
G03X237402Y-38583I0J2363D01*
G03X235459Y-36257I-2363J0D01*
G02X235247Y-35581I71J394D01*
G01X235807Y-35020D01*
G03X235984Y-34826I-1949J1949D01*
G02X236567Y-34789I308J-255D01*
G03X238189Y-35434I1622J1718D01*
G03Y-30708I0J2363D01*
G03X237185Y-30932I0J-2363D01*
G02X236615Y-30570I-170J362D01*
G01Y-24764D01*
X238937Y-22442D01*
X240579D01*
G02X240978Y-22878I0J-400D01*
G03X240968Y-23094I2353J-215D01*
G03X245694I2363J0D01*
G03X245684Y-22878I-2363J1D01*
G02X246082Y-22442I398J37D01*
G01X253571D01*
G02X253970Y-22878I0J-400D01*
G03X253960Y-23094I2353J-215D01*
G03X258686I2363J0D01*
G03X258676Y-22878I-2363J1D01*
G02X259074Y-22442I398J37D01*
G01X266540D01*
G02X266938Y-22878I0J-400D01*
G03X266928Y-23094I2353J-215D01*
G03X269291Y-25457I2363J0D01*
G03X271598Y-23609I0J2363D01*
G02X272271Y-23413I390J-87D01*
G01X273248Y-24390D01*
G03X273467Y-24587I1949J1950D01*
G02X273318Y-25286I-251J-311D01*
G03X271259Y-27953I698J-2667D01*
G03X271348Y-28647I2757J0D01*
G01X271377Y-28758D01*
X269426Y-30709D01*
X268011D01*
G03X265748Y-29527I-2263J-1575D01*
G03X264279Y-29951I0J-2756D01*
G02X263740Y-29843I-213J339D01*
G03X261811Y-28846I-1929J-1366D01*
G03X259448Y-31209I0J-2363D01*
G03X261686Y-33569I2363J0D01*
G02X261948Y-34251I-21J-399D01*
G01X259123Y-37076D01*
G03X258661Y-38189I1113J-1114D01*
G01Y-41338D01*
X258268D01*
G03Y-46851I0J-2757D01*
G01X258661D01*
Y-53678D01*
X258406Y-53934D01*
G02X257730Y-53723I-283J283D01*
G03X255719Y-51807I-2324J-426D01*
G03X253386Y-49818I-2333J-374D01*
G03X251023Y-52181I0J-2363D01*
G03X251734Y-53871I2363J0D01*
G02X251737Y-54441I-279J-286D01*
G03X251039Y-56118I1665J-1677D01*
G03X253402Y-58481I2363J0D01*
G03X254864Y-57974I0J2363D01*
G02X255512Y-58288I248J-314D01*
G01Y-68504D01*
G03X255973Y-69617I1575J0D01*
G01X257480Y-71125D01*
Y-72251D01*
G03X256708Y-73685I1567J-1769D01*
G01X256698Y-73752D01*
X255186Y-75265D01*
G03X254724Y-76378I1113J-1114D01*
G01Y-77373D01*
G02X254170Y-77742I-400J0D01*
G03X253256Y-77558I-914J-2179D01*
G03X250900Y-79736I0J-2363D01*
G01X250886Y-79920D01*
X250354D01*
X243681Y-73248D01*
G03X241732Y-72440I-1949J-1949D01*
G01X234646D01*
G03X232697Y-73248I0J-2756D01*
G01X229547Y-76398D01*
G03X229252Y-76746I1948J-1950D01*
G02X228703Y-76846I-325J232D01*
G03X227165Y-76377I-1537J-2288D01*
G03X224409Y-79134I0J-2757D01*
G03X225522Y-81348I2757J0D01*
G02X225567Y-81952I-238J-321D01*
G01X224322Y-83196D01*
G03X223515Y-85146I1949J-1949D01*
G01Y-88547D01*
X221385Y-90677D01*
G03X220602Y-92267I1949J-1949D01*
G02X219922Y-92498I-397J52D01*
G01X214893Y-87469D01*
G03X213780Y-87008I-1114J-1113D01*
G01X211811D01*
Y-82803D01*
G03X212177Y-81862I-1968J1308D01*
G03X212469Y-81797I-369J2334D01*
G03X214567Y-83072I2098J1088D01*
G03X216930Y-80709I0J2363D01*
G03X216225Y-79025I-2363J0D01*
G02Y-78455I281J285D01*
G03X216930Y-76772I-1658J1683D01*
G03X214567Y-74409I-2363J0D01*
G03X212883Y-75113I0J-2363D01*
G02X212313I-285J281D01*
G03X211811Y-74725I-1683J-1659D01*
G01Y-31109D01*
G02X212210Y-30709I400J0D01*
G03Y-25983I-6J2363D01*
G02X211811Y-25583I1J400D01*
G01Y-7876D01*
G37*
G36*
G01X275319Y-79528D02*
X275776D01*
G02X276176Y-79927I0J-400D01*
G03X278100Y-82243I2363J6D01*
G02X278300Y-82927I-74J-393D01*
G03X277558Y-84646I1622J-1719D01*
G03X278214Y-86279I2363J0D01*
G02Y-86556I-145J-138D01*
G03X277558Y-88189I1707J-1633D01*
G03X277581Y-88520I2363J-1D01*
G02X277185Y-88976I-396J-56D01*
G01X276378D01*
G03X275265Y-89438I0J-1575D01*
G01X274477Y-90225D01*
G03X274125Y-90763I1113J-1114D01*
G02X273449Y-90877I-372J146D01*
G03X272840Y-90370I-1795J-1537D01*
G02X272715Y-89791I201J346D01*
G03X273229Y-88189I-2243J1603D01*
G03X267716I-2757J0D01*
G03X269386Y-90722I2757J0D01*
G02X269579Y-91281I-158J-368D01*
G03X269291Y-92413I2074J-1132D01*
G03X271654Y-94776I2363J0D01*
G03X273332Y-94077I0J2363D01*
G02X274016Y-94359I284J-282D01*
G01Y-102497D01*
X273363Y-103150D01*
X271912D01*
X268830Y-100068D01*
G03X267717Y-99606I-1114J-1113D01*
G01X253408D01*
X247964Y-94162D01*
G03X246850Y-93701I-1114J-1113D01*
G01X240952D01*
G02X240723Y-92973I0J400D01*
G03X241733Y-91035I-1353J1937D01*
G03X239370Y-88672I-2363J0D01*
G03X239009Y-88700I1J-2363D01*
G02X238594Y-88117I-61J395D01*
G03X238871Y-87008I-2087J1109D01*
G03X236508Y-84645I-2363J0D01*
G03X235385Y-84929I0J-2363D01*
G03X235039Y-84648I-1657J-1685D01*
G01Y-82148D01*
X236106Y-81082D01*
X236240Y-81162D01*
G03X237453Y-81497I1213J2028D01*
G03X239085Y-80842I0J2363D01*
G02X239645Y-80848I277J-289D01*
G01X246918Y-88121D01*
G03X248031Y-88583I1114J1113D01*
G01X248419D01*
X248426Y-88775D01*
G03X253149I2361J86D01*
G01X253156Y-88583D01*
X254987D01*
G02X255206Y-89318I0J-400D01*
G03X253956Y-91626I1507J-2308D01*
G03X259469I2757J0D01*
G03X258016Y-89197I-2757J0D01*
G02X258059Y-88472I189J352D01*
G03X258594Y-88121I-579J1465D01*
G01X261350Y-85365D01*
G03X261811Y-84252I-1113J1114D01*
G01Y-83071D01*
X264173D01*
G03X265287Y-82609I0J1575D01*
G01X265580Y-82316D01*
X265721Y-82446D01*
G03X267323Y-83072I1602J1737D01*
G03X269686Y-80709I0J2363D01*
G03X269506Y-79804I-2363J0D01*
G01X269491Y-79767D01*
Y-79528D01*
X269949D01*
X269978Y-79536D01*
G03X270174Y-79587I690J2260D01*
G02X270327Y-79826I-42J-196D01*
G03X270271Y-80339I2307J-513D01*
G03X274997I2363J0D01*
G03X274941Y-79826I-2363J0D01*
G02X275094Y-79587I195J43D01*
G03X275290Y-79536I-494J2311D01*
G01X275319Y-79528D01*
G37*
G36*
G01X278999Y-25591D02*
X283206D01*
X284252Y-26637D01*
Y-30450D01*
X278085Y-36617D01*
X277948Y-36524D01*
G03X276618Y-36113I-1331J-1953D01*
G03X274256Y-38422I0J-2363D01*
G03X272287Y-40752I394J-2330D01*
G03X272589Y-41907I2363J0D01*
G01X272663Y-42040D01*
X266603Y-48099D01*
G03X266142Y-49213I1113J-1114D01*
G01Y-57086D01*
G03X263385Y-59843I0J-2757D01*
G03X263754Y-61220I2757J0D01*
G03X263385Y-62598I2387J-1378D01*
G03X263651Y-63780I2757J0D01*
G03X263385Y-64961I2491J-1181D01*
G03X263754Y-66339I2757J0D01*
G03X263385Y-67717I2387J-1378D01*
G03X266142Y-70473I2757J0D01*
G01Y-77300D01*
X263521Y-79921D01*
X260889D01*
X257936Y-76969D01*
X258569Y-76336D01*
X258669Y-76352D01*
G03X259047Y-76383I377J2333D01*
G03X261410Y-74020I0J2363D01*
G03X260630Y-72265I-2363J0D01*
G01Y-70472D01*
G03X260169Y-69359I-1575J0D01*
G01X258661Y-67852D01*
Y-58133D01*
X261350Y-55444D01*
G03X261811Y-54331I-1113J1114D01*
G01Y-38841D01*
X265614Y-35038D01*
X265699Y-35040D01*
G03X265748Y-35040I47J2756D01*
G03X268011Y-33858I0J2757D01*
G01X270079D01*
G03X271192Y-33397I0J1575D01*
G01X273881Y-30707D01*
X273967Y-30709D01*
G03X274016Y-30709I47J2756D01*
G03X276772Y-27953I0J2757D01*
G03X276772Y-27904I-2757J3D01*
G01X276770Y-27819D01*
X278999Y-25591D01*
G37*
G36*
G01X318151Y-7876D02*
X334815D01*
G02X335187Y-8425I0J-400D01*
G03X334593Y-11496I7648J-3071D01*
G03X342835Y-19738I8242J0D01*
G03X345906Y-19144I0J8242D01*
G02X346455Y-19515I149J-371D01*
G01Y-59971D01*
G02X345714Y-60181I-400J0D01*
G03X343701Y-59054I-2013J-1236D01*
G03Y-63780I0J-2363D01*
G03X345714Y-62654I0J2363D01*
G02X346455Y-62863I341J-209D01*
G01Y-85433D01*
X346034D01*
G02X345655Y-84905I0J400D01*
G03X345800Y-84024I-2612J882D01*
G03X340287I-2757J0D01*
G03X340431Y-84905I2757J0D01*
G02X340052Y-85433I-379J-128D01*
G01X323622D01*
G03X322509Y-85894I0J-1575D01*
G01X320540Y-87863D01*
G03X320079Y-88976I1113J-1114D01*
G01Y-91474D01*
X319820Y-91732D01*
X318763D01*
X316074Y-89044D01*
G03X314961Y-88583I-1114J-1113D01*
G01X311531D01*
X311517Y-88398D01*
G03X309161Y-86220I-2356J-184D01*
G03X308500Y-86314I0J-2363D01*
G03X308200Y-85894I-1413J-694D01*
G01X305801Y-83496D01*
X305800Y-83415D01*
G03X303486Y-81102I-2363J-49D01*
G01X303406Y-81100D01*
X301113Y-78808D01*
G03X300000Y-78346I-1114J-1113D01*
G01X299639D01*
G02X299356Y-77664I0J400D01*
G01X302176Y-74843D01*
X305107D01*
X313538Y-83274D01*
G03X315237Y-83977I1699J1699D01*
G01X319291D01*
G03X321694Y-81575I0J2402D01*
G03X320656Y-79598I-2402J0D01*
G03X320906Y-78530I-2152J1068D01*
G03X320838Y-77963I-2402J-1D01*
G03X322454Y-75693I-787J2270D01*
G03X320896Y-73444I-2402J0D01*
G03X320906Y-73228I-2392J217D01*
G03X320203Y-71530I-2403J0D01*
G01X313290Y-64617D01*
G02X313356Y-63998I283J283D01*
G03X314438Y-62012I-1281J1986D01*
G03X312075Y-59649I-2363J0D01*
G03X310089Y-60731I0J-2363D01*
G02X309470Y-60797I-336J217D01*
G01X308951Y-60278D01*
G03X307252Y-59574I-1699J-1699D01*
G01X303543D01*
G03X303220Y-59596I-1J-2402D01*
G01X303207Y-59598D01*
X291929D01*
G03X289527Y-62000I0J-2402D01*
G03X290219Y-63687I2402J0D01*
G02Y-64250I-285J-281D01*
G03X289527Y-65937I1710J-1687D01*
G03X291929Y-68339I2402J0D01*
G01X292356D01*
G02X292756Y-68751I0J-400D01*
G03X292755Y-68819I2402J-62D01*
G03X293736Y-70756I2403J0D01*
G03X293569Y-71178I2103J-1078D01*
G03X293500Y-71176I-75J-2362D01*
G03X291137Y-73539I0J-2363D01*
G01Y-73743D01*
X288906D01*
G03X286644Y-75334I0J-2403D01*
G02X286004Y-75500I-376J135D01*
G03X284445Y-74913I-1559J-1775D01*
G03X282761Y-75617I0J-2363D01*
G02X282191I-285J281D01*
G03X280508Y-74913I-1683J-1658D01*
G03X278322Y-76378I0J-2363D01*
G01X276788D01*
G03X274602Y-74913I-2186J-898D01*
G03X272919Y-75617I0J-2363D01*
G02X272349I-285J281D01*
G03X270665Y-74913I-1683J-1658D01*
G03X269832Y-75064I0J-2363D01*
G02X269291Y-74690I-141J374D01*
G01Y-70473D01*
G03X272048Y-67717I0J2757D01*
G03X271679Y-66339I-2757J0D01*
G03X272048Y-64961I-2387J1378D01*
G03X271782Y-63780I-2757J0D01*
G03X272048Y-62598I-2491J1181D01*
G03X269291Y-59842I-2757J0D01*
G01Y-49865D01*
X286940Y-32216D01*
G03X287402Y-31102I-1113J1114D01*
G01Y-27566D01*
G02X287801Y-27166I400J0D01*
G03X290552Y-24409I-6J2757D01*
G03X289744Y-22460I-2756J0D01*
G01X287776Y-20492D01*
G03X285827Y-19684I-1949J-1949D01*
G01X276339D01*
X275055Y-18400D01*
G02X275337Y-17717I283J283D01*
G01X277665D01*
G03X279615Y-16910I0J2756D01*
G01X282264Y-14260D01*
G03X283072Y-12311I-1949J1949D01*
G01Y-11418D01*
X287371D01*
G02X287758Y-11917I0J-400D01*
G03X287684Y-12504I2289J-587D01*
G03X288184Y-13957I2363J0D01*
G02X288145Y-14493I-315J-246D01*
G03X287415Y-16201I1633J-1708D01*
G03X292141I2363J0D01*
G03X291641Y-14747I-2363J0D01*
G02X291680Y-14212I315J246D01*
G03X292410Y-12504I-1633J1708D01*
G03X292336Y-11917I-2363J0D01*
G02X292724Y-11418I388J99D01*
G01X294528D01*
X298051Y-14941D01*
G03X298641Y-15390I1949J1949D01*
G03X298344Y-16535I2067J-1145D01*
G03X303070I2363J0D01*
G03X302467Y-14958I-2363J0D01*
G02X302482Y-14409I298J267D01*
G01X304179Y-12711D01*
X314491D01*
X314507Y-12893D01*
G03X318429Y-16473I3922J358D01*
G03X322367Y-12535I0J3938D01*
G03X318471Y-8598I-3938J0D01*
G01X318389Y-8597D01*
X318009Y-8217D01*
G02X318151Y-7876I141J141D01*
G37*
G36*
G01X280161Y-81640D02*
G03X280561Y-81144I-1622J1718D01*
G02X281274Y-81202I342J-207D01*
G03X283465Y-82678I2191J887D01*
G03X285743Y-80941I0J2363D01*
G02X286411Y-80764I386J-106D01*
G01X286682Y-81035D01*
G03X287795Y-81496I1114J1113D01*
G01X289312D01*
G02X289709Y-81945I0J-400D01*
G03X289688Y-82283I2736J-339D01*
G03X295202I2757J0D01*
G03X295181Y-81945I-2757J0D01*
G02X295578Y-81496I397J49D01*
G01X299348D01*
X301084Y-83232D01*
X301078Y-83322D01*
G03X301074Y-83465I2359J-143D01*
G03X303437Y-85828I2363J0D01*
G03X303580Y-85823I0J2363D01*
G01X303669Y-85818D01*
X305512Y-87660D01*
Y-91474D01*
X304466Y-92520D01*
X301440D01*
X298357Y-89438D01*
G03X297244Y-88976I-1114J-1113D01*
G01X296833D01*
G02X296437Y-88527I0J400D01*
G03X296457Y-88189I-2736J339D01*
G03X290944I-2757J0D01*
G03X290965Y-88527I2757J0D01*
G02X290568Y-88976I-397J-49D01*
G01X282657D01*
G02X282261Y-88520I0J400D01*
G03X282284Y-88189I-2340J331D01*
G03X281629Y-86556I-2363J0D01*
G02Y-86279I145J138D01*
G03X282284Y-84646I-1707J1633D01*
G03X280361Y-82324I-2363J0D01*
G02X280161Y-81640I74J393D01*
G37*
%LPC*%
G75*
G36*
G01X162992Y-15355D02*
G02Y-10629I0J2363D01*
G01X168898D01*
G02X170569Y-11321I0J-2363D01*
G01X174112Y-14865D01*
G02X174804Y-16535I-1671J-1671D01*
G01Y-19897D01*
G02X175129Y-20146I-788J-1363D01*
G01X177607Y-22624D01*
X177747Y-22506D01*
G02X179528Y-21854I1780J-2105D01*
G02X182284Y-24610I0J-2757D01*
G02X181402Y-26631I-2756J0D01*
G02X181496Y-27165I-1481J-535D01*
G01Y-37930D01*
X185202Y-41636D01*
X185320Y-41595D01*
G02X186220Y-41444I900J-2606D01*
G02X188313Y-42406I0J-2756D01*
G03X188597Y-42426I152J130D01*
G02X190157Y-41838I1561J-1775D01*
G02X192520Y-44201I0J-2363D01*
G02X190835Y-46465I-2363J0D01*
G03X190630Y-47087I115J-383D01*
G02X190945Y-48031I-1260J-944D01*
G01Y-52756D01*
G02X190483Y-53869I-1575J0D01*
G01X189696Y-54657D01*
G02X189516Y-54812I-1114J1113D01*
G03X189405Y-55331I237J-322D01*
G02X189765Y-56693I-2397J-1362D01*
G02X187008Y-59450I-2757J0D01*
G02X185486Y-58992I0J2757D01*
G02X183965Y-59450I-1521J2299D01*
G02X181208Y-56693I0J2757D01*
G02X181406Y-55666I2757J0D01*
G03X181049Y-55117I-371J149D01*
G02X180102Y-54759I54J1574D01*
G02X178740Y-55119I-1362J2397D01*
G02X176249Y-53543I0J2757D01*
G01X174274D01*
X170405Y-57413D01*
G02X169291Y-57874I-1114J1113D01*
G01X166535D01*
G02X165494Y-57480I0J1575D01*
G01X143566D01*
X130641Y-70405D01*
G02X129528Y-70866I-1114J1113D01*
G01X126125D01*
G03X125929Y-71615I0J-400D01*
G02X127331Y-74016I-1354J-2401D01*
G02X121818I-2757J0D01*
G02X123221Y-71615I2757J0D01*
G03X123024Y-70866I-197J348D01*
G01X112935D01*
G03X113030Y-71653I101J-387D01*
G02X115355Y-74016I-37J-2363D01*
G02X110629I-2363J0D01*
G02X111047Y-72674I2362J0D01*
G03X110718Y-72047I-329J227D01*
G01X102770D01*
G03X102426Y-72650I0J-400D01*
G02X102808Y-74051I-2374J-1401D01*
G02X101475Y-76411I-2756J0D01*
G03X101480Y-77100I207J-343D01*
G02X102847Y-79480I-1390J-2381D01*
G02X102843Y-79641I-2757J1D01*
G02X103619Y-80026I-823J-2631D01*
G03X104224Y-79845I232J326D01*
G02X106429Y-78333I2204J-852D01*
G02Y-83059I0J-2363D01*
G02X105263Y-82752I0J2363D01*
G03X104680Y-82995I-197J-348D01*
G02X102020Y-85028I-2660J723D01*
G02X99263Y-82272I0J2757D01*
G02X99268Y-82111I2757J-1D01*
G02X97334Y-79480I823J2631D01*
G02X98667Y-77120I2756J0D01*
G03X98661Y-76432I-207J343D01*
G02X97294Y-74051I1390J2381D01*
G02X98079Y-72125I2757J0D01*
G03X98076Y-71563I-286J280D01*
G01X95737Y-69224D01*
G02X95276Y-68110I1113J1114D01*
G01Y-61676D01*
X94230Y-60630D01*
X90925D01*
G03X90529Y-61086I0J-400D01*
G02X90552Y-61417I-2340J-331D01*
G02X88194Y-63780I-2363J0D01*
G03X87795Y-64180I1J-400D01*
G01Y-76378D01*
G02X87334Y-77491I-1575J0D01*
G01X85759Y-79066D01*
G02X84646Y-79528I-1114J1113D01*
G01X74804D01*
G03X74420Y-80041I0J-400D01*
G02X74517Y-80709I-2267J-668D01*
G02X69791I-2363J0D01*
G02X70781Y-78785I2363J0D01*
G03X70832Y-78177I-232J326D01*
G01X65545Y-72890D01*
G02X63673Y-73623I-1872J2024D01*
G02X61356Y-72359I0J2757D01*
G03X60674Y-72374I-336J-217D01*
G02X54724Y-75788I-5950J3476D01*
G02X47860Y-69497I0J6891D01*
G03X47202Y-69228I-398J-35D01*
G02X46217Y-69728I-1533J1798D01*
G01X46063Y-69765D01*
Y-71260D01*
G02X45669Y-72302I-1575J0D01*
G01Y-76690D01*
G03X46418Y-76886I400J0D01*
G02X48819Y-75483I2401J-1354D01*
G02X51519Y-77683I0J-2757D01*
G03X51981Y-77995I392J81D01*
G02X52469Y-77952I487J-2713D01*
G02X55219Y-80522I0J-2757D01*
G01X55231Y-80709D01*
X60228D01*
X60243Y-80524D01*
G02X62598Y-78346I2356J-184D01*
G02X64961Y-80709I0J-2363D01*
G02X64336Y-82310I-2363J0D01*
G01X64206Y-82452D01*
X66074Y-84320D01*
G02X66535Y-85433I-1113J-1114D01*
G01Y-89764D01*
G02X66074Y-90877I-1575J0D01*
G01X65680Y-91271D01*
G02X64567Y-91732I-1114J1113D01*
G01X46369D01*
G03X46040Y-92359I0J-400D01*
G02X46457Y-93701I-1945J-1341D01*
G02X45771Y-95366I-2363J0D01*
G03X45737Y-95892I284J-282D01*
G02X46063Y-96850I-1249J-959D01*
G01Y-103150D01*
G02X45602Y-104263I-1575J0D01*
G01X44814Y-105050D01*
G02X43701Y-105512I-1114J1113D01*
G01X40157D01*
G02X39044Y-105050I0J1575D01*
G01X36682Y-102688D01*
G02X36220Y-101575I1113J1114D01*
G01Y-100652D01*
X35964Y-100396D01*
X35883Y-100394D01*
G02X33233Y-98195I50J2756D01*
G03X32771Y-97883I-392J-81D01*
G02X32283Y-97926I-487J2713D01*
G02Y-92413I0J2757D01*
G02X32622Y-92433I0J-2757D01*
G03X33071Y-92037I49J397D01*
G01Y-87008D01*
G02X33532Y-85894I1575J0D01*
G01X37008Y-82419D01*
Y-75180D01*
G03X36409Y-74833I-400J0D01*
G02X35039Y-75198I-1370J2392D01*
G02X32283Y-72441I0J2757D01*
G02X33252Y-70342I2756J0D01*
G03X33276Y-69755I-259J305D01*
G01X31957Y-68436D01*
G02X31496Y-67323I1113J1114D01*
G01Y-54331D01*
G02X31957Y-53217I1575J0D01*
G01X35433Y-49741D01*
Y-49504D01*
X35431Y-49491D01*
G02X35413Y-49193I2344J298D01*
G02X35431Y-48895I2363J0D01*
G01X35433Y-48882D01*
Y-33071D01*
G02X35894Y-31957I1575J0D01*
G01X38650Y-29202D01*
G02X39764Y-28740I1114J-1113D01*
G01X47631D01*
G03X47881Y-28028I0J400D01*
G02X46850Y-25878I1726J2150D01*
G02X49204Y-23151I2757J0D01*
G03X49469Y-22520I-59J396D01*
G02X48228Y-18701I5256J3819D01*
G02X54724Y-25198I6497J0D01*
G02X52826Y-24914I0J6497D01*
G03X52316Y-25370I-117J-382D01*
G02X52363Y-25878I-2709J-508D01*
G02X51331Y-28028I-2757J0D01*
G03X51581Y-28740I250J-312D01*
G01X56922D01*
G02X56980Y-28739I61J-2362D01*
G02X59343Y-31102I0J-2363D01*
G02X59055Y-32233I-2363J0D01*
G01Y-35039D01*
G02X58594Y-36153I-1575J0D01*
G01X58051Y-36696D01*
G03X58058Y-37269I283J-283D01*
G02X58792Y-38980I-1628J-1712D01*
G02X56429Y-41343I-2363J0D01*
G02X54066Y-38982I0J2363D01*
G03X53666Y-38583I-400J0D01*
G01X49613D01*
G02X47122Y-40158I-2491J1181D01*
G02X46890Y-40148I1J2757D01*
G03X46457Y-40547I-33J-399D01*
G01Y-51446D01*
G03X47019Y-51811I400J0D01*
G02X48116Y-51574I1119J-2519D01*
G03X48496Y-51060I-3J400D01*
G02X48228Y-49213I6229J1847D01*
G02X54724Y-55709I6497J0D01*
G02X51395Y-54792I0J6497D01*
G03X50804Y-55033I-205J-343D01*
G02X48138Y-57087I-2666J702D01*
G02X46402Y-56472I0J2757D01*
G01X46262Y-56359D01*
X44048Y-58573D01*
X44064Y-58674D01*
G02X44095Y-59055I-2332J-382D01*
G02X41732Y-61418I-2363J0D01*
G01Y-62733D01*
X44418Y-65419D01*
X44549Y-65349D01*
G02X45669Y-65066I1121J-2080D01*
G02X47692Y-66207I0J-2363D01*
G03X48401Y-66159I342J207D01*
G02X54724Y-62007I6323J-2738D01*
G02X61583Y-68239I0J-6891D01*
G03X62196Y-68539I398J38D01*
G02X63673Y-68109I1477J-2328D01*
G02X64448Y-68220I0J-2757D01*
G03X64961Y-67837I113J384D01*
G01Y-54724D01*
G02X66535Y-53150I1575J0D01*
G01X81237D01*
X89831Y-44556D01*
G02X90945Y-44094I1114J-1113D01*
G01X92048D01*
G03X92448Y-43695I0J400D01*
G02X97961I2757J-6D01*
G03X98361Y-44094I400J1D01*
G01X108436D01*
G02X112304I1934J-1965D01*
G01X116498D01*
X116505Y-43901D01*
G02X119260Y-41239I2755J-95D01*
G02X119426Y-41244I-2J-2757D01*
G01X119515Y-41250D01*
X131957Y-28808D01*
G02X133071Y-28346I1114J-1113D01*
G01X138042D01*
G03X138441Y-27916I0J400D01*
G02X138432Y-27705I2748J213D01*
G02X138489Y-27146I2757J1D01*
G03X138109Y-26665I-392J81D01*
G02X135432Y-23909I79J2756D01*
G02X135767Y-22592I2757J0D01*
G02X135460Y-21327I2449J1265D01*
G02X140973I2757J0D01*
G02X140638Y-22644I-2757J0D01*
G02X140946Y-23909I-2449J-1265D01*
G02X140889Y-24468I-2757J-1D01*
G03X141269Y-24949I392J-81D01*
G02X143946Y-27705I-79J-2756D01*
G02X143937Y-27916I-2757J2D01*
G03X144336Y-28346I399J-31D01*
G01X145074D01*
X145107Y-28187D01*
G02X150507I2700J-553D01*
G01X150541Y-28346D01*
X150922D01*
X159123Y-20146D01*
G02X160236Y-19685I1114J-1113D01*
G01X163491D01*
G03X163875Y-19172I0J400D01*
G02X163779Y-18504I2267J668D01*
G02X168505I2363J0D01*
G02X168408Y-19172I-2363J0D01*
G03X168792Y-19685I384J-113D01*
G01X170078D01*
Y-17514D01*
X167919Y-15355D01*
X162992D01*
G37*
G36*
G01X147900Y-75460D02*
G02X143109Y-68898I2100J6563D01*
G02X156891I6891J0D01*
G02X151447Y-75635I-6891J0D01*
G03X151245Y-76305I84J-391D01*
G02X151918Y-77957I-1691J-1652D01*
G02X151850Y-78520I-2363J0D01*
G03X152385Y-78987I388J-95D01*
G02X153398Y-78794I1012J-2565D01*
G02X150641Y-81551I0J-2757D01*
G02X150772Y-80712I2757J0D01*
G03X150270Y-80209I-381J122D01*
G02X149555Y-80320I-715J2252D01*
G02X147192Y-77957I0J2363D01*
G02X148035Y-76148I2363J0D01*
G03X147900Y-75460I-257J306D01*
G37*
G36*
G01X63831Y-30243D02*
G02X62873Y-28154I1799J2089D01*
G02X63467Y-26444I2757J0D01*
G02X63318Y-25551I2608J893D01*
G02X68831I2757J0D01*
G02X68238Y-27260I-2757J0D01*
G02X68387Y-28154I-2608J-893D01*
G02X67380Y-30283I-2756J0D01*
G03X67374Y-30895I254J-309D01*
G02X68331Y-32984I-1799J-2089D01*
G02X67070Y-35300I-2757J0D01*
G03X67081Y-35979I217J-336D01*
G02X68418Y-38343I-1420J-2363D01*
G02X62905I-2757J0D01*
G02X64167Y-36026I2757J0D01*
G03X64156Y-35348I-217J336D01*
G02X62818Y-32984I1420J2363D01*
G02X63824Y-30855I2756J0D01*
G03X63831Y-30243I-254J309D01*
G37*
G36*
G01X206727Y-46383D02*
G02X207087Y-47638I-2002J-1255D01*
G02X202361I-2363J0D01*
G02X202722Y-46383I2363J0D01*
G02X201968Y-44488I2003J1895D01*
G02X207481I2757J0D01*
G02X206727Y-46383I-2757J0D01*
G37*
G36*
G01Y-72367D02*
G02X207087Y-73622I-2002J-1255D01*
G02X202361I-2363J0D01*
G02X202722Y-72367I2363J0D01*
G02X201968Y-70472I2003J1895D01*
G02X207481I2757J0D01*
G02X206727Y-72367I-2757J0D01*
G37*
G36*
G01X25343Y-76684D02*
G03Y-76084I-264J300D01*
G02X24409Y-74016I1823J2068D01*
G02X29922I2757J0D01*
G02X28988Y-76084I-2757J0D01*
G03Y-76684I264J-300D01*
G02X29922Y-78752I-1823J-2068D01*
G02X28787Y-80981I-2757J0D01*
G03Y-81629I235J-324D01*
G02X29922Y-83858I-1621J-2230D01*
G02X24409I-2757J0D01*
G02X25544Y-81629I2757J0D01*
G03Y-80981I-235J324D01*
G02X24409Y-78752I1621J2230D01*
G02X25343Y-76684I2757J0D01*
G37*
G36*
G01X18644Y-76677D02*
G03Y-76079I-265J299D01*
G02X17716Y-74016I1829J2063D01*
G02X23229I2757J0D01*
G02X22301Y-76079I-2757J0D01*
G03Y-76677I265J-299D01*
G02X23229Y-78740I-1829J-2063D01*
G02X22087Y-80975I-2757J0D01*
G03Y-81624I234J-324D01*
G02X23229Y-83858I-1614J-2235D01*
G02X17716I-2757J0D01*
G02X18858Y-81624I2757J0D01*
G03Y-80975I-234J324D01*
G02X17716Y-78740I1614J2235D01*
G02X18644Y-76677I2757J0D01*
G37*
G36*
G01X11957Y-76684D02*
G03Y-76084I-264J300D01*
G02X11023Y-74016I1823J2068D01*
G02X16536I2757J0D01*
G02X15602Y-76084I-2757J0D01*
G03Y-76684I264J-300D01*
G02X16536Y-78752I-1823J-2068D01*
G02X15401Y-80981I-2757J0D01*
G03Y-81629I235J-324D01*
G02X16536Y-83858I-1621J-2230D01*
G02X11023I-2757J0D01*
G02X12158Y-81629I2757J0D01*
G03Y-80981I-235J324D01*
G02X11023Y-78752I1621J2230D01*
G02X11957Y-76684I2757J0D01*
G37*
G36*
G01X21152Y-96730D02*
G02X21154Y-96850I-2754J-123D01*
G02X15641I-2757J0D01*
G02X18112Y-94109I2757J0D01*
G02X18109Y-93988I2754J123D01*
G02X23623I2757J0D01*
G02X21152Y-96730I-2757J0D01*
G37*
G36*
G01X95243Y-95472D02*
G02X95276Y-95472I45J-2362D01*
G02Y-100198I0J-2363D01*
G02X92946Y-98229I0J2363D01*
G02X92913Y-98229I-45J2362D01*
G02Y-93503I0J2363D01*
G02X95243Y-95472I0J-2363D01*
G37*
G36*
G01X108358Y-105291D02*
G02X108007Y-103945I2406J1346D01*
G02X108374Y-102570I2757J0D01*
G02X107968Y-101130I2351J1441D01*
G02X113481I2757J0D01*
G02X113114Y-102504I-2757J0D01*
G02X113520Y-103945I-2351J-1441D01*
G02X113130Y-105359I-2757J0D01*
G02X113481Y-106705I-2406J-1346D01*
G02X107968I-2757J0D01*
G02X108358Y-105291I2757J0D01*
G37*
G36*
G01X80241Y-105425D02*
G02X79787Y-103909I2302J1515D01*
G02X80141Y-102557I2757J0D01*
G02X79787Y-101205I2402J1352D01*
G02X85300I2757J0D01*
G02X84946Y-102557I-2757J0D01*
G02X85300Y-103909I-2402J-1352D01*
G02X84968Y-105221I-2757J0D01*
G02X85422Y-106736I-2302J-1515D01*
G02X79909I-2757J0D01*
G02X80241Y-105425I2757J0D01*
G37*
G36*
G01X223014Y-108833D02*
G02X221547Y-109343I-1467J1852D01*
G02X219184Y-106980I0J2363D01*
G02X219443Y-105906I2363J0D01*
G02X219184Y-104831I2104J1075D01*
G02X221547Y-102468I2363J0D01*
G02X222385Y-102621I1J-2363D01*
G02X224016Y-101968I1631J-1710D01*
G02X226379Y-104331I0J-2363D01*
G02X226062Y-105512I-2363J0D01*
G02X226379Y-106693I-2046J-1181D01*
G02X224016Y-109056I-2363J0D01*
G02X223014Y-108833I0J2363D01*
G37*
G36*
G01X284072Y-101693D02*
G03X284051Y-101424I-157J123D01*
G02X283176Y-99409I1882J2015D01*
G02X285933Y-96653I2757J0D01*
G02X288075Y-97674I0J-2757D01*
G03X288696I311J252D01*
G02X290839Y-96653I2142J-1736D01*
G02X293595Y-99409I0J-2757D01*
G02X292224Y-101793I-2757J0D01*
G03X292147Y-102058I100J-173D01*
G02X292414Y-103150I-2096J-1092D01*
G02X291709Y-104833I-2363J0D01*
G03Y-105403I281J-285D01*
G02X292414Y-107087I-1658J-1683D01*
G02X287688I-2363J0D01*
G02X288393Y-105403I2363J0D01*
G03Y-104833I-281J285D01*
G02X288290Y-104725I1659J1683D01*
G03X287694I-298J-267D01*
G02X285933Y-105513I-1761J1576D01*
G02X283570Y-103150I0J2363D01*
G02X284072Y-101693I2363J0D01*
G37*
G36*
G01X203282Y-96938D02*
G02X202361Y-94882I1836J2056D01*
G02X207875I2757J0D01*
G02X206954Y-96938I-2756J0D01*
G02X207481Y-98425I-1837J-1487D01*
G02X206009Y-100614I-2363J0D01*
G03Y-101355I151J-370D01*
G02X207481Y-103543I-891J-2189D01*
G02X202755I-2363J0D01*
G02X204227Y-101355I2363J0D01*
G03Y-100614I-151J370D01*
G02X202755Y-98425I891J2189D01*
G02X203282Y-96938I2363J0D01*
G37*
G36*
G01X244447Y-66866D02*
G03X245026Y-66831I273J292D01*
G02X247067Y-65856I2104J-1781D01*
G02X249606Y-64172I2539J-1073D01*
G02X252363Y-66929I0J-2757D01*
G02X249669Y-69685I-2757J0D01*
G02X247130Y-71369I-2539J1073D01*
G02X245010Y-70374I0J2756D01*
G03X244432Y-70335I-308J-256D01*
G02X242835Y-70957I-1597J1742D01*
G02Y-66231I0J2363D01*
G02X244447Y-66866I0J-2363D01*
G37*
G36*
G01X219577Y-55459D02*
G02X219291Y-54331I2076J1128D01*
G02X219359Y-53765I2363J0D01*
G02X218397Y-51862I1401J1903D01*
G02X223123I2363J0D01*
G02X223054Y-52428I-2363J0D01*
G02X224017Y-54331I-1401J-1903D01*
G02X223730Y-55459I-2363J0D01*
G02X224017Y-56587I-2076J-1128D01*
G02X219291I-2363J0D01*
G02X219577Y-55459I2363J0D01*
G37*
G36*
G01X242006Y-49022D02*
G03X241357Y-48886I-371J-151D01*
G02X239711Y-49554I-1646J1695D01*
G02Y-44828I0J2363D01*
G02X241899Y-46299I0J-2363D01*
G03X242548Y-46435I371J151D01*
G02X244194Y-45768I1646J-1695D01*
G02Y-50494I0J-2363D01*
G02X242006Y-49022I0J2363D01*
G37*
G36*
G01X279607Y-61685D02*
G03X279158Y-61386I-388J-96D01*
G02X278740Y-61418I-418J2725D01*
G02Y-55905I0J2757D01*
G02X281416Y-58000I0J-2757D01*
G03X281865Y-58299I388J96D01*
G02X282283Y-58267I418J-2725D01*
G02X285040Y-61024I0J-2757D01*
G02X284671Y-62402I-2757J0D01*
G02X285040Y-63780I-2387J-1378D01*
G02X279527I-2757J0D01*
G02X279896Y-62402I2757J0D01*
G02X279607Y-61685I2387J1378D01*
G37*
G36*
G01X339545Y-68634D02*
G02X338188Y-66496I1007J2138D01*
G02X342914I2363J0D01*
G02X341557Y-68634I-2363J0D01*
G03Y-69358I170J-362D01*
G02X342914Y-71496I-1007J-2138D01*
G02X341658Y-73583I-2363J0D01*
G03Y-74291I187J-354D01*
G02X342914Y-76378I-1107J-2087D01*
G02X338188I-2363J0D01*
G02X339444Y-74291I2363J0D01*
G03Y-73583I-187J354D01*
G02X338188Y-71496I1107J2087D01*
G02X339545Y-69358I2363J0D01*
G03Y-68634I-170J362D01*
G37*
G36*
G01X306429Y-51712D02*
G02X308567Y-50356I2138J-1007D01*
G02X310700Y-51702I0J-2363D01*
G03X311422I361J172D01*
G02X313555Y-50356I2133J-1017D01*
G02Y-55081I0J-2363D01*
G02X311422Y-53735I0J2363D01*
G03X310700I-361J-172D01*
G02X308567Y-55081I-2133J1017D01*
G02X306429Y-53725I0J2363D01*
G03X305705I-362J-170D01*
G02X303567Y-55081I-2138J1007D01*
G02Y-50356I0J2363D01*
G02X305705Y-51712I0J-2363D01*
G03X306429I362J170D01*
G37*
G36*
G01X339280Y-53769D02*
G02X337794Y-51575I877J2194D01*
G02X342520I2363J0D01*
G02X341381Y-53596I-2363J0D01*
G03X341440Y-54310I207J-342D01*
G02X342926Y-56504I-877J-2194D01*
G02X338200I-2363J0D01*
G02X339339Y-54483I2363J0D01*
G03X339280Y-53769I-207J342D01*
G37*
G36*
G01X290059Y-45131D02*
G02X289369Y-43307I2067J1824D01*
G02X294883I2757J0D01*
G02X293770Y-45520I-2757J0D01*
G03X293721Y-45788I119J-161D01*
G02X294095Y-47064I-1989J-1276D01*
G02X292728Y-49207I-2363J0D01*
G03X292757Y-49944I169J-363D01*
G02X294292Y-52157I-828J-2213D01*
G02X289566I-2363J0D01*
G02X290933Y-50015I2363J0D01*
G03X290905Y-49277I-169J363D01*
G02X289369Y-47064I828J2213D01*
G02X290051Y-45404I2363J0D01*
G03X290059Y-45131I-142J141D01*
G37*
G36*
G01X325481Y-38476D02*
G02X324409Y-36496I1291J1980D01*
G02X329135I2363J0D01*
G02X327726Y-38658I-2363J0D01*
G03X327669Y-39359I161J-366D01*
G02X328741Y-41339I-1291J-1980D01*
G02X327269Y-43527I-2363J0D01*
G03Y-44268I151J-370D01*
G02X328741Y-46457I-891J-2189D01*
G02X327491Y-48541I-2363J0D01*
G03X327548Y-49272I188J-353D01*
G02X329135Y-51504I-776J-2232D01*
G02X327838Y-53613I-2363J0D01*
G03X327841Y-54328I180J-357D01*
G02X329154Y-56445I-1049J-2117D01*
G02X327644Y-58648I-2363J0D01*
G03X327628Y-59388I144J-373D01*
G02X329040Y-61551I-950J-2163D01*
G02X324314I-2363J0D01*
G02X325824Y-59348I2363J0D01*
G03X325841Y-58608I-144J373D01*
G02X324428Y-56445I950J2163D01*
G02X325725Y-54336I2363J0D01*
G03X325722Y-53621I-180J357D01*
G02X324409Y-51504I1049J2117D01*
G02X325659Y-49419I2363J0D01*
G03X325602Y-48689I-188J353D01*
G02X324015Y-46457I776J2232D01*
G02X325487Y-44268I2363J0D01*
G03Y-43527I-151J370D01*
G02X324015Y-41339I891J2189D01*
G02X325424Y-39177I2363J0D01*
G03X325481Y-38476I-161J366D01*
G37*
G36*
G01X339660Y-33685D02*
G02X338188Y-31496I891J2189D01*
G02X342914I2363J0D01*
G02X341442Y-33685I-2363J0D01*
G03Y-34426I151J-370D01*
G02Y-38803I-891J-2189D01*
G03Y-39544I151J-370D01*
G02X342914Y-41732I-891J-2189D01*
G02X341777Y-43752I-2363J0D01*
G03Y-44437I208J-342D01*
G02X342914Y-46457I-1225J-2020D01*
G02X338188I-2363J0D01*
G02X339326Y-44437I2363J0D01*
G03Y-43752I-208J342D01*
G02X338188Y-41732I1225J2020D01*
G02X339660Y-39544I2363J0D01*
G03Y-38803I-151J370D01*
G02Y-34426I891J2189D01*
G03Y-33685I-151J370D01*
G37*
G54D23*
X318429Y-25134D03*
X312130Y-18835D03*
X324728D03*
G54D19*
X192626Y-16248D03*
X42520Y-12205D03*
X205406Y-26563D03*
X187008Y-30315D03*
X71898Y-25500D03*
X196063Y-33465D03*
X117693Y-38512D03*
X78276Y-47224D03*
X194488Y-55118D03*
X194882Y-80709D03*
X118110Y-77953D03*
X92913Y-76772D03*
X111811Y-86811D03*
X194882Y-105118D03*
X323622Y-98819D03*
X320760Y-104724D03*
X331996Y-100787D03*
X222441Y-73622D03*
X231274Y-64567D03*
X248819Y-31602D03*
X261024Y-95669D03*
X263508Y-88583D03*
X268744Y-40752D03*
X332390Y-76496D03*
X316976Y-63980D03*
X292520Y-27559D03*
G54D20*
X196063Y-21654D03*
X28846Y-20079D03*
X203937Y-38189D03*
Y-63780D03*
X162508Y-82874D03*
X231399Y-56989D03*
X304437Y-25984D03*
G54D21*
X150000Y-18701D03*
G54D22*
Y-99409D03*
X54724D03*
%LPD*%
G75*
G36*
G01X40416Y-31890D02*
X54748D01*
X54800Y-32013D01*
G03X55906Y-33207I2181J910D01*
G01Y-34387D01*
X54859Y-35433D01*
X49052D01*
G03X47122Y-34645I-1930J-1969D01*
G03X45248Y-35380I0J-2756D01*
G01X45191Y-35433D01*
X44882D01*
G03X43307Y-37008I0J-1575D01*
G01Y-54859D01*
X41460Y-56707D01*
X41394Y-56717D01*
G03X39394Y-58717I338J-2339D01*
G01X39384Y-58783D01*
X39044Y-59123D01*
G03X38583Y-60236I1113J-1114D01*
G01Y-63386D01*
G03X39044Y-64499I1575J0D01*
G01X42913Y-68369D01*
Y-70612D01*
G03X42520Y-71654I1181J-1042D01*
G01Y-82283D01*
G03X43030Y-83444I1575J0D01*
G03X42806Y-84449I2139J-1004D01*
G03X47532I2363J0D01*
G03X47527Y-84286I-2363J2D01*
G02X47926Y-83858I399J28D01*
G01X61159D01*
X63386Y-86085D01*
Y-88583D01*
X55231D01*
G02X54831Y-88183I0J400D01*
G03X50106I-2363J-6D01*
G02X49706Y-88583I-400J1D01*
G01X41902D01*
G03X41839Y-88582I-66J-2756D01*
G03X39082Y-91339I0J-2757D01*
G03X40085Y-93465I2757J0D01*
G01X40157Y-93526D01*
Y-94094D01*
G03X40619Y-95208I1575J0D01*
G01X42913Y-97503D01*
Y-102362D01*
X40810D01*
X39370Y-100922D01*
Y-100000D01*
G03X38909Y-98887I-1575J0D01*
G01X38546Y-98524D01*
X38579Y-98410D01*
G03X38690Y-97638I-2646J773D01*
G03X36387Y-94919I-2757J0D01*
G01X36220Y-94891D01*
Y-87660D01*
X39696Y-84184D01*
G03X40157Y-83071I-1113J1114D01*
G01Y-72835D01*
G03X39696Y-71721I-1575J0D01*
G01X34646Y-66670D01*
Y-54983D01*
X38093Y-51535D01*
X38157Y-51525D01*
G03X40139Y-49193I-381J2332D01*
G03X38583Y-46972I-2363J0D01*
G01Y-33723D01*
X40416Y-31890D01*
G37*
G36*
G01X160889Y-22835D02*
X173363D01*
X178346Y-27818D01*
Y-38583D01*
G03X178808Y-39696I1575J0D01*
G01X181355Y-42244D01*
G02X181305Y-42852I-283J-283D01*
G03X180314Y-44776I1373J-1924D01*
G03X182677Y-47139I2363J0D01*
G03X184462Y-46324I0J2363D01*
G03X185993Y-46948I1758J2123D01*
G01X186066Y-46954D01*
X187795Y-48684D01*
Y-51969D01*
X181755D01*
X181391Y-51605D01*
X181377Y-51557D01*
G03X180999Y-50782I-2637J-804D01*
G03X181473Y-49236I-2283J1546D01*
G03X175960I-2757J0D01*
G03X176041Y-49898I2757J1D01*
G02X175652Y-50394I-388J-96D01*
G01X173622D01*
G03X172509Y-50855I0J-1575D01*
G01X168639Y-54724D01*
X167717D01*
Y-49471D01*
X174342Y-42846D01*
G03X174803Y-41732I-1113J1114D01*
G01Y-30709D01*
G03X174342Y-29595I-1575J0D01*
G01X172865Y-28119D01*
X172852Y-28096D01*
G03X170472Y-26731I-2380J-1392D01*
G03X168988Y-27165I0J-2757D01*
G01X162205D01*
G03X161091Y-27627I0J-1575D01*
G01X153678Y-35039D01*
X140551D01*
G03X139438Y-35501I0J-1575D01*
G01X132476Y-42463D01*
G02X131894Y-42447I-283J283D01*
G03X129839Y-41527I-2056J-1837D01*
G03X127082Y-44283I0J-2757D01*
G03X128002Y-46339I2757J0D01*
G02X128018Y-46920I-267J-298D01*
G01X127627Y-47312D01*
G03X127165Y-48425I1113J-1114D01*
G01Y-57480D01*
X124803D01*
Y-53602D01*
G03X124804Y-53543I-2362J61D01*
G03X124803Y-53485I-2363J-2D01*
G01Y-53150D01*
G03X124342Y-52036I-1575J0D01*
G01X123161Y-50855D01*
G03X122047Y-50394I-1114J-1113D01*
G01X106693D01*
G03X105580Y-50855I0J-1575D01*
G01X105253Y-51181D01*
X92520D01*
G03X91406Y-51643I0J-1575D01*
G01X85107Y-57942D01*
G03X84646Y-59055I1113J-1114D01*
G01Y-75726D01*
X83993Y-76378D01*
X73487D01*
X68110Y-71001D01*
Y-56299D01*
X75681D01*
G02X76069Y-56798I0J-400D01*
G03X75983Y-57480I2671J-683D01*
G03X81497I2757J0D01*
G03X81411Y-56796I-2757J0D01*
G02X81817Y-56298I387J99D01*
G03X83003Y-55838I73J1573D01*
G01X91597Y-47244D01*
X93348D01*
X93385Y-47397D01*
G03X98741I2678J653D01*
G01X98778Y-47244D01*
X107881D01*
G03X112859I2489J1185D01*
G01X117323D01*
G03X118436Y-46783I0J1575D01*
G01X118556Y-46663D01*
X118663Y-46687D01*
G03X119260Y-46753I597J2691D01*
G03X122017Y-43996I0J2757D01*
G03X121951Y-43399I-2757J1D01*
G01X121927Y-43292D01*
X133723Y-31496D01*
X147743D01*
G03X147807Y-31497I66J2756D01*
G03X147871Y-31496I-2J2757D01*
G01X151575D01*
G03X152688Y-31035I0J1575D01*
G01X160889Y-22835D01*
G37*
G36*
G01X162857Y-30315D02*
X167839D01*
X167887Y-30446D01*
G03X170472Y-32245I2585J957D01*
G03X171155Y-32159I0J2757D01*
G02X171654Y-32547I99J-388D01*
G01Y-41080D01*
X170176Y-42558D01*
X170039Y-42466D01*
G03X168592Y-42001I-1535J-2290D01*
G02X168207Y-41563I13J400D01*
G03X168217Y-41339I-2352J224D01*
G03X163491I-2363J0D01*
G03X165485Y-43672I2363J0D01*
G02X165813Y-44155I-62J-395D01*
G03X165762Y-44470I2691J-598D01*
G03X165642Y-44468I-123J-2754D01*
G03X162885Y-47224I0J-2757D01*
G03X164567Y-49763I2757J0D01*
G01Y-54331D01*
X155030D01*
G02X154739Y-53657I0J400D01*
G03X156497Y-49213I-4738J4444D01*
G03X143503I-6497J0D01*
G03X145261Y-53657I6496J0D01*
G02X144970Y-54331I-292J-274D01*
G01X142913D01*
G03X141800Y-54792I0J-1575D01*
G01X128875Y-67717D01*
X111816D01*
X111798Y-67537D01*
G03X109055Y-65054I-2743J-274D01*
G03X106298Y-67811I0J-2757D01*
G03X106365Y-68411I2757J1D01*
G02X105974Y-68898I-390J-87D01*
G01X99865D01*
X98425Y-67458D01*
Y-61024D01*
G03X97964Y-59910I-1575J0D01*
G01X95995Y-57942D01*
G03X94882Y-57480I-1114J-1113D01*
G01X90988D01*
G02X90705Y-56798I0J400D01*
G01X93172Y-54331D01*
X105906D01*
G03X107019Y-53869I0J1575D01*
G01X107345Y-53543D01*
X107758D01*
X107764Y-53737D01*
G03X109671Y-56276I2755J84D01*
G03X111850Y-58549I2723J430D01*
G03X114508Y-60576I2658J730D01*
G03X114982Y-60534I-1J2757D01*
G03X117240Y-61709I2258J1581D01*
G03Y-56196I0J2757D01*
G03X116766Y-56237I1J-2757D01*
G03X115052Y-55117I-2258J-1582D01*
G03X114593Y-54184I-2658J-730D01*
G02X114912Y-53543I319J241D01*
G01X120071D01*
X120085Y-53728D01*
G03X121531Y-55724I2356J184D01*
G01X121654Y-55775D01*
Y-58268D01*
G03X122115Y-59381I1575J0D01*
G01X122902Y-60169D01*
G03X124016Y-60630I1114J1113D01*
G01X127953D01*
G03X129066Y-60169I0J1575D01*
G01X129854Y-59381D01*
G03X130315Y-58268I-1113J1114D01*
G01Y-49078D01*
X131818Y-47574D01*
G02X132419Y-47614I283J-283D01*
G03X134606Y-48694I2188J1677D01*
G03X137363Y-45937I0J2757D01*
G03X136283Y-43749I-2757J0D01*
G02X136244Y-43149I243J318D01*
G01X141204Y-38189D01*
X154331D01*
G03X155444Y-37728I0J1575D01*
G01X162857Y-30315D01*
G37*
%LPC*%
G75*
G54D19*
X78346Y-70472D03*
G54D20*
X72494Y-67034D03*
%LPD*%
G75*
G54D10*
X11811Y-106299D03*
Y-11811D03*
X342520Y-106299D03*
Y-11811D03*
G54D11*
G01X13780Y-33858D02*
Y-29240D01*
X11417Y-26878D01*
G01X13780Y-33858D02*
X18110D01*
X20472Y-31496D01*
G01X13780Y-38976D02*
X18110D01*
X20472Y-41339D01*
G01X13780Y-33858D02*
Y-38976D01*
G01X27165Y-90551D02*
Y-97638D01*
X37795Y-108268D01*
X67323D01*
X71260Y-104331D01*
Y-100787D01*
X74409Y-97638D01*
X89370D01*
X93276Y-101543D01*
X96622D01*
G01X20472Y-41339D02*
Y-62205D01*
X24016Y-65748D01*
Y-87402D01*
X27165Y-90551D01*
G01X26378Y-15067D02*
X24409Y-17035D01*
Y-26772D01*
X27559Y-29921D01*
Y-34252D01*
G01X20472Y-36220D02*
X25591D01*
X27559Y-34252D01*
G01X20472Y-31496D02*
Y-36220D01*
G01Y-41339D02*
X25461D01*
X27559Y-39240D01*
G01X20472Y-36220D02*
Y-41339D01*
G01X27559Y-34252D02*
Y-39240D01*
G01X40869Y-85115D02*
X38583Y-87402D01*
Y-94488D01*
X41732Y-97638D01*
Y-101969D01*
G01X48799Y-33134D02*
X41732D01*
X40157Y-34709D01*
Y-40945D01*
X41339Y-42126D01*
Y-52362D01*
X36861Y-56840D01*
Y-66782D01*
X38189Y-68110D01*
G01X40869Y-85115D02*
Y-70791D01*
X38189Y-68110D01*
G01X62598Y-88189D02*
X59843D01*
X55906Y-84252D01*
X51181D01*
X47244Y-88189D01*
X44094D01*
X41020Y-85115D01*
X40869D01*
G01X51398Y-33157D02*
X48823D01*
X48799Y-33134D01*
G01X53874Y-33197D02*
X51437D01*
X51398Y-33157D01*
G01X83465Y-63386D02*
X78346D01*
X75197Y-60236D01*
X71223D01*
X68861Y-57874D01*
G01X72047Y-73335D02*
X74303Y-75591D01*
X81890D01*
X83465Y-74016D01*
Y-63386D01*
G01D02*
Y-57874D01*
X90945Y-50394D01*
X103937D01*
X104724Y-49606D01*
X122047D01*
X124016Y-47638D01*
G01X96661Y-106091D02*
Y-103795D01*
X96685Y-103772D01*
G01D02*
Y-101606D01*
X96622Y-101543D01*
G01D02*
X97709Y-100456D01*
Y-99609D01*
X98862Y-98457D01*
G01X137689Y-79134D02*
Y-83965D01*
X125984Y-95669D01*
X104724D01*
X101937Y-98457D01*
X98862D01*
G01X100832Y-64673D02*
X101002D01*
X102382Y-66053D01*
G01D02*
X104636D01*
X104724Y-66142D01*
G01X98531Y-55512D02*
X101181D01*
G01D02*
X103831D01*
G01X100832Y-64673D02*
Y-59843D01*
G01D02*
Y-57398D01*
X101181Y-57050D01*
Y-55512D01*
G01X100832Y-59843D02*
X107087D01*
X111417Y-64173D01*
X129134D01*
X131783Y-61524D01*
Y-59343D01*
G01X126406Y-53563D02*
Y-50028D01*
X124016Y-47638D01*
G01D02*
Y-42126D01*
X133071Y-33071D01*
X152362D01*
X161811Y-23622D01*
X172441D01*
G01X131783Y-59343D02*
Y-57148D01*
X131845Y-57087D01*
G01D02*
X133858D01*
X134252Y-56693D01*
G01X170472Y-35039D02*
X160630D01*
X155906Y-39764D01*
X143701D01*
X140157Y-43307D01*
Y-47244D01*
X137008Y-50394D01*
Y-53937D01*
X134252Y-56693D01*
G01X126406Y-53563D02*
Y-55870D01*
X126531Y-55996D01*
G01X137689Y-79134D02*
Y-77665D01*
X138976Y-76378D01*
G01X142126D02*
X138976D01*
G01X142126D02*
Y-77953D01*
X140945Y-79134D01*
X137689D01*
G01X192388Y-61417D02*
X183071D01*
X179134Y-57480D01*
X171260D01*
X169291Y-59449D01*
X143307D01*
X137008Y-65748D01*
Y-74409D01*
X138976Y-76378D01*
G01X162992Y-12992D02*
X168898D01*
X172441Y-16535D01*
Y-23622D01*
G01X179528Y-66929D02*
X179134D01*
X176878Y-64673D01*
Y-62598D01*
G01D02*
X178846D01*
X179528Y-63280D01*
G01X176378Y-43307D02*
X168504Y-51181D01*
Y-53630D01*
G01X172441Y-23622D02*
Y-25197D01*
X176378Y-29134D01*
Y-43307D01*
G01X324016Y-93307D02*
X317717Y-99606D01*
X300787D01*
X296850Y-95669D01*
X282480D01*
X280315Y-97835D01*
Y-105511D01*
X277165Y-108661D01*
X267717D01*
X264567Y-105512D01*
X245276D01*
X240551Y-100787D01*
X219291D01*
X210236Y-91732D01*
X201575D01*
X188780Y-104527D01*
X182480D01*
X179528Y-101575D01*
G01D02*
Y-66929D01*
G01Y-63280D02*
Y-66929D01*
G01X256504Y-82496D02*
X254429D01*
X254248Y-82677D01*
X249213D01*
X241732Y-75197D01*
X234646D01*
X231496Y-78347D01*
Y-79921D01*
X226272Y-85146D01*
Y-90157D01*
G01D02*
Y-92626D01*
G01Y-90157D02*
X225803D01*
X223335Y-92626D01*
G01Y-95169D02*
Y-92626D01*
G01X226272Y-95276D02*
Y-92626D01*
G01X230315Y-73622D02*
Y-70472D01*
X225089Y-65247D01*
X223908D01*
X222441Y-63780D01*
G01Y-60736D02*
Y-63780D01*
G01X251181Y-43701D02*
Y-47244D01*
X246850Y-51575D01*
Y-57087D01*
X243307Y-60630D01*
X225197D01*
G01X222441Y-60736D02*
X225091D01*
G01D02*
X224516Y-61311D01*
Y-61596D01*
X224109Y-62002D01*
Y-62111D01*
X222441Y-63780D01*
G01X227059Y-44201D02*
Y-47138D01*
G01X224016Y-44201D02*
X227059D01*
G01X257087Y-19685D02*
X237795D01*
X233858Y-23622D01*
Y-33071D01*
X227165Y-39764D01*
Y-42557D01*
X227059Y-42663D01*
Y-44201D01*
G01X229815Y-16248D02*
Y-16642D01*
X228346Y-18110D01*
G01D02*
Y-18536D01*
X229815Y-20005D01*
G01Y-16248D02*
X230902Y-17335D01*
Y-18917D01*
X229815Y-20005D01*
G01X280315Y-10236D02*
Y-12311D01*
X277665Y-14961D01*
X262599D01*
X256300Y-8661D01*
X235327D01*
X229815Y-14173D01*
Y-16248D01*
G01X243307Y-92126D02*
X240748Y-94685D01*
X234358D01*
G01X233728Y-82874D02*
X238386D01*
G01X242232Y-28740D02*
X244201Y-26772D01*
X250787D01*
X252756Y-28740D01*
X255224D01*
G01X253937Y-43701D02*
X251181D01*
G01X262562Y-44094D02*
Y-56335D01*
X259843Y-59055D01*
Y-67359D01*
X262562Y-70079D01*
Y-76020D01*
G01D02*
X258661Y-79921D01*
G01X255224Y-28740D02*
X253937Y-30028D01*
Y-43701D01*
G01X258268Y-44094D02*
X262562D01*
G01D02*
Y-39800D01*
X266535Y-35827D01*
X272835D01*
X282283Y-26378D01*
G01X255224Y-28740D02*
X257299D01*
X259661Y-26378D01*
X266929D01*
X268898Y-28346D01*
G01X287795Y-24409D02*
X285827Y-22441D01*
X275197D01*
X272441Y-19685D01*
X257087D01*
G01D02*
Y-15748D01*
G01X272835Y-105618D02*
Y-102362D01*
G01X300000Y-12992D02*
X295669Y-8661D01*
X281890D01*
X280315Y-10236D01*
G01X290551Y-85433D02*
X289764Y-86220D01*
Y-88189D01*
G01X290551Y-85433D02*
X298819D01*
X303937Y-90551D01*
G01X285433Y-82283D02*
X288583Y-85433D01*
X290551D01*
G01X287319Y-72870D02*
Y-41815D01*
X290551Y-38583D01*
X313780D01*
X318091Y-42894D01*
Y-48917D01*
G01X300000Y-12992D02*
X303037Y-9955D01*
X315848D01*
X318429Y-12535D01*
G01X318898Y-87008D02*
X314173D01*
X310630Y-83465D01*
Y-81496D01*
G01X318898Y-90014D02*
Y-87008D01*
G01D02*
X321260Y-84646D01*
X324016D01*
X325984Y-82677D01*
Y-74016D01*
X322441Y-70472D01*
Y-50787D01*
X320571Y-48917D01*
X318091D01*
G01X326772Y-90157D02*
X324016D01*
G01X326772D02*
X329815D01*
G01X326772Y-93307D02*
Y-90157D01*
G01Y-93307D02*
X324016D01*
G01X329815D02*
X326772D01*
G01X324016Y-90157D02*
Y-93307D01*
G01X329815D02*
Y-90157D01*
X13780Y-83858D03*
Y-78752D03*
Y-74016D03*
Y-33858D03*
Y-38976D03*
X11417Y-26878D03*
X24409Y-108374D03*
X21547Y-105906D03*
X18398Y-96850D03*
X20866Y-93988D03*
X20472Y-78740D03*
Y-83858D03*
X27165D03*
Y-78752D03*
X20472Y-74016D03*
X27165D03*
X20472Y-36220D03*
X27559Y-34252D03*
X20472Y-41339D03*
X27559Y-39240D03*
X20472Y-31496D03*
X26378Y-15067D03*
X35933Y-97638D03*
X28634Y-105118D03*
X32283Y-95169D03*
X36114Y-78346D03*
X35039Y-72441D03*
X38189Y-68110D03*
X37776Y-49193D03*
X28846Y-20079D03*
X41732Y-101969D03*
X41839Y-91339D03*
X44094Y-93701D03*
X48819Y-78240D03*
X45169Y-84449D03*
X45669Y-67429D03*
X48138Y-54331D03*
X41732Y-59055D03*
X47122Y-37402D03*
X48799Y-33134D03*
X42520Y-12205D03*
X52469Y-88189D03*
Y-80709D03*
X56429Y-38980D03*
X53874Y-33197D03*
X51398Y-33157D03*
X49606Y-25878D03*
X56980Y-31102D03*
X62598Y-88189D03*
Y-80709D03*
X63673Y-70866D03*
X68861Y-57874D03*
X65575Y-32984D03*
X65661Y-38343D03*
X66075Y-25551D03*
X65630Y-28154D03*
X72154Y-80709D03*
X72494Y-67034D03*
X78346Y-70472D03*
X72047Y-73335D03*
X78740Y-57480D03*
X78276Y-47224D03*
X71898Y-25500D03*
X82543Y-101205D03*
Y-103909D03*
X82665Y-106736D03*
X88189Y-61417D03*
X95276Y-97835D03*
X96622Y-101543D03*
X96685Y-103772D03*
X96661Y-106091D03*
X98862Y-98457D03*
X92913Y-95866D03*
X102020Y-82272D03*
X100091Y-79480D03*
X92913Y-76772D03*
X100051Y-74051D03*
X102382Y-66053D03*
X100832Y-64673D03*
X98531Y-55512D03*
X101181D03*
X95205Y-43701D03*
X96063Y-46744D03*
X110724Y-101130D03*
X110764Y-103945D03*
X110724Y-106705D03*
X111811Y-86811D03*
X106429Y-80696D03*
X109055Y-67811D03*
X104724Y-66142D03*
X112992Y-74016D03*
X112394Y-55846D03*
X103831Y-55512D03*
X110370Y-46059D03*
X110520Y-53654D03*
X118110Y-77953D03*
X117240Y-58953D03*
X114508Y-57819D03*
X119260Y-43996D03*
X122441Y-53543D03*
X117693Y-38512D03*
X124575Y-74016D03*
X131845Y-57087D03*
X131783Y-59343D03*
X134252Y-56693D03*
X126531Y-55996D03*
X129839Y-44283D03*
X134606Y-45937D03*
X126406Y-53563D03*
X138976Y-76378D03*
X137689Y-79134D03*
X142126Y-76378D03*
X138189Y-23909D03*
X141189Y-27705D03*
X138217Y-21327D03*
X153398Y-81551D03*
X149555Y-77957D03*
X147807Y-28740D03*
X166929Y-105118D03*
Y-107768D03*
X162508Y-82874D03*
X165642Y-47224D03*
X165854Y-41339D03*
X166142Y-18504D03*
X162992Y-12992D03*
X169685Y-105118D03*
Y-107768D03*
X170472Y-95776D03*
X172941Y-92913D03*
X173217Y-76677D03*
X173728Y-68051D03*
X176878Y-62598D03*
X168504Y-44756D03*
Y-53630D03*
X170472Y-35039D03*
Y-29488D03*
X186614Y-99894D03*
X184646Y-69579D03*
X187114Y-72441D03*
X183965Y-56693D03*
X187008D03*
X179528Y-63280D03*
X178717Y-49236D03*
X178740Y-52362D03*
X186220Y-44201D03*
X182677Y-44776D03*
X186220Y-51181D03*
X179528Y-24610D03*
X187008Y-30315D03*
X185827Y-12098D03*
X183534Y-12194D03*
X184283Y-10259D03*
X186614Y-10236D03*
X189264Y-98425D03*
X194882Y-105118D03*
X189264Y-95776D03*
X194776Y-88976D03*
Y-92126D03*
X194882Y-80709D03*
Y-66535D03*
X194488Y-55118D03*
X194882Y-63780D03*
X190157Y-44201D03*
X196063Y-33465D03*
X194776Y-38189D03*
Y-40945D03*
X196063Y-21654D03*
X192626Y-16248D03*
X195669Y-9055D03*
X201969Y-108661D03*
X205118Y-98425D03*
Y-103543D03*
Y-94882D03*
X203937Y-88976D03*
X205512Y-80709D03*
X209843Y-81496D03*
X204724Y-70472D03*
Y-73622D03*
X203937Y-63780D03*
X205512Y-55118D03*
X204724Y-44488D03*
Y-47638D03*
X203937Y-38189D03*
X205406Y-26563D03*
X205906Y-9055D03*
X211811Y-79528D03*
X214567Y-80709D03*
Y-76772D03*
X210630D03*
X220760Y-51862D03*
X217323Y-26378D03*
X212205Y-28346D03*
X221547Y-104831D03*
Y-106980D03*
X224016Y-104331D03*
Y-106693D03*
X226272Y-92626D03*
Y-95276D03*
X223335Y-95169D03*
Y-92626D03*
X227165Y-79134D03*
X230315Y-73622D03*
X222441D03*
X231399Y-56989D03*
X222441Y-60736D03*
Y-63780D03*
X225197Y-60630D03*
X231274Y-64567D03*
X221654Y-54331D03*
Y-56587D03*
X224016Y-44201D03*
X227059D03*
Y-47138D03*
X227165Y-34646D03*
X231102Y-42126D03*
X222047Y-28346D03*
X226878Y-29528D03*
X229028Y-30602D03*
X229815Y-16248D03*
X228346Y-18110D03*
X229815Y-20005D03*
X223091Y-9555D03*
X225980D03*
X228787D03*
X242126Y-107087D03*
X239370Y-91035D03*
X236508Y-87008D03*
X233728Y-86614D03*
X234358Y-94685D03*
X237453Y-79134D03*
X233728Y-82874D03*
X239711Y-47191D03*
X238189Y-33071D03*
X235039Y-38583D03*
X240157Y-11705D03*
X252717Y-108661D03*
X249213Y-103150D03*
X250787Y-88689D03*
X252362Y-91626D03*
X247130Y-68612D03*
X249606Y-66929D03*
X242835Y-68594D03*
X251181Y-43701D03*
X244194Y-48131D03*
X242232Y-28740D03*
X243331Y-23094D03*
X248819Y-31602D03*
X259449Y-108661D03*
X256713Y-91626D03*
X261024Y-95669D03*
X263508Y-88583D03*
X258661Y-79921D03*
X253256D03*
X256504Y-82496D03*
X259047Y-74020D03*
X253402Y-56118D03*
X253937Y-43701D03*
X258268Y-44094D03*
X255406Y-54150D03*
X253386Y-52181D03*
X255224Y-28740D03*
X256323Y-23094D03*
X261811Y-31209D03*
X253150Y-11705D03*
X257087Y-15748D03*
X272835Y-105618D03*
X270472Y-88189D03*
X271654Y-92413D03*
X267323Y-80709D03*
X272634Y-80339D03*
X270665Y-77276D03*
X266142Y-67717D03*
X269291D03*
X266142Y-64961D03*
Y-62598D03*
X269291Y-64961D03*
X266142Y-59843D03*
X269291Y-62598D03*
X268744Y-40752D03*
X265748Y-32283D03*
X274016Y-27953D03*
X268898Y-28346D03*
X269291Y-23094D03*
X266142Y-11111D03*
X279921Y-88189D03*
X282283Y-91732D03*
X278539Y-79921D03*
X279921Y-84646D03*
X280508Y-77276D03*
X283465Y-80315D03*
X274602Y-77276D03*
X284445D03*
X282283Y-61024D03*
Y-63780D03*
X278740Y-58661D03*
X276618Y-38476D03*
X274650Y-40752D03*
X282283Y-26378D03*
X275331Y-10213D03*
X280315Y-10236D03*
X285933Y-99409D03*
X290839D03*
X290051Y-103150D03*
X285933D03*
X290051Y-107087D03*
X293701Y-88189D03*
X294488Y-91732D03*
X289764Y-88189D03*
X292445Y-82283D03*
X288906Y-76146D03*
X287319Y-72870D03*
X295157Y-68819D03*
X291929Y-65937D03*
X293500Y-73539D03*
X291929Y-62000D03*
X291732Y-47064D03*
X291929Y-52157D03*
X292126Y-43307D03*
X292520Y-27559D03*
X287795Y-24409D03*
X290047Y-12504D03*
X289778Y-16201D03*
X301575Y-107087D03*
X303937Y-90551D03*
X303437Y-83465D03*
X295839Y-71835D03*
X305067Y-61976D03*
X303567Y-52719D03*
X304437Y-25984D03*
X300707Y-16535D03*
X300000Y-12992D03*
X307480Y-107087D03*
X309161Y-88583D03*
X310630Y-81496D03*
X316976Y-63980D03*
X312075Y-62012D03*
X308567Y-52719D03*
X313555D03*
X323622Y-98819D03*
X320760Y-104724D03*
X318898Y-90014D03*
X324016Y-90157D03*
X326772D03*
X324016Y-93307D03*
X326772D03*
X319291Y-81575D03*
X318504Y-78530D03*
Y-73228D03*
X320051Y-75693D03*
X326791Y-56445D03*
X326677Y-61551D03*
X318091Y-48917D03*
X326378Y-46457D03*
X326772Y-51504D03*
X326378Y-41339D03*
X326772Y-36496D03*
X331996Y-100787D03*
X329815Y-90157D03*
Y-93307D03*
X332390Y-76496D03*
X343575Y-91772D03*
X343594Y-94843D03*
X340484D03*
Y-91811D03*
X341823Y-89315D03*
X343043Y-84024D03*
X340551Y-76378D03*
Y-71496D03*
Y-66496D03*
X340563Y-56504D03*
X343701Y-61417D03*
X340551Y-46457D03*
X340157Y-51575D03*
X340551Y-41732D03*
Y-36614D03*
Y-31496D03*
G54D12*
X54724Y-99409D03*
Y-68898D03*
Y-49213D03*
Y-18701D03*
X150000Y-99409D03*
Y-68898D03*
Y-49213D03*
Y-18701D03*
G54D13*
X71260Y-12205D03*
X86220D03*
X114173D03*
X130709D03*
G54D14*
X313780Y-104724D03*
Y-94724D03*
X318429Y-25134D03*
Y-12535D03*
X312130Y-18835D03*
X324728D03*
G54D15*
G01X176378Y-43307D02*
X177165D01*
X181890Y-48031D01*
X183071D01*
X186220Y-51181D01*
G01X276772Y-88583D02*
X278740Y-90551D01*
X280315D01*
X282677Y-88189D01*
G54D16*
G01X27165Y-90551D02*
X34646Y-83071D01*
Y-79815D01*
X36114Y-78346D01*
G01X183534Y-12194D02*
Y-14072D01*
X183071Y-14535D01*
Y-32677D01*
X188583Y-38189D01*
X194776D01*
G01X184283Y-10259D02*
Y-11445D01*
X183534Y-12194D01*
G01D02*
X185731D01*
X185827Y-12098D01*
G01X186591Y-10259D02*
X185827Y-11024D01*
Y-12098D01*
G01X186591Y-10259D02*
X184283D01*
G01X194776Y-88976D02*
Y-92126D01*
G01X192126Y-73228D02*
X191339Y-74016D01*
Y-85539D01*
X194776Y-88976D01*
G01X192126Y-73228D02*
X192520Y-73622D01*
X195669D01*
X198425Y-76378D01*
X203543D01*
X205512Y-78346D01*
Y-80709D01*
G01X192126Y-68110D02*
Y-73228D01*
G01X194882Y-66535D02*
X193307Y-68110D01*
X192126D01*
G01D02*
Y-64961D01*
G01X194882Y-63780D02*
X193701Y-64961D01*
X192126D01*
G01D02*
X192388Y-64698D01*
Y-61417D01*
G01D02*
Y-50656D01*
G01X194776Y-40945D02*
Y-42483D01*
X194488Y-42770D01*
Y-45276D01*
X192126Y-47638D01*
Y-50394D01*
X192388Y-50656D01*
G01D02*
X192520Y-50787D01*
X196457D01*
X200787Y-55118D01*
X205512D01*
G01X194776Y-40945D02*
Y-38189D01*
G01X280315Y-82283D02*
X280906Y-81693D01*
X282283Y-83071D01*
X284252D01*
X284819Y-82504D01*
G01X275591Y-82283D02*
X280315D01*
G54D17*
G01X319291Y-81575D02*
X315237D01*
X306103Y-72441D01*
X301181D01*
X297476Y-76146D01*
X288906D01*
G01X318504Y-78530D02*
X315735D01*
X306024Y-68819D01*
X295157D01*
G01X320051Y-75693D02*
X317031D01*
X307276Y-65937D01*
X291929D01*
G01Y-62000D02*
X303520D01*
X303543Y-61976D01*
X305067D01*
G01X318504Y-73228D02*
X307252Y-61976D01*
X305067D01*
G54D18*
G01X186614Y-10236D02*
X186591Y-10259D01*
G01X225091Y-60736D02*
X225197Y-60630D01*
M02*
